M48
; DRILL file {KiCad (5.1.10)-1} date 02/08/22 11:58:46
; FORMAT={-:-/ absolute / inch / decimal}
; #@! TF.CreationDate,2022-02-08T11:58:46+09:00
; #@! TF.GenerationSoftware,Kicad,Pcbnew,(5.1.10)-1
FMAT,2
INCH
T1C0.0315
T2C0.0354
T3C0.0374
T4C0.0394
T5C0.1260
%
G90
G05
T1
X4.1Y-2.6
X4.1Y-3.6
X4.125Y-3.925
X4.125Y-4.05
X4.125Y-4.175
X4.125Y-4.3
X4.225Y-3.775
X4.4219Y-3.775
X4.5Y-2.6
X4.5Y-3.6
X4.525Y-3.925
X4.525Y-4.05
X4.525Y-4.175
X4.525Y-4.3
X4.65Y-3.95
X4.65Y-4.05
X4.65Y-4.15
X4.65Y-4.25
X4.65Y-4.375
X4.675Y-2.9016
X4.675Y-3.0
X4.675Y-3.2016
X4.675Y-3.3
X4.7484Y-4.375
X4.8516Y-3.825
X4.875Y-2.825
X4.875Y-2.95
X4.95Y-3.825
X4.95Y-3.95
X4.95Y-4.05
X4.95Y-4.15
X4.95Y-4.25
X5.075Y-3.075
X5.075Y-3.275
X5.075Y-4.025
X5.075Y-4.15
X5.075Y-4.275
X5.075Y-4.4
X5.175Y-3.175
X5.175Y-3.875
X5.275Y-2.825
X5.275Y-2.95
X5.3719Y-3.875
X5.4Y-2.95
X5.4Y-3.05
X5.4Y-3.15
X5.4Y-3.25
X5.4Y-3.375
X5.4016Y-2.7
X5.475Y-4.025
X5.475Y-4.15
X5.475Y-4.275
X5.475Y-4.4
X5.4984Y-3.375
X5.5Y-2.7
X5.6016Y-2.825
X5.7Y-2.825
X5.7Y-2.95
X5.7Y-3.05
X5.7Y-3.15
X5.7Y-3.25
X5.7Y-3.875
X5.7Y-4.275
X5.8Y-3.4016
X5.8Y-3.5
X5.925Y-3.925
X5.925Y-4.05
X5.925Y-4.175
X5.925Y-4.3
X6.025Y-3.775
X6.0281Y-4.45
X6.0281Y-4.6
X6.05Y-3.35
X6.05Y-3.5
X6.2219Y-3.775
X6.225Y-4.45
X6.225Y-4.6
X6.25Y-2.6
X6.25Y-3.0
X6.2531Y-3.2
X6.325Y-3.925
X6.325Y-4.05
X6.325Y-4.175
X6.325Y-4.3
X6.45Y-3.2
X6.45Y-3.35
X6.45Y-3.5
X6.45Y-3.95
X6.45Y-4.05
X6.45Y-4.15
X6.45Y-4.25
X6.4516Y-4.375
X6.5Y-2.6
X6.5Y-2.7
X6.5Y-2.8
X6.55Y-4.375
X6.65Y-2.45
X6.65Y-2.6
X6.65Y-3.0
X6.65Y-3.2
X6.65Y-3.3
X6.65Y-3.4
X6.65Y-3.5
X6.6516Y-3.825
X6.75Y-3.825
X6.75Y-3.95
X6.75Y-4.05
X6.75Y-4.15
X6.75Y-4.25
X6.8Y-2.6016
X6.8Y-2.7
X6.875Y-4.025
X6.875Y-4.15
X6.875Y-4.275
X6.875Y-4.4
X6.9Y-2.8
X6.9Y-2.9
X6.9Y-3.0
X6.9Y-3.3
X6.9Y-3.4
X6.9Y-3.5
X6.95Y-2.6
X6.975Y-3.725
X6.9781Y-3.875
X7.05Y-2.45
X7.05Y-3.2
X7.1469Y-2.6
X7.15Y-2.8
X7.15Y-2.9
X7.15Y-3.0
X7.15Y-3.3
X7.15Y-3.4
X7.15Y-3.5
X7.1719Y-3.725
X7.175Y-3.875
X7.275Y-4.025
X7.275Y-4.15
X7.275Y-4.275
X7.275Y-4.4
T2
X4.6Y-2.6
X4.6Y-3.6
X4.7Y-2.6
X4.7Y-3.6
T3
X4.8079Y-4.65
X4.9063Y-4.65
X5.0047Y-4.65
X5.1031Y-4.65
X5.2016Y-4.65
X5.3Y-4.65
X6.0Y-2.9
X6.0Y-2.9984
X6.0Y-3.0969
T4
X4.2Y-2.9
X4.2Y-3.0
X4.2Y-3.1
X4.2Y-3.2
X4.2Y-3.3
X4.3Y-2.9
X4.3Y-3.0
X4.3Y-3.1
X4.3Y-3.2
X4.3Y-3.3
X4.35Y-4.6
X4.35Y-4.7
X5.275Y-3.6
X5.375Y-3.6
X5.975Y-2.45
X5.975Y-2.55
T5
X3.95Y-2.45
X3.95Y-4.75
X7.35Y-2.45
X7.35Y-4.75
T0
M30
