G04 #@! TF.GenerationSoftware,KiCad,Pcbnew,(5.1.10)-1*
G04 #@! TF.CreationDate,2022-02-08T11:58:22+09:00*
G04 #@! TF.ProjectId,NOS02_V1.1,4e4f5330-325f-4563-912e-312e6b696361,Ver. 1.1*
G04 #@! TF.SameCoordinates,Original*
G04 #@! TF.FileFunction,Soldermask,Bot*
G04 #@! TF.FilePolarity,Negative*
%FSLAX46Y46*%
G04 Gerber Fmt 4.6, Leading zero omitted, Abs format (unit mm)*
G04 Created by KiCad (PCBNEW (5.1.10)-1) date 2022-02-08 11:58:22*
%MOMM*%
%LPD*%
G01*
G04 APERTURE LIST*
%ADD10O,1.700000X1.700000*%
%ADD11R,1.700000X1.700000*%
%ADD12O,1.950000X1.700000*%
%ADD13O,1.600000X1.600000*%
%ADD14C,1.600000*%
%ADD15R,1.500000X1.500000*%
%ADD16C,1.500000*%
%ADD17R,1.600000X1.600000*%
%ADD18C,3.200000*%
%ADD19C,1.440000*%
%ADD20O,1.700000X1.950000*%
%ADD21C,1.700000*%
%ADD22C,1.800000*%
%ADD23R,1.800000X1.800000*%
G04 APERTURE END LIST*
D10*
G04 #@! TO.C,J2*
X136525000Y-91440000D03*
D11*
X133985000Y-91440000D03*
G04 #@! TD*
D10*
G04 #@! TO.C,J5*
X151765000Y-64770000D03*
D11*
X151765000Y-62230000D03*
G04 #@! TD*
D12*
G04 #@! TO.C,SW1*
X152400000Y-78660000D03*
X152400000Y-76160000D03*
G36*
G01*
X151675000Y-72810000D02*
X153125000Y-72810000D01*
G75*
G02*
X153375000Y-73060000I0J-250000D01*
G01*
X153375000Y-74260000D01*
G75*
G02*
X153125000Y-74510000I-250000J0D01*
G01*
X151675000Y-74510000D01*
G75*
G02*
X151425000Y-74260000I0J250000D01*
G01*
X151425000Y-73060000D01*
G75*
G02*
X151675000Y-72810000I250000J0D01*
G01*
G37*
G04 #@! TD*
D13*
G04 #@! TO.C,R27*
X153670000Y-88900000D03*
D14*
X163830000Y-88900000D03*
G04 #@! TD*
D13*
G04 #@! TO.C,R26*
X163830000Y-85090000D03*
D14*
X153670000Y-85090000D03*
G04 #@! TD*
D13*
G04 #@! TO.C,R14*
X179070000Y-81280000D03*
D14*
X168910000Y-81280000D03*
G04 #@! TD*
D13*
G04 #@! TO.C,R12*
X179070000Y-62230000D03*
D14*
X168910000Y-62230000D03*
G04 #@! TD*
D13*
G04 #@! TO.C,R8*
X158750000Y-66040000D03*
D14*
X158750000Y-76200000D03*
G04 #@! TD*
D13*
G04 #@! TO.C,R7*
X168910000Y-66040000D03*
D14*
X168910000Y-76200000D03*
G04 #@! TD*
D15*
G04 #@! TO.C,Q6*
X168910000Y-88900000D03*
D16*
X168910000Y-83820000D03*
X168910000Y-86360000D03*
G04 #@! TD*
D15*
G04 #@! TO.C,Q5*
X181610000Y-83820000D03*
D16*
X181610000Y-88900000D03*
X181610000Y-86360000D03*
G04 #@! TD*
D15*
G04 #@! TO.C,Q4*
X175260000Y-88900000D03*
D16*
X175260000Y-83820000D03*
X175260000Y-86360000D03*
G04 #@! TD*
D15*
G04 #@! TO.C,Q3*
X181610000Y-71120000D03*
D16*
X181610000Y-76200000D03*
X181610000Y-73660000D03*
G04 #@! TD*
D15*
G04 #@! TO.C,Q2*
X175260000Y-76200000D03*
D16*
X175260000Y-71120000D03*
X175260000Y-73660000D03*
G04 #@! TD*
D15*
G04 #@! TO.C,Q1*
X165100000Y-71120000D03*
D16*
X165100000Y-66040000D03*
X165100000Y-68580000D03*
G04 #@! TD*
D14*
G04 #@! TO.C,C20*
X147320000Y-86400000D03*
D17*
X147320000Y-88900000D03*
G04 #@! TD*
D14*
G04 #@! TO.C,C19*
X158830000Y-81280000D03*
X163830000Y-81280000D03*
G04 #@! TD*
G04 #@! TO.C,C18*
X181530000Y-66040000D03*
X176530000Y-66040000D03*
G04 #@! TD*
G04 #@! TO.C,C15*
X137200000Y-68580000D03*
D17*
X139700000Y-68580000D03*
G04 #@! TD*
D14*
G04 #@! TO.C,C14*
X172720000Y-66080000D03*
X172720000Y-68580000D03*
G04 #@! TD*
D13*
G04 #@! TO.C,U3*
X118110000Y-107950000D03*
X125730000Y-100330000D03*
X118110000Y-105410000D03*
X125730000Y-102870000D03*
X118110000Y-102870000D03*
X125730000Y-105410000D03*
X118110000Y-100330000D03*
D17*
X125730000Y-107950000D03*
G04 #@! TD*
D13*
G04 #@! TO.C,U2*
X137160000Y-82550000D03*
X144780000Y-74930000D03*
X137160000Y-80010000D03*
X144780000Y-77470000D03*
X137160000Y-77470000D03*
X144780000Y-80010000D03*
X137160000Y-74930000D03*
D17*
X144780000Y-82550000D03*
G04 #@! TD*
D18*
G04 #@! TO.C,H4*
X186690000Y-120650000D03*
G04 #@! TD*
G04 #@! TO.C,H3*
X186690000Y-62230000D03*
G04 #@! TD*
G04 #@! TO.C,H2*
X100330000Y-120650000D03*
G04 #@! TD*
G04 #@! TO.C,H1*
X100330000Y-62230000D03*
G04 #@! TD*
D14*
G04 #@! TO.C,C6*
X177245000Y-98425000D03*
X182245000Y-98425000D03*
G04 #@! TD*
D13*
G04 #@! TO.C,U1*
X163830000Y-107950000D03*
X171450000Y-100330000D03*
X163830000Y-105410000D03*
X171450000Y-102870000D03*
X163830000Y-102870000D03*
X171450000Y-105410000D03*
X163830000Y-100330000D03*
D17*
X171450000Y-107950000D03*
G04 #@! TD*
D19*
G04 #@! TO.C,RV1*
X128905000Y-83185000D03*
X131445000Y-80645000D03*
X128905000Y-78105000D03*
G04 #@! TD*
D13*
G04 #@! TO.C,R25*
X114935000Y-99695000D03*
D14*
X104775000Y-99695000D03*
G04 #@! TD*
D13*
G04 #@! TO.C,R24*
X114935000Y-109220000D03*
D14*
X104775000Y-109220000D03*
G04 #@! TD*
D13*
G04 #@! TO.C,R23*
X104775000Y-106045000D03*
D14*
X114935000Y-106045000D03*
G04 #@! TD*
D13*
G04 #@! TO.C,R22*
X104775000Y-102870000D03*
D14*
X114935000Y-102870000D03*
G04 #@! TD*
D13*
G04 #@! TO.C,R21*
X104140000Y-66040000D03*
D14*
X114300000Y-66040000D03*
G04 #@! TD*
D13*
G04 #@! TO.C,R20*
X114300000Y-91440000D03*
D14*
X104140000Y-91440000D03*
G04 #@! TD*
D13*
G04 #@! TO.C,R19*
X128905000Y-102235000D03*
D14*
X139065000Y-102235000D03*
G04 #@! TD*
D13*
G04 #@! TO.C,R18*
X128905000Y-111760000D03*
D14*
X139065000Y-111760000D03*
G04 #@! TD*
D13*
G04 #@! TO.C,R17*
X139065000Y-108585000D03*
D14*
X128905000Y-108585000D03*
G04 #@! TD*
D13*
G04 #@! TO.C,R16*
X139065000Y-105410000D03*
D14*
X128905000Y-105410000D03*
G04 #@! TD*
D13*
G04 #@! TO.C,R15*
X123825000Y-71755000D03*
D14*
X133985000Y-71755000D03*
G04 #@! TD*
D13*
G04 #@! TO.C,R13*
X144780000Y-98425000D03*
D14*
X144780000Y-108585000D03*
G04 #@! TD*
D13*
G04 #@! TO.C,R11*
X150495000Y-99695000D03*
D14*
X160655000Y-99695000D03*
G04 #@! TD*
D13*
G04 #@! TO.C,R10*
X160655000Y-109220000D03*
D14*
X150495000Y-109220000D03*
G04 #@! TD*
D13*
G04 #@! TO.C,R9*
X123825000Y-74930000D03*
D14*
X133985000Y-74930000D03*
G04 #@! TD*
D13*
G04 #@! TO.C,R6*
X150495000Y-106045000D03*
D14*
X160655000Y-106045000D03*
G04 #@! TD*
D13*
G04 #@! TO.C,R5*
X160655000Y-102870000D03*
D14*
X150495000Y-102870000D03*
G04 #@! TD*
D13*
G04 #@! TO.C,R4*
X174625000Y-111760000D03*
D14*
X184785000Y-111760000D03*
G04 #@! TD*
D13*
G04 #@! TO.C,R3*
X184785000Y-102235000D03*
D14*
X174625000Y-102235000D03*
G04 #@! TD*
D13*
G04 #@! TO.C,R2*
X184785000Y-108585000D03*
D14*
X174625000Y-108585000D03*
G04 #@! TD*
D13*
G04 #@! TO.C,R1*
X184785000Y-105410000D03*
D14*
X174625000Y-105410000D03*
G04 #@! TD*
D10*
G04 #@! TO.C,J4*
X110490000Y-119380000D03*
D11*
X110490000Y-116840000D03*
G04 #@! TD*
D20*
G04 #@! TO.C,J3*
X122120000Y-118110000D03*
X124620000Y-118110000D03*
X127120000Y-118110000D03*
X129620000Y-118110000D03*
X132120000Y-118110000D03*
G36*
G01*
X135470000Y-117385000D02*
X135470000Y-118835000D01*
G75*
G02*
X135220000Y-119085000I-250000J0D01*
G01*
X134020000Y-119085000D01*
G75*
G02*
X133770000Y-118835000I0J250000D01*
G01*
X133770000Y-117385000D01*
G75*
G02*
X134020000Y-117135000I250000J0D01*
G01*
X135220000Y-117135000D01*
G75*
G02*
X135470000Y-117385000I0J-250000D01*
G01*
G37*
G04 #@! TD*
D21*
G04 #@! TO.C,J1*
X109220000Y-83820000D03*
X109220000Y-81280000D03*
X109220000Y-78740000D03*
X109220000Y-76200000D03*
X109220000Y-73660000D03*
X106680000Y-83820000D03*
X106680000Y-81280000D03*
X106680000Y-78740000D03*
X106680000Y-76200000D03*
G36*
G01*
X105830000Y-74260000D02*
X105830000Y-73060000D01*
G75*
G02*
X106080000Y-72810000I250000J0D01*
G01*
X107280000Y-72810000D01*
G75*
G02*
X107530000Y-73060000I0J-250000D01*
G01*
X107530000Y-74260000D01*
G75*
G02*
X107280000Y-74510000I-250000J0D01*
G01*
X106080000Y-74510000D01*
G75*
G02*
X105830000Y-74260000I0J250000D01*
G01*
G37*
G04 #@! TD*
D22*
G04 #@! TO.C,D2*
X119380000Y-66040000D03*
D23*
X116840000Y-66040000D03*
G04 #@! TD*
D22*
G04 #@! TO.C,D1*
X116840000Y-91440000D03*
D23*
X119380000Y-91440000D03*
G04 #@! TD*
D14*
G04 #@! TO.C,C17*
X112315000Y-95885000D03*
X107315000Y-95885000D03*
G04 #@! TD*
G04 #@! TO.C,C16*
X136445000Y-98425000D03*
X131445000Y-98425000D03*
G04 #@! TD*
G04 #@! TO.C,C13*
X158035000Y-95885000D03*
X153035000Y-95885000D03*
G04 #@! TD*
G04 #@! TO.C,C12*
X153115000Y-113030000D03*
X158115000Y-113030000D03*
G04 #@! TD*
G04 #@! TO.C,C11*
X153115000Y-116840000D03*
X158115000Y-116840000D03*
G04 #@! TD*
G04 #@! TO.C,C10*
X142280000Y-71755000D03*
X144780000Y-71755000D03*
G04 #@! TD*
G04 #@! TO.C,C9*
X123230000Y-97155000D03*
X125730000Y-97155000D03*
G04 #@! TD*
G04 #@! TO.C,C8*
X168950000Y-97155000D03*
X171450000Y-97155000D03*
G04 #@! TD*
G04 #@! TO.C,C7*
X118745000Y-73700000D03*
D17*
X118745000Y-76200000D03*
G04 #@! TD*
D14*
G04 #@! TO.C,C5*
X182165000Y-94615000D03*
X177165000Y-94615000D03*
G04 #@! TD*
G04 #@! TO.C,C4*
X118110000Y-111125000D03*
X120610000Y-111125000D03*
G04 #@! TD*
G04 #@! TO.C,C3*
X137160000Y-85725000D03*
X139660000Y-85725000D03*
G04 #@! TD*
G04 #@! TO.C,C2*
X163870000Y-111125000D03*
X166370000Y-111125000D03*
G04 #@! TD*
G04 #@! TO.C,C1*
X118745000Y-81320000D03*
D17*
X118745000Y-83820000D03*
G04 #@! TD*
M02*
