G04 #@! TF.GenerationSoftware,KiCad,Pcbnew,(5.1.10)-1*
G04 #@! TF.CreationDate,2022-02-08T11:58:22+09:00*
G04 #@! TF.ProjectId,NOS02_V1.1,4e4f5330-325f-4563-912e-312e6b696361,Ver. 1.1*
G04 #@! TF.SameCoordinates,Original*
G04 #@! TF.FileFunction,Copper,L1,Top*
G04 #@! TF.FilePolarity,Positive*
%FSLAX46Y46*%
G04 Gerber Fmt 4.6, Leading zero omitted, Abs format (unit mm)*
G04 Created by KiCad (PCBNEW (5.1.10)-1) date 2022-02-08 11:58:22*
%MOMM*%
%LPD*%
G01*
G04 APERTURE LIST*
G04 #@! TA.AperFunction,ComponentPad*
%ADD10O,1.700000X1.700000*%
G04 #@! TD*
G04 #@! TA.AperFunction,ComponentPad*
%ADD11R,1.700000X1.700000*%
G04 #@! TD*
G04 #@! TA.AperFunction,ComponentPad*
%ADD12O,1.950000X1.700000*%
G04 #@! TD*
G04 #@! TA.AperFunction,ComponentPad*
%ADD13O,1.600000X1.600000*%
G04 #@! TD*
G04 #@! TA.AperFunction,ComponentPad*
%ADD14C,1.600000*%
G04 #@! TD*
G04 #@! TA.AperFunction,ComponentPad*
%ADD15R,1.500000X1.500000*%
G04 #@! TD*
G04 #@! TA.AperFunction,ComponentPad*
%ADD16C,1.500000*%
G04 #@! TD*
G04 #@! TA.AperFunction,ComponentPad*
%ADD17R,1.600000X1.600000*%
G04 #@! TD*
G04 #@! TA.AperFunction,ComponentPad*
%ADD18C,1.440000*%
G04 #@! TD*
G04 #@! TA.AperFunction,ComponentPad*
%ADD19O,1.700000X1.950000*%
G04 #@! TD*
G04 #@! TA.AperFunction,ComponentPad*
%ADD20C,1.700000*%
G04 #@! TD*
G04 #@! TA.AperFunction,ComponentPad*
%ADD21C,1.800000*%
G04 #@! TD*
G04 #@! TA.AperFunction,ComponentPad*
%ADD22R,1.800000X1.800000*%
G04 #@! TD*
G04 #@! TA.AperFunction,Conductor*
%ADD23C,0.500000*%
G04 #@! TD*
G04 APERTURE END LIST*
D10*
G04 #@! TO.P,J2,2*
G04 #@! TO.N,Net-(C13-Pad2)*
X136525000Y-91440000D03*
D11*
G04 #@! TO.P,J2,1*
G04 #@! TO.N,Net-(J2-Pad1)*
X133985000Y-91440000D03*
G04 #@! TD*
D10*
G04 #@! TO.P,J5,2*
G04 #@! TO.N,GND*
X151765000Y-64770000D03*
D11*
G04 #@! TO.P,J5,1*
X151765000Y-62230000D03*
G04 #@! TD*
D12*
G04 #@! TO.P,SW1,3*
G04 #@! TO.N,Net-(Q6-Pad2)*
X152400000Y-78660000D03*
G04 #@! TO.P,SW1,2*
G04 #@! TO.N,Net-(C15-Pad1)*
X152400000Y-76160000D03*
G04 #@! TO.P,SW1,1*
G04 #@! TO.N,Net-(C14-Pad1)*
G04 #@! TA.AperFunction,ComponentPad*
G36*
G01*
X151675000Y-72810000D02*
X153125000Y-72810000D01*
G75*
G02*
X153375000Y-73060000I0J-250000D01*
G01*
X153375000Y-74260000D01*
G75*
G02*
X153125000Y-74510000I-250000J0D01*
G01*
X151675000Y-74510000D01*
G75*
G02*
X151425000Y-74260000I0J250000D01*
G01*
X151425000Y-73060000D01*
G75*
G02*
X151675000Y-72810000I250000J0D01*
G01*
G37*
G04 #@! TD.AperFunction*
G04 #@! TD*
D13*
G04 #@! TO.P,R27,2*
G04 #@! TO.N,GND*
X153670000Y-88900000D03*
D14*
G04 #@! TO.P,R27,1*
G04 #@! TO.N,Net-(C20-Pad1)*
X163830000Y-88900000D03*
G04 #@! TD*
D13*
G04 #@! TO.P,R26,2*
G04 #@! TO.N,Net-(Q6-Pad2)*
X163830000Y-85090000D03*
D14*
G04 #@! TO.P,R26,1*
G04 #@! TO.N,+12V*
X153670000Y-85090000D03*
G04 #@! TD*
D13*
G04 #@! TO.P,R14,2*
G04 #@! TO.N,Net-(C19-Pad1)*
X179070000Y-81280000D03*
D14*
G04 #@! TO.P,R14,1*
G04 #@! TO.N,+12V*
X168910000Y-81280000D03*
G04 #@! TD*
D13*
G04 #@! TO.P,R12,2*
G04 #@! TO.N,Net-(C18-Pad2)*
X179070000Y-62230000D03*
D14*
G04 #@! TO.P,R12,1*
G04 #@! TO.N,+12V*
X168910000Y-62230000D03*
G04 #@! TD*
D13*
G04 #@! TO.P,R8,2*
G04 #@! TO.N,Net-(C14-Pad2)*
X158750000Y-66040000D03*
D14*
G04 #@! TO.P,R8,1*
G04 #@! TO.N,Net-(C14-Pad1)*
X158750000Y-76200000D03*
G04 #@! TD*
D13*
G04 #@! TO.P,R7,2*
G04 #@! TO.N,+12V*
X168910000Y-66040000D03*
D14*
G04 #@! TO.P,R7,1*
G04 #@! TO.N,Net-(C14-Pad1)*
X168910000Y-76200000D03*
G04 #@! TD*
D15*
G04 #@! TO.P,Q6,1*
G04 #@! TO.N,Net-(C20-Pad1)*
X168910000Y-88900000D03*
D16*
G04 #@! TO.P,Q6,3*
G04 #@! TO.N,Net-(Q4-Pad2)*
X168910000Y-83820000D03*
G04 #@! TO.P,Q6,2*
G04 #@! TO.N,Net-(Q6-Pad2)*
X168910000Y-86360000D03*
G04 #@! TD*
D15*
G04 #@! TO.P,Q5,1*
G04 #@! TO.N,Net-(C19-Pad1)*
X181610000Y-83820000D03*
D16*
G04 #@! TO.P,Q5,3*
G04 #@! TO.N,Net-(Q4-Pad2)*
X181610000Y-88900000D03*
G04 #@! TO.P,Q5,2*
G04 #@! TO.N,Net-(Q5-Pad2)*
X181610000Y-86360000D03*
G04 #@! TD*
D15*
G04 #@! TO.P,Q4,1*
G04 #@! TO.N,Net-(Q4-Pad1)*
X175260000Y-88900000D03*
D16*
G04 #@! TO.P,Q4,3*
G04 #@! TO.N,Net-(C19-Pad1)*
X175260000Y-83820000D03*
G04 #@! TO.P,Q4,2*
G04 #@! TO.N,Net-(Q4-Pad2)*
X175260000Y-86360000D03*
G04 #@! TD*
D15*
G04 #@! TO.P,Q3,1*
G04 #@! TO.N,Net-(C18-Pad2)*
X181610000Y-71120000D03*
D16*
G04 #@! TO.P,Q3,3*
G04 #@! TO.N,GND*
X181610000Y-76200000D03*
G04 #@! TO.P,Q3,2*
G04 #@! TO.N,Net-(Q3-Pad2)*
X181610000Y-73660000D03*
G04 #@! TD*
D15*
G04 #@! TO.P,Q2,1*
G04 #@! TO.N,Net-(Q2-Pad1)*
X175260000Y-76200000D03*
D16*
G04 #@! TO.P,Q2,3*
G04 #@! TO.N,Net-(C18-Pad2)*
X175260000Y-71120000D03*
G04 #@! TO.P,Q2,2*
G04 #@! TO.N,GND*
X175260000Y-73660000D03*
G04 #@! TD*
D15*
G04 #@! TO.P,Q1,1*
G04 #@! TO.N,GND*
X165100000Y-71120000D03*
D16*
G04 #@! TO.P,Q1,3*
G04 #@! TO.N,Net-(C14-Pad2)*
X165100000Y-66040000D03*
G04 #@! TO.P,Q1,2*
G04 #@! TO.N,Net-(C14-Pad1)*
X165100000Y-68580000D03*
G04 #@! TD*
D14*
G04 #@! TO.P,C20,2*
G04 #@! TO.N,GND*
X147320000Y-86400000D03*
D17*
G04 #@! TO.P,C20,1*
G04 #@! TO.N,Net-(C20-Pad1)*
X147320000Y-88900000D03*
G04 #@! TD*
D14*
G04 #@! TO.P,C19,2*
G04 #@! TO.N,+12V*
X158830000Y-81280000D03*
G04 #@! TO.P,C19,1*
G04 #@! TO.N,Net-(C19-Pad1)*
X163830000Y-81280000D03*
G04 #@! TD*
G04 #@! TO.P,C18,2*
G04 #@! TO.N,Net-(C18-Pad2)*
X181530000Y-66040000D03*
G04 #@! TO.P,C18,1*
G04 #@! TO.N,Net-(C14-Pad2)*
X176530000Y-66040000D03*
G04 #@! TD*
G04 #@! TO.P,C15,2*
G04 #@! TO.N,Net-(C15-Pad2)*
X137200000Y-68580000D03*
D17*
G04 #@! TO.P,C15,1*
G04 #@! TO.N,Net-(C15-Pad1)*
X139700000Y-68580000D03*
G04 #@! TD*
D14*
G04 #@! TO.P,C14,2*
G04 #@! TO.N,Net-(C14-Pad2)*
X172720000Y-66080000D03*
G04 #@! TO.P,C14,1*
G04 #@! TO.N,Net-(C14-Pad1)*
X172720000Y-68580000D03*
G04 #@! TD*
D13*
G04 #@! TO.P,U3,8*
G04 #@! TO.N,+12V*
X118110000Y-107950000D03*
G04 #@! TO.P,U3,4*
G04 #@! TO.N,-12V*
X125730000Y-100330000D03*
G04 #@! TO.P,U3,7*
G04 #@! TO.N,Net-(R23-Pad1)*
X118110000Y-105410000D03*
G04 #@! TO.P,U3,3*
G04 #@! TO.N,Net-(C16-Pad1)*
X125730000Y-102870000D03*
G04 #@! TO.P,U3,6*
G04 #@! TO.N,Net-(R22-Pad1)*
X118110000Y-102870000D03*
G04 #@! TO.P,U3,2*
G04 #@! TO.N,Net-(R16-Pad1)*
X125730000Y-105410000D03*
G04 #@! TO.P,U3,5*
G04 #@! TO.N,Net-(C17-Pad1)*
X118110000Y-100330000D03*
D17*
G04 #@! TO.P,U3,1*
G04 #@! TO.N,Net-(C17-Pad2)*
X125730000Y-107950000D03*
G04 #@! TD*
D13*
G04 #@! TO.P,U2,8*
G04 #@! TO.N,+12V*
X137160000Y-82550000D03*
G04 #@! TO.P,U2,4*
G04 #@! TO.N,-12V*
X144780000Y-74930000D03*
G04 #@! TO.P,U2,7*
G04 #@! TO.N,Net-(J2-Pad1)*
X137160000Y-80010000D03*
G04 #@! TO.P,U2,3*
G04 #@! TO.N,GND*
X144780000Y-77470000D03*
G04 #@! TO.P,U2,6*
G04 #@! TO.N,Net-(RV1-Pad2)*
X137160000Y-77470000D03*
G04 #@! TO.P,U2,2*
G04 #@! TO.N,Net-(U2-Pad1)*
X144780000Y-80010000D03*
G04 #@! TO.P,U2,5*
G04 #@! TO.N,Net-(C15-Pad2)*
X137160000Y-74930000D03*
D17*
G04 #@! TO.P,U2,1*
G04 #@! TO.N,Net-(U2-Pad1)*
X144780000Y-82550000D03*
G04 #@! TD*
D14*
G04 #@! TO.P,C6,2*
G04 #@! TO.N,Net-(C6-Pad2)*
X177245000Y-98425000D03*
G04 #@! TO.P,C6,1*
G04 #@! TO.N,GND*
X182245000Y-98425000D03*
G04 #@! TD*
D13*
G04 #@! TO.P,U1,8*
G04 #@! TO.N,+12V*
X163830000Y-107950000D03*
G04 #@! TO.P,U1,4*
G04 #@! TO.N,-12V*
X171450000Y-100330000D03*
G04 #@! TO.P,U1,7*
G04 #@! TO.N,Net-(C11-Pad1)*
X163830000Y-105410000D03*
G04 #@! TO.P,U1,3*
G04 #@! TO.N,Net-(C6-Pad2)*
X171450000Y-102870000D03*
G04 #@! TO.P,U1,6*
G04 #@! TO.N,Net-(C11-Pad2)*
X163830000Y-102870000D03*
G04 #@! TO.P,U1,2*
G04 #@! TO.N,Net-(R1-Pad1)*
X171450000Y-105410000D03*
G04 #@! TO.P,U1,5*
G04 #@! TO.N,GND*
X163830000Y-100330000D03*
D17*
G04 #@! TO.P,U1,1*
G04 #@! TO.N,Net-(R2-Pad1)*
X171450000Y-107950000D03*
G04 #@! TD*
D18*
G04 #@! TO.P,RV1,3*
G04 #@! TO.N,Net-(J2-Pad1)*
X128905000Y-83185000D03*
G04 #@! TO.P,RV1,2*
G04 #@! TO.N,Net-(RV1-Pad2)*
X131445000Y-80645000D03*
G04 #@! TO.P,RV1,1*
G04 #@! TO.N,Net-(R9-Pad1)*
X128905000Y-78105000D03*
G04 #@! TD*
D13*
G04 #@! TO.P,R25,2*
G04 #@! TO.N,Net-(C17-Pad1)*
X114935000Y-99695000D03*
D14*
G04 #@! TO.P,R25,1*
G04 #@! TO.N,GND*
X104775000Y-99695000D03*
G04 #@! TD*
D13*
G04 #@! TO.P,R24,2*
G04 #@! TO.N,Net-(R23-Pad1)*
X114935000Y-109220000D03*
D14*
G04 #@! TO.P,R24,1*
G04 #@! TO.N,Net-(J3-Pad5)*
X104775000Y-109220000D03*
G04 #@! TD*
D13*
G04 #@! TO.P,R23,2*
G04 #@! TO.N,Net-(R22-Pad1)*
X104775000Y-106045000D03*
D14*
G04 #@! TO.P,R23,1*
G04 #@! TO.N,Net-(R23-Pad1)*
X114935000Y-106045000D03*
G04 #@! TD*
D13*
G04 #@! TO.P,R22,2*
G04 #@! TO.N,GND*
X104775000Y-102870000D03*
D14*
G04 #@! TO.P,R22,1*
G04 #@! TO.N,Net-(R22-Pad1)*
X114935000Y-102870000D03*
G04 #@! TD*
D13*
G04 #@! TO.P,R21,2*
G04 #@! TO.N,-12V*
X104140000Y-66040000D03*
D14*
G04 #@! TO.P,R21,1*
G04 #@! TO.N,Net-(D2-Pad1)*
X114300000Y-66040000D03*
G04 #@! TD*
D13*
G04 #@! TO.P,R20,2*
G04 #@! TO.N,Net-(D1-Pad2)*
X114300000Y-91440000D03*
D14*
G04 #@! TO.P,R20,1*
G04 #@! TO.N,+12V*
X104140000Y-91440000D03*
G04 #@! TD*
D13*
G04 #@! TO.P,R19,2*
G04 #@! TO.N,Net-(C16-Pad1)*
X128905000Y-102235000D03*
D14*
G04 #@! TO.P,R19,1*
G04 #@! TO.N,GND*
X139065000Y-102235000D03*
G04 #@! TD*
D13*
G04 #@! TO.P,R18,2*
G04 #@! TO.N,Net-(C17-Pad2)*
X128905000Y-111760000D03*
D14*
G04 #@! TO.P,R18,1*
G04 #@! TO.N,Net-(J3-Pad4)*
X139065000Y-111760000D03*
G04 #@! TD*
D13*
G04 #@! TO.P,R17,2*
G04 #@! TO.N,Net-(R16-Pad1)*
X139065000Y-108585000D03*
D14*
G04 #@! TO.P,R17,1*
G04 #@! TO.N,Net-(C17-Pad2)*
X128905000Y-108585000D03*
G04 #@! TD*
D13*
G04 #@! TO.P,R16,2*
G04 #@! TO.N,GND*
X139065000Y-105410000D03*
D14*
G04 #@! TO.P,R16,1*
G04 #@! TO.N,Net-(R16-Pad1)*
X128905000Y-105410000D03*
G04 #@! TD*
D13*
G04 #@! TO.P,R15,2*
G04 #@! TO.N,GND*
X123825000Y-71755000D03*
D14*
G04 #@! TO.P,R15,1*
G04 #@! TO.N,Net-(C15-Pad2)*
X133985000Y-71755000D03*
G04 #@! TD*
D13*
G04 #@! TO.P,R13,2*
G04 #@! TO.N,Net-(C13-Pad2)*
X144780000Y-98425000D03*
D14*
G04 #@! TO.P,R13,1*
G04 #@! TO.N,Net-(J3-Pad3)*
X144780000Y-108585000D03*
G04 #@! TD*
D13*
G04 #@! TO.P,R11,2*
G04 #@! TO.N,Net-(C13-Pad1)*
X150495000Y-99695000D03*
D14*
G04 #@! TO.P,R11,1*
G04 #@! TO.N,Net-(C11-Pad2)*
X160655000Y-99695000D03*
G04 #@! TD*
D13*
G04 #@! TO.P,R10,2*
G04 #@! TO.N,Net-(C11-Pad1)*
X160655000Y-109220000D03*
D14*
G04 #@! TO.P,R10,1*
G04 #@! TO.N,Net-(J3-Pad2)*
X150495000Y-109220000D03*
G04 #@! TD*
D13*
G04 #@! TO.P,R9,2*
G04 #@! TO.N,GND*
X123825000Y-74930000D03*
D14*
G04 #@! TO.P,R9,1*
G04 #@! TO.N,Net-(R9-Pad1)*
X133985000Y-74930000D03*
G04 #@! TD*
D13*
G04 #@! TO.P,R6,2*
G04 #@! TO.N,Net-(C11-Pad2)*
X150495000Y-106045000D03*
D14*
G04 #@! TO.P,R6,1*
G04 #@! TO.N,Net-(C11-Pad1)*
X160655000Y-106045000D03*
G04 #@! TD*
D13*
G04 #@! TO.P,R5,2*
G04 #@! TO.N,Net-(C11-Pad2)*
X160655000Y-102870000D03*
D14*
G04 #@! TO.P,R5,1*
G04 #@! TO.N,Net-(C12-Pad2)*
X150495000Y-102870000D03*
G04 #@! TD*
D13*
G04 #@! TO.P,R4,2*
G04 #@! TO.N,Net-(R2-Pad1)*
X174625000Y-111760000D03*
D14*
G04 #@! TO.P,R4,1*
G04 #@! TO.N,Net-(J3-Pad1)*
X184785000Y-111760000D03*
G04 #@! TD*
D13*
G04 #@! TO.P,R3,2*
G04 #@! TO.N,Net-(C5-Pad2)*
X184785000Y-102235000D03*
D14*
G04 #@! TO.P,R3,1*
G04 #@! TO.N,Net-(C6-Pad2)*
X174625000Y-102235000D03*
G04 #@! TD*
D13*
G04 #@! TO.P,R2,2*
G04 #@! TO.N,Net-(R1-Pad1)*
X184785000Y-108585000D03*
D14*
G04 #@! TO.P,R2,1*
G04 #@! TO.N,Net-(R2-Pad1)*
X174625000Y-108585000D03*
G04 #@! TD*
D13*
G04 #@! TO.P,R1,2*
G04 #@! TO.N,GND*
X184785000Y-105410000D03*
D14*
G04 #@! TO.P,R1,1*
G04 #@! TO.N,Net-(R1-Pad1)*
X174625000Y-105410000D03*
G04 #@! TD*
D10*
G04 #@! TO.P,J4,2*
G04 #@! TO.N,GND*
X110490000Y-119380000D03*
D11*
G04 #@! TO.P,J4,1*
X110490000Y-116840000D03*
G04 #@! TD*
D19*
G04 #@! TO.P,J3,6*
G04 #@! TO.N,GND*
X122120000Y-118110000D03*
G04 #@! TO.P,J3,5*
G04 #@! TO.N,Net-(J3-Pad5)*
X124620000Y-118110000D03*
G04 #@! TO.P,J3,4*
G04 #@! TO.N,Net-(J3-Pad4)*
X127120000Y-118110000D03*
G04 #@! TO.P,J3,3*
G04 #@! TO.N,Net-(J3-Pad3)*
X129620000Y-118110000D03*
G04 #@! TO.P,J3,2*
G04 #@! TO.N,Net-(J3-Pad2)*
X132120000Y-118110000D03*
G04 #@! TO.P,J3,1*
G04 #@! TO.N,Net-(J3-Pad1)*
G04 #@! TA.AperFunction,ComponentPad*
G36*
G01*
X135470000Y-117385000D02*
X135470000Y-118835000D01*
G75*
G02*
X135220000Y-119085000I-250000J0D01*
G01*
X134020000Y-119085000D01*
G75*
G02*
X133770000Y-118835000I0J250000D01*
G01*
X133770000Y-117385000D01*
G75*
G02*
X134020000Y-117135000I250000J0D01*
G01*
X135220000Y-117135000D01*
G75*
G02*
X135470000Y-117385000I0J-250000D01*
G01*
G37*
G04 #@! TD.AperFunction*
G04 #@! TD*
D20*
G04 #@! TO.P,J1,10*
G04 #@! TO.N,+12V*
X109220000Y-83820000D03*
G04 #@! TO.P,J1,8*
G04 #@! TO.N,GND*
X109220000Y-81280000D03*
G04 #@! TO.P,J1,6*
X109220000Y-78740000D03*
G04 #@! TO.P,J1,4*
X109220000Y-76200000D03*
G04 #@! TO.P,J1,2*
G04 #@! TO.N,-12V*
X109220000Y-73660000D03*
G04 #@! TO.P,J1,9*
G04 #@! TO.N,+12V*
X106680000Y-83820000D03*
G04 #@! TO.P,J1,7*
G04 #@! TO.N,GND*
X106680000Y-81280000D03*
G04 #@! TO.P,J1,5*
X106680000Y-78740000D03*
G04 #@! TO.P,J1,3*
X106680000Y-76200000D03*
G04 #@! TO.P,J1,1*
G04 #@! TO.N,-12V*
G04 #@! TA.AperFunction,ComponentPad*
G36*
G01*
X105830000Y-74260000D02*
X105830000Y-73060000D01*
G75*
G02*
X106080000Y-72810000I250000J0D01*
G01*
X107280000Y-72810000D01*
G75*
G02*
X107530000Y-73060000I0J-250000D01*
G01*
X107530000Y-74260000D01*
G75*
G02*
X107280000Y-74510000I-250000J0D01*
G01*
X106080000Y-74510000D01*
G75*
G02*
X105830000Y-74260000I0J250000D01*
G01*
G37*
G04 #@! TD.AperFunction*
G04 #@! TD*
D21*
G04 #@! TO.P,D2,2*
G04 #@! TO.N,GND*
X119380000Y-66040000D03*
D22*
G04 #@! TO.P,D2,1*
G04 #@! TO.N,Net-(D2-Pad1)*
X116840000Y-66040000D03*
G04 #@! TD*
D21*
G04 #@! TO.P,D1,2*
G04 #@! TO.N,Net-(D1-Pad2)*
X116840000Y-91440000D03*
D22*
G04 #@! TO.P,D1,1*
G04 #@! TO.N,GND*
X119380000Y-91440000D03*
G04 #@! TD*
D14*
G04 #@! TO.P,C17,2*
G04 #@! TO.N,Net-(C17-Pad2)*
X112315000Y-95885000D03*
G04 #@! TO.P,C17,1*
G04 #@! TO.N,Net-(C17-Pad1)*
X107315000Y-95885000D03*
G04 #@! TD*
G04 #@! TO.P,C16,2*
G04 #@! TO.N,Net-(C13-Pad2)*
X136445000Y-98425000D03*
G04 #@! TO.P,C16,1*
G04 #@! TO.N,Net-(C16-Pad1)*
X131445000Y-98425000D03*
G04 #@! TD*
G04 #@! TO.P,C13,2*
G04 #@! TO.N,Net-(C13-Pad2)*
X158035000Y-95885000D03*
G04 #@! TO.P,C13,1*
G04 #@! TO.N,Net-(C13-Pad1)*
X153035000Y-95885000D03*
G04 #@! TD*
G04 #@! TO.P,C12,2*
G04 #@! TO.N,Net-(C12-Pad2)*
X153115000Y-113030000D03*
G04 #@! TO.P,C12,1*
G04 #@! TO.N,Net-(C11-Pad1)*
X158115000Y-113030000D03*
G04 #@! TD*
G04 #@! TO.P,C11,2*
G04 #@! TO.N,Net-(C11-Pad2)*
X153115000Y-116840000D03*
G04 #@! TO.P,C11,1*
G04 #@! TO.N,Net-(C11-Pad1)*
X158115000Y-116840000D03*
G04 #@! TD*
G04 #@! TO.P,C10,2*
G04 #@! TO.N,GND*
X142280000Y-71755000D03*
G04 #@! TO.P,C10,1*
G04 #@! TO.N,-12V*
X144780000Y-71755000D03*
G04 #@! TD*
G04 #@! TO.P,C9,2*
G04 #@! TO.N,GND*
X123230000Y-97155000D03*
G04 #@! TO.P,C9,1*
G04 #@! TO.N,-12V*
X125730000Y-97155000D03*
G04 #@! TD*
G04 #@! TO.P,C8,2*
G04 #@! TO.N,GND*
X168950000Y-97155000D03*
G04 #@! TO.P,C8,1*
G04 #@! TO.N,-12V*
X171450000Y-97155000D03*
G04 #@! TD*
G04 #@! TO.P,C7,2*
G04 #@! TO.N,-12V*
X118745000Y-73700000D03*
D17*
G04 #@! TO.P,C7,1*
G04 #@! TO.N,GND*
X118745000Y-76200000D03*
G04 #@! TD*
D14*
G04 #@! TO.P,C5,2*
G04 #@! TO.N,Net-(C5-Pad2)*
X182165000Y-94615000D03*
G04 #@! TO.P,C5,1*
G04 #@! TO.N,Net-(C13-Pad2)*
X177165000Y-94615000D03*
G04 #@! TD*
G04 #@! TO.P,C4,2*
G04 #@! TO.N,+12V*
X118110000Y-111125000D03*
G04 #@! TO.P,C4,1*
G04 #@! TO.N,GND*
X120610000Y-111125000D03*
G04 #@! TD*
G04 #@! TO.P,C3,2*
G04 #@! TO.N,+12V*
X137160000Y-85725000D03*
G04 #@! TO.P,C3,1*
G04 #@! TO.N,GND*
X139660000Y-85725000D03*
G04 #@! TD*
G04 #@! TO.P,C2,2*
G04 #@! TO.N,+12V*
X163870000Y-111125000D03*
G04 #@! TO.P,C2,1*
G04 #@! TO.N,GND*
X166370000Y-111125000D03*
G04 #@! TD*
G04 #@! TO.P,C1,2*
G04 #@! TO.N,GND*
X118745000Y-81320000D03*
D17*
G04 #@! TO.P,C1,1*
G04 #@! TO.N,+12V*
X118745000Y-83820000D03*
G04 #@! TD*
D23*
G04 #@! TO.N,Net-(C5-Pad2)*
X184785000Y-97235000D02*
X182165000Y-94615000D01*
X184785000Y-102235000D02*
X184785000Y-97235000D01*
G04 #@! TO.N,Net-(C13-Pad2)*
X144780000Y-93345000D02*
X144780000Y-98425000D01*
X155495000Y-93345000D02*
X144780000Y-93345000D01*
X158035000Y-95885000D02*
X155495000Y-93345000D01*
X159305000Y-94615000D02*
X158035000Y-95885000D01*
X177165000Y-94615000D02*
X159305000Y-94615000D01*
X141525000Y-93345000D02*
X136445000Y-98425000D01*
X144780000Y-93345000D02*
X141525000Y-93345000D01*
X139620000Y-91440000D02*
X141525000Y-93345000D01*
X136525000Y-91440000D02*
X139620000Y-91440000D01*
G04 #@! TO.N,Net-(C6-Pad2)*
X173990000Y-102870000D02*
X174625000Y-102235000D01*
X171450000Y-102870000D02*
X173990000Y-102870000D01*
X174625000Y-101045000D02*
X177245000Y-98425000D01*
X174625000Y-102235000D02*
X174625000Y-101045000D01*
G04 #@! TO.N,-12V*
X118745000Y-73789998D02*
X118745000Y-73700000D01*
X125730000Y-80774998D02*
X118745000Y-73789998D01*
X125730000Y-99695000D02*
X125730000Y-80774998D01*
G04 #@! TO.N,Net-(C11-Pad2)*
X151745001Y-115470001D02*
X151745001Y-107295001D01*
X153115000Y-116840000D02*
X151745001Y-115470001D01*
X163830000Y-102870000D02*
X160655000Y-102870000D01*
X151745001Y-107295001D02*
X150495000Y-106045000D01*
X149914998Y-101600000D02*
X160655000Y-101600000D01*
X149244999Y-104794999D02*
X149244999Y-102269999D01*
X150495000Y-106045000D02*
X149244999Y-104794999D01*
X149244999Y-102269999D02*
X149914998Y-101600000D01*
X160655000Y-101600000D02*
X160655000Y-102870000D01*
X160655000Y-99695000D02*
X160655000Y-101600000D01*
G04 #@! TO.N,Net-(C11-Pad1)*
X158115000Y-113030000D02*
X158115000Y-116840000D01*
X160655000Y-110490000D02*
X158115000Y-113030000D01*
X160655000Y-109220000D02*
X160655000Y-110490000D01*
X160655000Y-106045000D02*
X160655000Y-109220000D01*
X161290000Y-105410000D02*
X160655000Y-106045000D01*
X163830000Y-105410000D02*
X161290000Y-105410000D01*
G04 #@! TO.N,Net-(C12-Pad2)*
X153115000Y-105490000D02*
X150495000Y-102870000D01*
X153115000Y-113030000D02*
X153115000Y-105490000D01*
G04 #@! TO.N,Net-(C13-Pad1)*
X150495000Y-98425000D02*
X153035000Y-95885000D01*
X150495000Y-99695000D02*
X150495000Y-98425000D01*
G04 #@! TO.N,Net-(C14-Pad2)*
X158750000Y-66040000D02*
X165100000Y-66040000D01*
X171429999Y-64789999D02*
X172720000Y-66080000D01*
X166350001Y-64789999D02*
X171429999Y-64789999D01*
X165100000Y-66040000D02*
X166350001Y-64789999D01*
X176490000Y-66080000D02*
X176530000Y-66040000D01*
X172720000Y-66080000D02*
X176490000Y-66080000D01*
G04 #@! TO.N,Net-(C14-Pad1)*
X156210000Y-73660000D02*
X158750000Y-76200000D01*
X152400000Y-73660000D02*
X156210000Y-73660000D01*
X161290000Y-68580000D02*
X156210000Y-73660000D01*
X165100000Y-68580000D02*
X161290000Y-68580000D01*
X165100000Y-68580000D02*
X172720000Y-68580000D01*
X172720000Y-72390000D02*
X168910000Y-76200000D01*
X172720000Y-68580000D02*
X172720000Y-72390000D01*
G04 #@! TO.N,Net-(C15-Pad2)*
X133985000Y-71755000D02*
X137160000Y-74930000D01*
X134025000Y-71755000D02*
X137200000Y-68580000D01*
X133985000Y-71755000D02*
X134025000Y-71755000D01*
G04 #@! TO.N,Net-(C15-Pad1)*
X151035002Y-76160000D02*
X152400000Y-76160000D01*
X143455002Y-68580000D02*
X151035002Y-76160000D01*
X139700000Y-68580000D02*
X143455002Y-68580000D01*
G04 #@! TO.N,Net-(C16-Pad1)*
X128270000Y-102870000D02*
X128905000Y-102235000D01*
X125730000Y-102870000D02*
X128270000Y-102870000D01*
X131445000Y-99695000D02*
X128905000Y-102235000D01*
X131445000Y-98425000D02*
X131445000Y-99695000D01*
G04 #@! TO.N,Net-(C17-Pad2)*
X128270000Y-107950000D02*
X128905000Y-108585000D01*
X125730000Y-107950000D02*
X128270000Y-107950000D01*
X128905000Y-108585000D02*
X128905000Y-111760000D01*
X118745000Y-95885000D02*
X112315000Y-95885000D01*
X121285000Y-98425000D02*
X118745000Y-95885000D01*
X121285000Y-103505000D02*
X121285000Y-98425000D01*
X125730000Y-107950000D02*
X121285000Y-103505000D01*
G04 #@! TO.N,Net-(C17-Pad1)*
X117475000Y-99695000D02*
X118110000Y-100330000D01*
X114935000Y-99695000D02*
X117475000Y-99695000D01*
X111125000Y-99695000D02*
X107315000Y-95885000D01*
X114935000Y-99695000D02*
X111125000Y-99695000D01*
G04 #@! TO.N,Net-(J2-Pad1)*
X133985000Y-83185000D02*
X137160000Y-80010000D01*
X128905000Y-83185000D02*
X133985000Y-83185000D01*
X133985000Y-91440000D02*
X133985000Y-83185000D01*
G04 #@! TO.N,Net-(J3-Pad5)*
X123194990Y-116684990D02*
X124620000Y-118110000D01*
X113371360Y-116684990D02*
X123194990Y-116684990D01*
X105906370Y-109220000D02*
X113371360Y-116684990D01*
X104775000Y-109220000D02*
X105906370Y-109220000D01*
G04 #@! TO.N,Net-(J3-Pad4)*
X133470000Y-111760000D02*
X139065000Y-111760000D01*
X127120000Y-118110000D02*
X133470000Y-111760000D01*
G04 #@! TO.N,Net-(J3-Pad3)*
X144860000Y-108665000D02*
X144780000Y-108585000D01*
X140354999Y-113010001D02*
X144780000Y-108585000D01*
X134719999Y-113010001D02*
X140354999Y-113010001D01*
X129620000Y-118110000D02*
X134719999Y-113010001D01*
G04 #@! TO.N,Net-(J3-Pad2)*
X146004989Y-113710011D02*
X150495000Y-109220000D01*
X136519989Y-113710011D02*
X146004989Y-113710011D01*
X132120000Y-118110000D02*
X136519989Y-113710011D01*
G04 #@! TO.N,Net-(J3-Pad1)*
X178435000Y-118110000D02*
X184785000Y-111760000D01*
X134620000Y-118110000D02*
X178435000Y-118110000D01*
G04 #@! TO.N,Net-(R1-Pad1)*
X171450000Y-105410000D02*
X174625000Y-105410000D01*
X177800000Y-108585000D02*
X174625000Y-105410000D01*
X184785000Y-108585000D02*
X177800000Y-108585000D01*
G04 #@! TO.N,Net-(R2-Pad1)*
X173990000Y-107950000D02*
X174625000Y-108585000D01*
X171450000Y-107950000D02*
X173990000Y-107950000D01*
X174625000Y-108585000D02*
X174625000Y-111760000D01*
G04 #@! TO.N,Net-(R9-Pad1)*
X130810000Y-78105000D02*
X133985000Y-74930000D01*
X128905000Y-78105000D02*
X130810000Y-78105000D01*
G04 #@! TO.N,Net-(R16-Pad1)*
X125730000Y-105410000D02*
X128905000Y-105410000D01*
X135890000Y-105410000D02*
X139065000Y-108585000D01*
X128905000Y-105410000D02*
X135890000Y-105410000D01*
G04 #@! TO.N,Net-(R22-Pad1)*
X114935000Y-102870000D02*
X118110000Y-102870000D01*
X107950000Y-102870000D02*
X104775000Y-106045000D01*
X114935000Y-102870000D02*
X107950000Y-102870000D01*
G04 #@! TO.N,Net-(R23-Pad1)*
X117475000Y-106045000D02*
X118110000Y-105410000D01*
X114935000Y-106045000D02*
X117475000Y-106045000D01*
X114935000Y-106045000D02*
X114935000Y-109220000D01*
G04 #@! TO.N,Net-(RV1-Pad2)*
X133985000Y-80645000D02*
X137160000Y-77470000D01*
X131445000Y-80645000D02*
X133985000Y-80645000D01*
G04 #@! TO.N,Net-(C18-Pad2)*
X175260000Y-71120000D02*
X181610000Y-71120000D01*
X181530000Y-71040000D02*
X181610000Y-71120000D01*
X181530000Y-66040000D02*
X181530000Y-71040000D01*
X181530000Y-64690000D02*
X179070000Y-62230000D01*
X181530000Y-66040000D02*
X181530000Y-64690000D01*
G04 #@! TO.N,Net-(C19-Pad1)*
X173970001Y-82530001D02*
X175260000Y-83820000D01*
X165080001Y-82530001D02*
X173970001Y-82530001D01*
X163830000Y-81280000D02*
X165080001Y-82530001D01*
X176530000Y-83820000D02*
X179070000Y-81280000D01*
X175260000Y-83820000D02*
X176530000Y-83820000D01*
X179070000Y-81280000D02*
X181610000Y-83820000D01*
G04 #@! TO.N,Net-(C20-Pad1)*
X162579999Y-90150001D02*
X163830000Y-88900000D01*
X148570001Y-90150001D02*
X162579999Y-90150001D01*
X147320000Y-88900000D02*
X148570001Y-90150001D01*
X163830000Y-88900000D02*
X168910000Y-88900000D01*
G04 #@! TO.N,Net-(Q4-Pad2)*
X177800000Y-88900000D02*
X175260000Y-86360000D01*
X181610000Y-88900000D02*
X177800000Y-88900000D01*
X171450000Y-86360000D02*
X168910000Y-83820000D01*
X175260000Y-86360000D02*
X171450000Y-86360000D01*
G04 #@! TO.N,Net-(Q6-Pad2)*
X157480000Y-85090000D02*
X163830000Y-85090000D01*
X152400000Y-80010000D02*
X157480000Y-85090000D01*
X152400000Y-78660000D02*
X152400000Y-80010000D01*
X167640000Y-85090000D02*
X168910000Y-86360000D01*
X163830000Y-85090000D02*
X167640000Y-85090000D01*
G04 #@! TO.N,Net-(U2-Pad1)*
X144780000Y-80010000D02*
X144780000Y-82550000D01*
G04 #@! TD*
M02*
