G04 #@! TF.GenerationSoftware,KiCad,Pcbnew,(5.1.10)-1*
G04 #@! TF.CreationDate,2021-07-20T07:48:39+09:00*
G04 #@! TF.ProjectId,NOS02,4e4f5330-322e-46b6-9963-61645f706362,Ver. 1.0*
G04 #@! TF.SameCoordinates,Original*
G04 #@! TF.FileFunction,Legend,Top*
G04 #@! TF.FilePolarity,Positive*
%FSLAX46Y46*%
G04 Gerber Fmt 4.6, Leading zero omitted, Abs format (unit mm)*
G04 Created by KiCad (PCBNEW (5.1.10)-1) date 2021-07-20 07:48:39*
%MOMM*%
%LPD*%
G01*
G04 APERTURE LIST*
%ADD10C,0.150000*%
%ADD11C,0.500000*%
%ADD12C,0.120000*%
%ADD13C,0.010000*%
G04 APERTURE END LIST*
D10*
X183237142Y-82049761D02*
X183284761Y-82097380D01*
X183332380Y-82240238D01*
X183332380Y-82335476D01*
X183284761Y-82478333D01*
X183189523Y-82573571D01*
X183094285Y-82621190D01*
X182903809Y-82668809D01*
X182760952Y-82668809D01*
X182570476Y-82621190D01*
X182475238Y-82573571D01*
X182380000Y-82478333D01*
X182332380Y-82335476D01*
X182332380Y-82240238D01*
X182380000Y-82097380D01*
X182427619Y-82049761D01*
X182808571Y-80525952D02*
X182856190Y-80383095D01*
X182903809Y-80335476D01*
X182999047Y-80287857D01*
X183141904Y-80287857D01*
X183237142Y-80335476D01*
X183284761Y-80383095D01*
X183332380Y-80478333D01*
X183332380Y-80859285D01*
X182332380Y-80859285D01*
X182332380Y-80525952D01*
X182380000Y-80430714D01*
X182427619Y-80383095D01*
X182522857Y-80335476D01*
X182618095Y-80335476D01*
X182713333Y-80383095D01*
X182760952Y-80430714D01*
X182808571Y-80525952D01*
X182808571Y-80859285D01*
X182808571Y-79097380D02*
X182808571Y-78764047D01*
X183332380Y-78621190D02*
X183332380Y-79097380D01*
X182332380Y-79097380D01*
X182332380Y-78621190D01*
X182808571Y-75001190D02*
X182808571Y-74667857D01*
X183332380Y-74525000D02*
X183332380Y-75001190D01*
X182332380Y-75001190D01*
X182332380Y-74525000D01*
X183237142Y-72763095D02*
X183284761Y-72810714D01*
X183332380Y-72953571D01*
X183332380Y-73048809D01*
X183284761Y-73191666D01*
X183189523Y-73286904D01*
X183094285Y-73334523D01*
X182903809Y-73382142D01*
X182760952Y-73382142D01*
X182570476Y-73334523D01*
X182475238Y-73286904D01*
X182380000Y-73191666D01*
X182332380Y-73048809D01*
X182332380Y-72953571D01*
X182380000Y-72810714D01*
X182427619Y-72763095D01*
X182808571Y-71239285D02*
X182856190Y-71096428D01*
X182903809Y-71048809D01*
X182999047Y-71001190D01*
X183141904Y-71001190D01*
X183237142Y-71048809D01*
X183284761Y-71096428D01*
X183332380Y-71191666D01*
X183332380Y-71572619D01*
X182332380Y-71572619D01*
X182332380Y-71239285D01*
X182380000Y-71144047D01*
X182427619Y-71096428D01*
X182522857Y-71048809D01*
X182618095Y-71048809D01*
X182713333Y-71096428D01*
X182760952Y-71144047D01*
X182808571Y-71239285D01*
X182808571Y-71572619D01*
X100893571Y-82058095D02*
X100893571Y-82820000D01*
X100512619Y-82439047D02*
X101274523Y-82439047D01*
X100512619Y-83820000D02*
X100512619Y-83248571D01*
X100512619Y-83534285D02*
X101512619Y-83534285D01*
X101369761Y-83439047D01*
X101274523Y-83343809D01*
X101226904Y-83248571D01*
X101417380Y-84200952D02*
X101465000Y-84248571D01*
X101512619Y-84343809D01*
X101512619Y-84581904D01*
X101465000Y-84677142D01*
X101417380Y-84724761D01*
X101322142Y-84772380D01*
X101226904Y-84772380D01*
X101084047Y-84724761D01*
X100512619Y-84153333D01*
X100512619Y-84772380D01*
X101512619Y-85058095D02*
X100512619Y-85391428D01*
X101512619Y-85724761D01*
X100893571Y-71263095D02*
X100893571Y-72025000D01*
X100512619Y-73025000D02*
X100512619Y-72453571D01*
X100512619Y-72739285D02*
X101512619Y-72739285D01*
X101369761Y-72644047D01*
X101274523Y-72548809D01*
X101226904Y-72453571D01*
X101417380Y-73405952D02*
X101465000Y-73453571D01*
X101512619Y-73548809D01*
X101512619Y-73786904D01*
X101465000Y-73882142D01*
X101417380Y-73929761D01*
X101322142Y-73977380D01*
X101226904Y-73977380D01*
X101084047Y-73929761D01*
X100512619Y-73358333D01*
X100512619Y-73977380D01*
X101512619Y-74263095D02*
X100512619Y-74596428D01*
X101512619Y-74929761D01*
X166505000Y-64896904D02*
X166457380Y-64992142D01*
X166457380Y-65135000D01*
X166505000Y-65277857D01*
X166600238Y-65373095D01*
X166695476Y-65420714D01*
X166885952Y-65468333D01*
X167028809Y-65468333D01*
X167219285Y-65420714D01*
X167314523Y-65373095D01*
X167409761Y-65277857D01*
X167457380Y-65135000D01*
X167457380Y-65039761D01*
X167409761Y-64896904D01*
X167362142Y-64849285D01*
X167028809Y-64849285D01*
X167028809Y-65039761D01*
X167457380Y-64420714D02*
X166457380Y-64420714D01*
X167457380Y-63849285D01*
X166457380Y-63849285D01*
X167457380Y-63373095D02*
X166457380Y-63373095D01*
X166457380Y-63135000D01*
X166505000Y-62992142D01*
X166600238Y-62896904D01*
X166695476Y-62849285D01*
X166885952Y-62801666D01*
X167028809Y-62801666D01*
X167219285Y-62849285D01*
X167314523Y-62896904D01*
X167409761Y-62992142D01*
X167457380Y-63135000D01*
X167457380Y-63373095D01*
X168410000Y-129031904D02*
X168362380Y-129127142D01*
X168362380Y-129270000D01*
X168410000Y-129412857D01*
X168505238Y-129508095D01*
X168600476Y-129555714D01*
X168790952Y-129603333D01*
X168933809Y-129603333D01*
X169124285Y-129555714D01*
X169219523Y-129508095D01*
X169314761Y-129412857D01*
X169362380Y-129270000D01*
X169362380Y-129174761D01*
X169314761Y-129031904D01*
X169267142Y-128984285D01*
X168933809Y-128984285D01*
X168933809Y-129174761D01*
X169362380Y-128555714D02*
X168362380Y-128555714D01*
X169362380Y-127984285D01*
X168362380Y-127984285D01*
X169362380Y-127508095D02*
X168362380Y-127508095D01*
X168362380Y-127270000D01*
X168410000Y-127127142D01*
X168505238Y-127031904D01*
X168600476Y-126984285D01*
X168790952Y-126936666D01*
X168933809Y-126936666D01*
X169124285Y-126984285D01*
X169219523Y-127031904D01*
X169314761Y-127127142D01*
X169362380Y-127270000D01*
X169362380Y-127508095D01*
X137543761Y-131986000D02*
X137453285Y-131940761D01*
X137317571Y-131940761D01*
X137181857Y-131986000D01*
X137091380Y-132076476D01*
X137046142Y-132166952D01*
X137000904Y-132347904D01*
X137000904Y-132483619D01*
X137046142Y-132664571D01*
X137091380Y-132755047D01*
X137181857Y-132845523D01*
X137317571Y-132890761D01*
X137408047Y-132890761D01*
X137543761Y-132845523D01*
X137589000Y-132800285D01*
X137589000Y-132483619D01*
X137408047Y-132483619D01*
X139036619Y-132393142D02*
X139172333Y-132438380D01*
X139217571Y-132483619D01*
X139262809Y-132574095D01*
X139262809Y-132709809D01*
X139217571Y-132800285D01*
X139172333Y-132845523D01*
X139081857Y-132890761D01*
X138719952Y-132890761D01*
X138719952Y-131940761D01*
X139036619Y-131940761D01*
X139127095Y-131986000D01*
X139172333Y-132031238D01*
X139217571Y-132121714D01*
X139217571Y-132212190D01*
X139172333Y-132302666D01*
X139127095Y-132347904D01*
X139036619Y-132393142D01*
X138719952Y-132393142D01*
X139624714Y-132031238D02*
X139669952Y-131986000D01*
X139760428Y-131940761D01*
X139986619Y-131940761D01*
X140077095Y-131986000D01*
X140122333Y-132031238D01*
X140167571Y-132121714D01*
X140167571Y-132212190D01*
X140122333Y-132347904D01*
X139579476Y-132890761D01*
X140167571Y-132890761D01*
X141615190Y-132393142D02*
X141750904Y-132438380D01*
X141796142Y-132483619D01*
X141841380Y-132574095D01*
X141841380Y-132709809D01*
X141796142Y-132800285D01*
X141750904Y-132845523D01*
X141660428Y-132890761D01*
X141298523Y-132890761D01*
X141298523Y-131940761D01*
X141615190Y-131940761D01*
X141705666Y-131986000D01*
X141750904Y-132031238D01*
X141796142Y-132121714D01*
X141796142Y-132212190D01*
X141750904Y-132302666D01*
X141705666Y-132347904D01*
X141615190Y-132393142D01*
X141298523Y-132393142D01*
X142746142Y-132890761D02*
X142203285Y-132890761D01*
X142474714Y-132890761D02*
X142474714Y-131940761D01*
X142384238Y-132076476D01*
X142293761Y-132166952D01*
X142203285Y-132212190D01*
X143786619Y-131940761D02*
X144012809Y-132890761D01*
X144193761Y-132212190D01*
X144374714Y-132890761D01*
X144600904Y-131940761D01*
X144827095Y-131940761D02*
X145369952Y-131940761D01*
X145098523Y-132890761D02*
X145098523Y-131940761D01*
X146410428Y-132890761D02*
X146410428Y-131940761D01*
X146772333Y-131940761D01*
X146862809Y-131986000D01*
X146908047Y-132031238D01*
X146953285Y-132121714D01*
X146953285Y-132257428D01*
X146908047Y-132347904D01*
X146862809Y-132393142D01*
X146772333Y-132438380D01*
X146410428Y-132438380D01*
X147360428Y-132890761D02*
X147360428Y-131940761D01*
X147903285Y-132890761D02*
X147496142Y-132347904D01*
X147903285Y-131940761D02*
X147360428Y-132483619D01*
X149350904Y-132393142D02*
X149486619Y-132438380D01*
X149531857Y-132483619D01*
X149577095Y-132574095D01*
X149577095Y-132709809D01*
X149531857Y-132800285D01*
X149486619Y-132845523D01*
X149396142Y-132890761D01*
X149034238Y-132890761D01*
X149034238Y-131940761D01*
X149350904Y-131940761D01*
X149441380Y-131986000D01*
X149486619Y-132031238D01*
X149531857Y-132121714D01*
X149531857Y-132212190D01*
X149486619Y-132302666D01*
X149441380Y-132347904D01*
X149350904Y-132393142D01*
X149034238Y-132393142D01*
X150527095Y-132890761D02*
X150210428Y-132438380D01*
X149984238Y-132890761D02*
X149984238Y-131940761D01*
X150346142Y-131940761D01*
X150436619Y-131986000D01*
X150481857Y-132031238D01*
X150527095Y-132121714D01*
X150527095Y-132257428D01*
X150481857Y-132347904D01*
X150436619Y-132393142D01*
X150346142Y-132438380D01*
X149984238Y-132438380D01*
X137430000Y-122642380D02*
X137620476Y-122642380D01*
X137715714Y-122690000D01*
X137810952Y-122785238D01*
X137858571Y-122975714D01*
X137858571Y-123309047D01*
X137810952Y-123499523D01*
X137715714Y-123594761D01*
X137620476Y-123642380D01*
X137430000Y-123642380D01*
X137334761Y-123594761D01*
X137239523Y-123499523D01*
X137191904Y-123309047D01*
X137191904Y-122975714D01*
X137239523Y-122785238D01*
X137334761Y-122690000D01*
X137430000Y-122642380D01*
X138287142Y-122642380D02*
X138287142Y-123451904D01*
X138334761Y-123547142D01*
X138382380Y-123594761D01*
X138477619Y-123642380D01*
X138668095Y-123642380D01*
X138763333Y-123594761D01*
X138810952Y-123547142D01*
X138858571Y-123451904D01*
X138858571Y-122642380D01*
X139191904Y-122642380D02*
X139763333Y-122642380D01*
X139477619Y-123642380D02*
X139477619Y-122642380D01*
D11*
X126597142Y-65492142D02*
X126597142Y-62492142D01*
X128311428Y-65492142D01*
X128311428Y-62492142D01*
X130311428Y-62492142D02*
X130882857Y-62492142D01*
X131168571Y-62635000D01*
X131454285Y-62920714D01*
X131597142Y-63492142D01*
X131597142Y-64492142D01*
X131454285Y-65063571D01*
X131168571Y-65349285D01*
X130882857Y-65492142D01*
X130311428Y-65492142D01*
X130025714Y-65349285D01*
X129739999Y-65063571D01*
X129597142Y-64492142D01*
X129597142Y-63492142D01*
X129739999Y-62920714D01*
X130025714Y-62635000D01*
X130311428Y-62492142D01*
X132739999Y-65349285D02*
X133168571Y-65492142D01*
X133882857Y-65492142D01*
X134168571Y-65349285D01*
X134311428Y-65206428D01*
X134454285Y-64920714D01*
X134454285Y-64635000D01*
X134311428Y-64349285D01*
X134168571Y-64206428D01*
X133882857Y-64063571D01*
X133311428Y-63920714D01*
X133025714Y-63777857D01*
X132882857Y-63635000D01*
X132739999Y-63349285D01*
X132739999Y-63063571D01*
X132882857Y-62777857D01*
X133025714Y-62635000D01*
X133311428Y-62492142D01*
X134025714Y-62492142D01*
X134454285Y-62635000D01*
X136311428Y-62492142D02*
X136597142Y-62492142D01*
X136882857Y-62635000D01*
X137025714Y-62777857D01*
X137168571Y-63063571D01*
X137311428Y-63635000D01*
X137311428Y-64349285D01*
X137168571Y-64920714D01*
X137025714Y-65206428D01*
X136882857Y-65349285D01*
X136597142Y-65492142D01*
X136311428Y-65492142D01*
X136025714Y-65349285D01*
X135882857Y-65206428D01*
X135740000Y-64920714D01*
X135597142Y-64349285D01*
X135597142Y-63635000D01*
X135740000Y-63063571D01*
X135882857Y-62777857D01*
X136025714Y-62635000D01*
X136311428Y-62492142D01*
X138454285Y-62777857D02*
X138597142Y-62635000D01*
X138882857Y-62492142D01*
X139597142Y-62492142D01*
X139882857Y-62635000D01*
X140025714Y-62777857D01*
X140168571Y-63063571D01*
X140168571Y-63349285D01*
X140025714Y-63777857D01*
X138311428Y-65492142D01*
X140168571Y-65492142D01*
X143311428Y-62492142D02*
X144311428Y-65492142D01*
X145311428Y-62492142D01*
X147454285Y-65349285D02*
X147168571Y-65492142D01*
X146597142Y-65492142D01*
X146311428Y-65349285D01*
X146168571Y-65063571D01*
X146168571Y-63920714D01*
X146311428Y-63635000D01*
X146597142Y-63492142D01*
X147168571Y-63492142D01*
X147454285Y-63635000D01*
X147597142Y-63920714D01*
X147597142Y-64206428D01*
X146168571Y-64492142D01*
X148882857Y-65492142D02*
X148882857Y-63492142D01*
X148882857Y-64063571D02*
X149025714Y-63777857D01*
X149168571Y-63635000D01*
X149454285Y-63492142D01*
X149740000Y-63492142D01*
X150740000Y-65206428D02*
X150882857Y-65349285D01*
X150740000Y-65492142D01*
X150597142Y-65349285D01*
X150740000Y-65206428D01*
X150740000Y-65492142D01*
X153740000Y-65492142D02*
X152025714Y-65492142D01*
X152882857Y-65492142D02*
X152882857Y-62492142D01*
X152597142Y-62920714D01*
X152311428Y-63206428D01*
X152025714Y-63349285D01*
X155025714Y-65206428D02*
X155168571Y-65349285D01*
X155025714Y-65492142D01*
X154882857Y-65349285D01*
X155025714Y-65206428D01*
X155025714Y-65492142D01*
X157025714Y-62492142D02*
X157311428Y-62492142D01*
X157597142Y-62635000D01*
X157740000Y-62777857D01*
X157882857Y-63063571D01*
X158025714Y-63635000D01*
X158025714Y-64349285D01*
X157882857Y-64920714D01*
X157740000Y-65206428D01*
X157597142Y-65349285D01*
X157311428Y-65492142D01*
X157025714Y-65492142D01*
X156740000Y-65349285D01*
X156597142Y-65206428D01*
X156454285Y-64920714D01*
X156311428Y-64349285D01*
X156311428Y-63635000D01*
X156454285Y-63063571D01*
X156597142Y-62777857D01*
X156740000Y-62635000D01*
X157025714Y-62492142D01*
D12*
G04 #@! TO.C,U3*
X116780000Y-111880000D02*
X127060000Y-111880000D01*
X116780000Y-101480000D02*
X116780000Y-111880000D01*
X127060000Y-101480000D02*
X116780000Y-101480000D01*
X127060000Y-111880000D02*
X127060000Y-101480000D01*
X119270000Y-111820000D02*
X120920000Y-111820000D01*
X119270000Y-101540000D02*
X119270000Y-111820000D01*
X124570000Y-101540000D02*
X119270000Y-101540000D01*
X124570000Y-111820000D02*
X124570000Y-101540000D01*
X122920000Y-111820000D02*
X124570000Y-111820000D01*
X120920000Y-111820000D02*
G75*
G02*
X122920000Y-111820000I1000000J0D01*
G01*
G04 #@! TO.C,U2*
X139640000Y-83940000D02*
X149920000Y-83940000D01*
X139640000Y-73540000D02*
X139640000Y-83940000D01*
X149920000Y-73540000D02*
X139640000Y-73540000D01*
X149920000Y-83940000D02*
X149920000Y-73540000D01*
X142130000Y-83880000D02*
X143780000Y-83880000D01*
X142130000Y-73600000D02*
X142130000Y-83880000D01*
X147430000Y-73600000D02*
X142130000Y-73600000D01*
X147430000Y-83880000D02*
X147430000Y-73600000D01*
X145780000Y-83880000D02*
X147430000Y-83880000D01*
X143780000Y-83880000D02*
G75*
G02*
X145780000Y-83880000I1000000J0D01*
G01*
D13*
G04 #@! TO.C,G\u002A\u002A\u002A*
G36*
X127308998Y-125630959D02*
G01*
X127384565Y-125709099D01*
X127342354Y-125828815D01*
X127259446Y-125916535D01*
X127125112Y-126084872D01*
X126986512Y-126344107D01*
X126900853Y-126551614D01*
X126719654Y-126945586D01*
X126509777Y-127236865D01*
X126278840Y-127419192D01*
X126034461Y-127486308D01*
X125813526Y-127444766D01*
X125671220Y-127344042D01*
X125605695Y-127259037D01*
X125573435Y-127142622D01*
X125634436Y-127033536D01*
X125665044Y-127001455D01*
X125800567Y-126893665D01*
X125904552Y-126897516D01*
X126011058Y-127015901D01*
X126021589Y-127031750D01*
X126127416Y-127157648D01*
X126205107Y-127183291D01*
X126237828Y-127103862D01*
X126238000Y-127093664D01*
X126207734Y-126978322D01*
X126128431Y-126788370D01*
X126017328Y-126557532D01*
X125891665Y-126319534D01*
X125768681Y-126108099D01*
X125665615Y-125956952D01*
X125643810Y-125931257D01*
X125554516Y-125825406D01*
X125549634Y-125763351D01*
X125626548Y-125696397D01*
X125631011Y-125693132D01*
X125771544Y-125640226D01*
X125982866Y-125610625D01*
X126211546Y-125606437D01*
X126404150Y-125629767D01*
X126482920Y-125659544D01*
X126538790Y-125760394D01*
X126530247Y-125836528D01*
X126529810Y-125968419D01*
X126588084Y-126088251D01*
X126676388Y-126154234D01*
X126742069Y-126145179D01*
X126792359Y-126041769D01*
X126781957Y-125888845D01*
X126775882Y-125730427D01*
X126845362Y-125641739D01*
X127010053Y-125606137D01*
X127119493Y-125603000D01*
X127308998Y-125630959D01*
G37*
X127308998Y-125630959D02*
X127384565Y-125709099D01*
X127342354Y-125828815D01*
X127259446Y-125916535D01*
X127125112Y-126084872D01*
X126986512Y-126344107D01*
X126900853Y-126551614D01*
X126719654Y-126945586D01*
X126509777Y-127236865D01*
X126278840Y-127419192D01*
X126034461Y-127486308D01*
X125813526Y-127444766D01*
X125671220Y-127344042D01*
X125605695Y-127259037D01*
X125573435Y-127142622D01*
X125634436Y-127033536D01*
X125665044Y-127001455D01*
X125800567Y-126893665D01*
X125904552Y-126897516D01*
X126011058Y-127015901D01*
X126021589Y-127031750D01*
X126127416Y-127157648D01*
X126205107Y-127183291D01*
X126237828Y-127103862D01*
X126238000Y-127093664D01*
X126207734Y-126978322D01*
X126128431Y-126788370D01*
X126017328Y-126557532D01*
X125891665Y-126319534D01*
X125768681Y-126108099D01*
X125665615Y-125956952D01*
X125643810Y-125931257D01*
X125554516Y-125825406D01*
X125549634Y-125763351D01*
X125626548Y-125696397D01*
X125631011Y-125693132D01*
X125771544Y-125640226D01*
X125982866Y-125610625D01*
X126211546Y-125606437D01*
X126404150Y-125629767D01*
X126482920Y-125659544D01*
X126538790Y-125760394D01*
X126530247Y-125836528D01*
X126529810Y-125968419D01*
X126588084Y-126088251D01*
X126676388Y-126154234D01*
X126742069Y-126145179D01*
X126792359Y-126041769D01*
X126781957Y-125888845D01*
X126775882Y-125730427D01*
X126845362Y-125641739D01*
X127010053Y-125606137D01*
X127119493Y-125603000D01*
X127308998Y-125630959D01*
G36*
X109977810Y-125104707D02*
G01*
X110120552Y-125128568D01*
X110135556Y-125133543D01*
X110221571Y-125222459D01*
X110222772Y-125356966D01*
X110156625Y-125466522D01*
X110110656Y-125579623D01*
X110085205Y-125780995D01*
X110079004Y-126033791D01*
X110090783Y-126301164D01*
X110119275Y-126546268D01*
X110163212Y-126732255D01*
X110202793Y-126807890D01*
X110273013Y-126900630D01*
X110247005Y-126956658D01*
X110181942Y-126994946D01*
X110033585Y-127038993D01*
X109826729Y-127059976D01*
X109606104Y-127058450D01*
X109416439Y-127034972D01*
X109302465Y-126990096D01*
X109296525Y-126983944D01*
X109270192Y-126877888D01*
X109320500Y-126781308D01*
X109379174Y-126653038D01*
X109407824Y-126496454D01*
X109405623Y-126352717D01*
X109371741Y-126262989D01*
X109331124Y-126253508D01*
X109263656Y-126320914D01*
X109167541Y-126470219D01*
X109078219Y-126639800D01*
X108978412Y-126827103D01*
X108890716Y-126957357D01*
X108839501Y-127000000D01*
X108781573Y-126947085D01*
X108689580Y-126807613D01*
X108582341Y-126610490D01*
X108570778Y-126587250D01*
X108465144Y-126385963D01*
X108375881Y-126239026D01*
X108320652Y-126175210D01*
X108317370Y-126174500D01*
X108276525Y-126228664D01*
X108262436Y-126361052D01*
X108271756Y-126526508D01*
X108301137Y-126679877D01*
X108347230Y-126776001D01*
X108362750Y-126786536D01*
X108448699Y-126867496D01*
X108433285Y-126968892D01*
X108357556Y-127024956D01*
X108188333Y-127061139D01*
X107995678Y-127063424D01*
X107826242Y-127035839D01*
X107726677Y-126982410D01*
X107719589Y-126969881D01*
X107731168Y-126855234D01*
X107785082Y-126774846D01*
X107841765Y-126651511D01*
X107877999Y-126440419D01*
X107893856Y-126179142D01*
X107889407Y-125905253D01*
X107864722Y-125656325D01*
X107819874Y-125469932D01*
X107782486Y-125402816D01*
X107714260Y-125273640D01*
X107760668Y-125176171D01*
X107911617Y-125118181D01*
X108157017Y-125107441D01*
X108165409Y-125107911D01*
X108337022Y-125122257D01*
X108450987Y-125157244D01*
X108542217Y-125238018D01*
X108645623Y-125389730D01*
X108715131Y-125503902D01*
X108837906Y-125695636D01*
X108942539Y-125838566D01*
X109006754Y-125902315D01*
X109007498Y-125902582D01*
X109069320Y-125863330D01*
X109151893Y-125739247D01*
X109191342Y-125659642D01*
X109331352Y-125383059D01*
X109463358Y-125210082D01*
X109608584Y-125120726D01*
X109788251Y-125095003D01*
X109790915Y-125095000D01*
X109977810Y-125104707D01*
G37*
X109977810Y-125104707D02*
X110120552Y-125128568D01*
X110135556Y-125133543D01*
X110221571Y-125222459D01*
X110222772Y-125356966D01*
X110156625Y-125466522D01*
X110110656Y-125579623D01*
X110085205Y-125780995D01*
X110079004Y-126033791D01*
X110090783Y-126301164D01*
X110119275Y-126546268D01*
X110163212Y-126732255D01*
X110202793Y-126807890D01*
X110273013Y-126900630D01*
X110247005Y-126956658D01*
X110181942Y-126994946D01*
X110033585Y-127038993D01*
X109826729Y-127059976D01*
X109606104Y-127058450D01*
X109416439Y-127034972D01*
X109302465Y-126990096D01*
X109296525Y-126983944D01*
X109270192Y-126877888D01*
X109320500Y-126781308D01*
X109379174Y-126653038D01*
X109407824Y-126496454D01*
X109405623Y-126352717D01*
X109371741Y-126262989D01*
X109331124Y-126253508D01*
X109263656Y-126320914D01*
X109167541Y-126470219D01*
X109078219Y-126639800D01*
X108978412Y-126827103D01*
X108890716Y-126957357D01*
X108839501Y-127000000D01*
X108781573Y-126947085D01*
X108689580Y-126807613D01*
X108582341Y-126610490D01*
X108570778Y-126587250D01*
X108465144Y-126385963D01*
X108375881Y-126239026D01*
X108320652Y-126175210D01*
X108317370Y-126174500D01*
X108276525Y-126228664D01*
X108262436Y-126361052D01*
X108271756Y-126526508D01*
X108301137Y-126679877D01*
X108347230Y-126776001D01*
X108362750Y-126786536D01*
X108448699Y-126867496D01*
X108433285Y-126968892D01*
X108357556Y-127024956D01*
X108188333Y-127061139D01*
X107995678Y-127063424D01*
X107826242Y-127035839D01*
X107726677Y-126982410D01*
X107719589Y-126969881D01*
X107731168Y-126855234D01*
X107785082Y-126774846D01*
X107841765Y-126651511D01*
X107877999Y-126440419D01*
X107893856Y-126179142D01*
X107889407Y-125905253D01*
X107864722Y-125656325D01*
X107819874Y-125469932D01*
X107782486Y-125402816D01*
X107714260Y-125273640D01*
X107760668Y-125176171D01*
X107911617Y-125118181D01*
X108157017Y-125107441D01*
X108165409Y-125107911D01*
X108337022Y-125122257D01*
X108450987Y-125157244D01*
X108542217Y-125238018D01*
X108645623Y-125389730D01*
X108715131Y-125503902D01*
X108837906Y-125695636D01*
X108942539Y-125838566D01*
X109006754Y-125902315D01*
X109007498Y-125902582D01*
X109069320Y-125863330D01*
X109151893Y-125739247D01*
X109191342Y-125659642D01*
X109331352Y-125383059D01*
X109463358Y-125210082D01*
X109608584Y-125120726D01*
X109788251Y-125095003D01*
X109790915Y-125095000D01*
X109977810Y-125104707D01*
G36*
X111493297Y-125660889D02*
G01*
X111678840Y-125750174D01*
X111782958Y-125920015D01*
X111821994Y-126187421D01*
X111823500Y-126273629D01*
X111835994Y-126497053D01*
X111879140Y-126626433D01*
X111934625Y-126679164D01*
X111997861Y-126730937D01*
X111983171Y-126790853D01*
X111880380Y-126893120D01*
X111867584Y-126904569D01*
X111669269Y-127029394D01*
X111478839Y-127058529D01*
X111329922Y-126989022D01*
X111239511Y-126946327D01*
X111102216Y-126984419D01*
X111091984Y-126989022D01*
X110822444Y-127059057D01*
X110588708Y-127007283D01*
X110455363Y-126907636D01*
X110335611Y-126768755D01*
X110312764Y-126658034D01*
X110336554Y-126615809D01*
X110947794Y-126615809D01*
X111012562Y-126718212D01*
X111091257Y-126746000D01*
X111169927Y-126691012D01*
X111188500Y-126587250D01*
X111149643Y-126464894D01*
X111062157Y-126425458D01*
X110969665Y-126486888D01*
X110964370Y-126495040D01*
X110947794Y-126615809D01*
X110336554Y-126615809D01*
X110385688Y-126528604D01*
X110444470Y-126457544D01*
X110603265Y-126329493D01*
X110825243Y-126263712D01*
X110888970Y-126255244D01*
X111071872Y-126226928D01*
X111160506Y-126182754D01*
X111187526Y-126102417D01*
X111188500Y-126068998D01*
X111150921Y-125924096D01*
X111049920Y-125879451D01*
X110903096Y-125937523D01*
X110807500Y-126015750D01*
X110647270Y-126129641D01*
X110518606Y-126150445D01*
X110444174Y-126081026D01*
X110437921Y-125969003D01*
X110520040Y-125821292D01*
X110707815Y-125711853D01*
X110983657Y-125648289D01*
X111209985Y-125635152D01*
X111493297Y-125660889D01*
G37*
X111493297Y-125660889D02*
X111678840Y-125750174D01*
X111782958Y-125920015D01*
X111821994Y-126187421D01*
X111823500Y-126273629D01*
X111835994Y-126497053D01*
X111879140Y-126626433D01*
X111934625Y-126679164D01*
X111997861Y-126730937D01*
X111983171Y-126790853D01*
X111880380Y-126893120D01*
X111867584Y-126904569D01*
X111669269Y-127029394D01*
X111478839Y-127058529D01*
X111329922Y-126989022D01*
X111239511Y-126946327D01*
X111102216Y-126984419D01*
X111091984Y-126989022D01*
X110822444Y-127059057D01*
X110588708Y-127007283D01*
X110455363Y-126907636D01*
X110335611Y-126768755D01*
X110312764Y-126658034D01*
X110336554Y-126615809D01*
X110947794Y-126615809D01*
X111012562Y-126718212D01*
X111091257Y-126746000D01*
X111169927Y-126691012D01*
X111188500Y-126587250D01*
X111149643Y-126464894D01*
X111062157Y-126425458D01*
X110969665Y-126486888D01*
X110964370Y-126495040D01*
X110947794Y-126615809D01*
X110336554Y-126615809D01*
X110385688Y-126528604D01*
X110444470Y-126457544D01*
X110603265Y-126329493D01*
X110825243Y-126263712D01*
X110888970Y-126255244D01*
X111071872Y-126226928D01*
X111160506Y-126182754D01*
X111187526Y-126102417D01*
X111188500Y-126068998D01*
X111150921Y-125924096D01*
X111049920Y-125879451D01*
X110903096Y-125937523D01*
X110807500Y-126015750D01*
X110647270Y-126129641D01*
X110518606Y-126150445D01*
X110444174Y-126081026D01*
X110437921Y-125969003D01*
X110520040Y-125821292D01*
X110707815Y-125711853D01*
X110983657Y-125648289D01*
X111209985Y-125635152D01*
X111493297Y-125660889D01*
G36*
X113602044Y-125659074D02*
G01*
X113759061Y-125817138D01*
X113843842Y-126061952D01*
X113855500Y-126216853D01*
X113877766Y-126451917D01*
X113932774Y-126677491D01*
X113947339Y-126715880D01*
X114001700Y-126863702D01*
X113996755Y-126941827D01*
X113928150Y-126995057D01*
X113919763Y-126999591D01*
X113768668Y-127042385D01*
X113558887Y-127060238D01*
X113346940Y-127052585D01*
X113189346Y-127018865D01*
X113166318Y-127007103D01*
X113113336Y-126934661D01*
X113150443Y-126821750D01*
X113202268Y-126653512D01*
X113219459Y-126441718D01*
X113203443Y-126235506D01*
X113155648Y-126084011D01*
X113128031Y-126049808D01*
X113017006Y-125996156D01*
X112945352Y-126055249D01*
X112911430Y-126230362D01*
X112911500Y-126483193D01*
X112914328Y-126711044D01*
X112902840Y-126892781D01*
X112881375Y-126984125D01*
X112790485Y-127031656D01*
X112621962Y-127057129D01*
X112423429Y-127059460D01*
X112242511Y-127037566D01*
X112141000Y-127000965D01*
X112079953Y-126933813D01*
X112111155Y-126835564D01*
X112125125Y-126812299D01*
X112180959Y-126652694D01*
X112203562Y-126440673D01*
X112193897Y-126224168D01*
X112152928Y-126051109D01*
X112108466Y-125983350D01*
X112051904Y-125885483D01*
X112119057Y-125792392D01*
X112306651Y-125707281D01*
X112425039Y-125673554D01*
X112645039Y-125622333D01*
X112769714Y-125610340D01*
X112825646Y-125641197D01*
X112839417Y-125718522D01*
X112839500Y-125730000D01*
X112862006Y-125833245D01*
X112893158Y-125857000D01*
X112971540Y-125814540D01*
X113061750Y-125730000D01*
X113230965Y-125626969D01*
X113384482Y-125603000D01*
X113602044Y-125659074D01*
G37*
X113602044Y-125659074D02*
X113759061Y-125817138D01*
X113843842Y-126061952D01*
X113855500Y-126216853D01*
X113877766Y-126451917D01*
X113932774Y-126677491D01*
X113947339Y-126715880D01*
X114001700Y-126863702D01*
X113996755Y-126941827D01*
X113928150Y-126995057D01*
X113919763Y-126999591D01*
X113768668Y-127042385D01*
X113558887Y-127060238D01*
X113346940Y-127052585D01*
X113189346Y-127018865D01*
X113166318Y-127007103D01*
X113113336Y-126934661D01*
X113150443Y-126821750D01*
X113202268Y-126653512D01*
X113219459Y-126441718D01*
X113203443Y-126235506D01*
X113155648Y-126084011D01*
X113128031Y-126049808D01*
X113017006Y-125996156D01*
X112945352Y-126055249D01*
X112911430Y-126230362D01*
X112911500Y-126483193D01*
X112914328Y-126711044D01*
X112902840Y-126892781D01*
X112881375Y-126984125D01*
X112790485Y-127031656D01*
X112621962Y-127057129D01*
X112423429Y-127059460D01*
X112242511Y-127037566D01*
X112141000Y-127000965D01*
X112079953Y-126933813D01*
X112111155Y-126835564D01*
X112125125Y-126812299D01*
X112180959Y-126652694D01*
X112203562Y-126440673D01*
X112193897Y-126224168D01*
X112152928Y-126051109D01*
X112108466Y-125983350D01*
X112051904Y-125885483D01*
X112119057Y-125792392D01*
X112306651Y-125707281D01*
X112425039Y-125673554D01*
X112645039Y-125622333D01*
X112769714Y-125610340D01*
X112825646Y-125641197D01*
X112839417Y-125718522D01*
X112839500Y-125730000D01*
X112862006Y-125833245D01*
X112893158Y-125857000D01*
X112971540Y-125814540D01*
X113061750Y-125730000D01*
X113230965Y-125626969D01*
X113384482Y-125603000D01*
X113602044Y-125659074D01*
G36*
X116985173Y-125178413D02*
G01*
X117193007Y-125245426D01*
X117314845Y-125363725D01*
X117336015Y-125495888D01*
X117267701Y-125615694D01*
X117128139Y-125654671D01*
X116947635Y-125608256D01*
X116872244Y-125565734D01*
X116722048Y-125498036D01*
X116641347Y-125522252D01*
X116640286Y-125596174D01*
X116725629Y-125691966D01*
X116865445Y-125785392D01*
X117027804Y-125852214D01*
X117094831Y-125866487D01*
X117224068Y-125925128D01*
X117280117Y-126026384D01*
X117256192Y-126127432D01*
X117145504Y-126185449D01*
X117145397Y-126185464D01*
X117043217Y-126222974D01*
X117008025Y-126321819D01*
X117008163Y-126413089D01*
X117074953Y-126637250D01*
X117166913Y-126746421D01*
X117265894Y-126838567D01*
X117272288Y-126897155D01*
X117192988Y-126968207D01*
X117045769Y-127026796D01*
X116822888Y-127058119D01*
X116572817Y-127061741D01*
X116344027Y-127037222D01*
X116184990Y-126984125D01*
X116175018Y-126977395D01*
X116066956Y-126924338D01*
X115949789Y-126949260D01*
X115893006Y-126977003D01*
X115702712Y-127043186D01*
X115507225Y-127061203D01*
X115349237Y-127031817D01*
X115274588Y-126965971D01*
X115235236Y-126903827D01*
X115165321Y-126918659D01*
X115088315Y-126965971D01*
X114867011Y-127050996D01*
X114635667Y-127045572D01*
X114443438Y-126951890D01*
X114427000Y-126936500D01*
X114348848Y-126823714D01*
X114309843Y-126661191D01*
X114300000Y-126433035D01*
X114282387Y-126159238D01*
X114227262Y-125991617D01*
X114198582Y-125955153D01*
X114129024Y-125832032D01*
X114175289Y-125729019D01*
X114326914Y-125652764D01*
X114573439Y-125609920D01*
X114752437Y-125603000D01*
X114935000Y-125603000D01*
X114935000Y-126103224D01*
X114949799Y-126423992D01*
X114993334Y-126629647D01*
X115064314Y-126717181D01*
X115161443Y-126683583D01*
X115177810Y-126668289D01*
X115232182Y-126543769D01*
X115251119Y-126350777D01*
X115236190Y-126142328D01*
X115188963Y-125971442D01*
X115155648Y-125918729D01*
X115092114Y-125827370D01*
X115124701Y-125758631D01*
X115157754Y-125729581D01*
X115277253Y-125675261D01*
X115467862Y-125630865D01*
X115572106Y-125617147D01*
X115887500Y-125586841D01*
X115887500Y-126126895D01*
X115898615Y-126453063D01*
X115935531Y-126664505D01*
X116003606Y-126771839D01*
X116108195Y-126785684D01*
X116200940Y-126748172D01*
X116292847Y-126647436D01*
X116338444Y-126496867D01*
X116337428Y-126339348D01*
X116289495Y-126217764D01*
X116205000Y-126174500D01*
X116098871Y-126129598D01*
X116078000Y-126047500D01*
X116104902Y-125944319D01*
X116142250Y-125920500D01*
X116177260Y-125864187D01*
X116172944Y-125713363D01*
X116168285Y-125681513D01*
X116174689Y-125461185D01*
X116280080Y-125306029D01*
X116491363Y-125209579D01*
X116711323Y-125173010D01*
X116985173Y-125178413D01*
G37*
X116985173Y-125178413D02*
X117193007Y-125245426D01*
X117314845Y-125363725D01*
X117336015Y-125495888D01*
X117267701Y-125615694D01*
X117128139Y-125654671D01*
X116947635Y-125608256D01*
X116872244Y-125565734D01*
X116722048Y-125498036D01*
X116641347Y-125522252D01*
X116640286Y-125596174D01*
X116725629Y-125691966D01*
X116865445Y-125785392D01*
X117027804Y-125852214D01*
X117094831Y-125866487D01*
X117224068Y-125925128D01*
X117280117Y-126026384D01*
X117256192Y-126127432D01*
X117145504Y-126185449D01*
X117145397Y-126185464D01*
X117043217Y-126222974D01*
X117008025Y-126321819D01*
X117008163Y-126413089D01*
X117074953Y-126637250D01*
X117166913Y-126746421D01*
X117265894Y-126838567D01*
X117272288Y-126897155D01*
X117192988Y-126968207D01*
X117045769Y-127026796D01*
X116822888Y-127058119D01*
X116572817Y-127061741D01*
X116344027Y-127037222D01*
X116184990Y-126984125D01*
X116175018Y-126977395D01*
X116066956Y-126924338D01*
X115949789Y-126949260D01*
X115893006Y-126977003D01*
X115702712Y-127043186D01*
X115507225Y-127061203D01*
X115349237Y-127031817D01*
X115274588Y-126965971D01*
X115235236Y-126903827D01*
X115165321Y-126918659D01*
X115088315Y-126965971D01*
X114867011Y-127050996D01*
X114635667Y-127045572D01*
X114443438Y-126951890D01*
X114427000Y-126936500D01*
X114348848Y-126823714D01*
X114309843Y-126661191D01*
X114300000Y-126433035D01*
X114282387Y-126159238D01*
X114227262Y-125991617D01*
X114198582Y-125955153D01*
X114129024Y-125832032D01*
X114175289Y-125729019D01*
X114326914Y-125652764D01*
X114573439Y-125609920D01*
X114752437Y-125603000D01*
X114935000Y-125603000D01*
X114935000Y-126103224D01*
X114949799Y-126423992D01*
X114993334Y-126629647D01*
X115064314Y-126717181D01*
X115161443Y-126683583D01*
X115177810Y-126668289D01*
X115232182Y-126543769D01*
X115251119Y-126350777D01*
X115236190Y-126142328D01*
X115188963Y-125971442D01*
X115155648Y-125918729D01*
X115092114Y-125827370D01*
X115124701Y-125758631D01*
X115157754Y-125729581D01*
X115277253Y-125675261D01*
X115467862Y-125630865D01*
X115572106Y-125617147D01*
X115887500Y-125586841D01*
X115887500Y-126126895D01*
X115898615Y-126453063D01*
X115935531Y-126664505D01*
X116003606Y-126771839D01*
X116108195Y-126785684D01*
X116200940Y-126748172D01*
X116292847Y-126647436D01*
X116338444Y-126496867D01*
X116337428Y-126339348D01*
X116289495Y-126217764D01*
X116205000Y-126174500D01*
X116098871Y-126129598D01*
X116078000Y-126047500D01*
X116104902Y-125944319D01*
X116142250Y-125920500D01*
X116177260Y-125864187D01*
X116172944Y-125713363D01*
X116168285Y-125681513D01*
X116174689Y-125461185D01*
X116280080Y-125306029D01*
X116491363Y-125209579D01*
X116711323Y-125173010D01*
X116985173Y-125178413D01*
G36*
X118605297Y-125660889D02*
G01*
X118790840Y-125750174D01*
X118894958Y-125920015D01*
X118933994Y-126187421D01*
X118935500Y-126273629D01*
X118947994Y-126497053D01*
X118991140Y-126626433D01*
X119046625Y-126679164D01*
X119109861Y-126730937D01*
X119095171Y-126790853D01*
X118992380Y-126893120D01*
X118979584Y-126904569D01*
X118781269Y-127029394D01*
X118590839Y-127058529D01*
X118441922Y-126989022D01*
X118351511Y-126946327D01*
X118214216Y-126984419D01*
X118203984Y-126989022D01*
X117934444Y-127059057D01*
X117700708Y-127007283D01*
X117567363Y-126907636D01*
X117447611Y-126768755D01*
X117424764Y-126658034D01*
X117448554Y-126615809D01*
X118059794Y-126615809D01*
X118124562Y-126718212D01*
X118203257Y-126746000D01*
X118281927Y-126691012D01*
X118300500Y-126587250D01*
X118261643Y-126464894D01*
X118174157Y-126425458D01*
X118081665Y-126486888D01*
X118076370Y-126495040D01*
X118059794Y-126615809D01*
X117448554Y-126615809D01*
X117497688Y-126528604D01*
X117556470Y-126457544D01*
X117715265Y-126329493D01*
X117937243Y-126263712D01*
X118000970Y-126255244D01*
X118183872Y-126226928D01*
X118272506Y-126182754D01*
X118299526Y-126102417D01*
X118300500Y-126068998D01*
X118262921Y-125924096D01*
X118161920Y-125879451D01*
X118015096Y-125937523D01*
X117919500Y-126015750D01*
X117759270Y-126129641D01*
X117630606Y-126150445D01*
X117556174Y-126081026D01*
X117549921Y-125969003D01*
X117632040Y-125821292D01*
X117819815Y-125711853D01*
X118095657Y-125648289D01*
X118321985Y-125635152D01*
X118605297Y-125660889D01*
G37*
X118605297Y-125660889D02*
X118790840Y-125750174D01*
X118894958Y-125920015D01*
X118933994Y-126187421D01*
X118935500Y-126273629D01*
X118947994Y-126497053D01*
X118991140Y-126626433D01*
X119046625Y-126679164D01*
X119109861Y-126730937D01*
X119095171Y-126790853D01*
X118992380Y-126893120D01*
X118979584Y-126904569D01*
X118781269Y-127029394D01*
X118590839Y-127058529D01*
X118441922Y-126989022D01*
X118351511Y-126946327D01*
X118214216Y-126984419D01*
X118203984Y-126989022D01*
X117934444Y-127059057D01*
X117700708Y-127007283D01*
X117567363Y-126907636D01*
X117447611Y-126768755D01*
X117424764Y-126658034D01*
X117448554Y-126615809D01*
X118059794Y-126615809D01*
X118124562Y-126718212D01*
X118203257Y-126746000D01*
X118281927Y-126691012D01*
X118300500Y-126587250D01*
X118261643Y-126464894D01*
X118174157Y-126425458D01*
X118081665Y-126486888D01*
X118076370Y-126495040D01*
X118059794Y-126615809D01*
X117448554Y-126615809D01*
X117497688Y-126528604D01*
X117556470Y-126457544D01*
X117715265Y-126329493D01*
X117937243Y-126263712D01*
X118000970Y-126255244D01*
X118183872Y-126226928D01*
X118272506Y-126182754D01*
X118299526Y-126102417D01*
X118300500Y-126068998D01*
X118262921Y-125924096D01*
X118161920Y-125879451D01*
X118015096Y-125937523D01*
X117919500Y-126015750D01*
X117759270Y-126129641D01*
X117630606Y-126150445D01*
X117556174Y-126081026D01*
X117549921Y-125969003D01*
X117632040Y-125821292D01*
X117819815Y-125711853D01*
X118095657Y-125648289D01*
X118321985Y-125635152D01*
X118605297Y-125660889D01*
G36*
X120219617Y-125626712D02*
G01*
X120463103Y-125699149D01*
X120630427Y-125825293D01*
X120680767Y-125917405D01*
X120688184Y-126090265D01*
X120612679Y-126219933D01*
X120487907Y-126291073D01*
X120347522Y-126288350D01*
X120225179Y-126196428D01*
X120192621Y-126139842D01*
X120091689Y-126013974D01*
X119987607Y-125996967D01*
X119874519Y-126065810D01*
X119834870Y-126206580D01*
X119873731Y-126384180D01*
X119919449Y-126468702D01*
X120002487Y-126567589D01*
X120108948Y-126609204D01*
X120286354Y-126610084D01*
X120319454Y-126607906D01*
X120535492Y-126618205D01*
X120640514Y-126678758D01*
X120629731Y-126777392D01*
X120498353Y-126901931D01*
X120447953Y-126934563D01*
X120175489Y-127036746D01*
X119870333Y-127052954D01*
X119589612Y-126981298D01*
X119555423Y-126964097D01*
X119338268Y-126782725D01*
X119220128Y-126545570D01*
X119205107Y-126281237D01*
X119297310Y-126018330D01*
X119399813Y-125879643D01*
X119560943Y-125729259D01*
X119725174Y-125652312D01*
X119929047Y-125619506D01*
X120219617Y-125626712D01*
G37*
X120219617Y-125626712D02*
X120463103Y-125699149D01*
X120630427Y-125825293D01*
X120680767Y-125917405D01*
X120688184Y-126090265D01*
X120612679Y-126219933D01*
X120487907Y-126291073D01*
X120347522Y-126288350D01*
X120225179Y-126196428D01*
X120192621Y-126139842D01*
X120091689Y-126013974D01*
X119987607Y-125996967D01*
X119874519Y-126065810D01*
X119834870Y-126206580D01*
X119873731Y-126384180D01*
X119919449Y-126468702D01*
X120002487Y-126567589D01*
X120108948Y-126609204D01*
X120286354Y-126610084D01*
X120319454Y-126607906D01*
X120535492Y-126618205D01*
X120640514Y-126678758D01*
X120629731Y-126777392D01*
X120498353Y-126901931D01*
X120447953Y-126934563D01*
X120175489Y-127036746D01*
X119870333Y-127052954D01*
X119589612Y-126981298D01*
X119555423Y-126964097D01*
X119338268Y-126782725D01*
X119220128Y-126545570D01*
X119205107Y-126281237D01*
X119297310Y-126018330D01*
X119399813Y-125879643D01*
X119560943Y-125729259D01*
X119725174Y-125652312D01*
X119929047Y-125619506D01*
X120219617Y-125626712D01*
G36*
X121631692Y-125322474D02*
G01*
X121666000Y-125440226D01*
X121688665Y-125551221D01*
X121781189Y-125601787D01*
X121872375Y-125614851D01*
X122021848Y-125649705D01*
X122076396Y-125728611D01*
X122078750Y-125761750D01*
X122046125Y-125856300D01*
X121928039Y-125901534D01*
X121869332Y-125908875D01*
X121659915Y-125929000D01*
X121678832Y-126289875D01*
X121692998Y-126493722D01*
X121719551Y-126601357D01*
X121775807Y-126643468D01*
X121879080Y-126650748D01*
X121882431Y-126650750D01*
X122041036Y-126678232D01*
X122086217Y-126751293D01*
X122016667Y-126855853D01*
X121908783Y-126934363D01*
X121633956Y-127046436D01*
X121375398Y-127047014D01*
X121154983Y-126936842D01*
X121123363Y-126907636D01*
X121036079Y-126801736D01*
X120988701Y-126678283D01*
X120969851Y-126495554D01*
X120967500Y-126336136D01*
X120963595Y-126111819D01*
X120946182Y-125986427D01*
X120906712Y-125931985D01*
X120840500Y-125920500D01*
X120726832Y-125889907D01*
X120713709Y-125808405D01*
X120793370Y-125691411D01*
X120958054Y-125554340D01*
X121056798Y-125490835D01*
X121331732Y-125345095D01*
X121521821Y-125289103D01*
X121631692Y-125322474D01*
G37*
X121631692Y-125322474D02*
X121666000Y-125440226D01*
X121688665Y-125551221D01*
X121781189Y-125601787D01*
X121872375Y-125614851D01*
X122021848Y-125649705D01*
X122076396Y-125728611D01*
X122078750Y-125761750D01*
X122046125Y-125856300D01*
X121928039Y-125901534D01*
X121869332Y-125908875D01*
X121659915Y-125929000D01*
X121678832Y-126289875D01*
X121692998Y-126493722D01*
X121719551Y-126601357D01*
X121775807Y-126643468D01*
X121879080Y-126650748D01*
X121882431Y-126650750D01*
X122041036Y-126678232D01*
X122086217Y-126751293D01*
X122016667Y-126855853D01*
X121908783Y-126934363D01*
X121633956Y-127046436D01*
X121375398Y-127047014D01*
X121154983Y-126936842D01*
X121123363Y-126907636D01*
X121036079Y-126801736D01*
X120988701Y-126678283D01*
X120969851Y-126495554D01*
X120967500Y-126336136D01*
X120963595Y-126111819D01*
X120946182Y-125986427D01*
X120906712Y-125931985D01*
X120840500Y-125920500D01*
X120726832Y-125889907D01*
X120713709Y-125808405D01*
X120793370Y-125691411D01*
X120958054Y-125554340D01*
X121056798Y-125490835D01*
X121331732Y-125345095D01*
X121521821Y-125289103D01*
X121631692Y-125322474D01*
G36*
X123287663Y-125625455D02*
G01*
X123549716Y-125733355D01*
X123750012Y-125919027D01*
X123867099Y-126170841D01*
X123888500Y-126353283D01*
X123830770Y-126590381D01*
X123675555Y-126790658D01*
X123449815Y-126942633D01*
X123180511Y-127034827D01*
X122894603Y-127055759D01*
X122619052Y-126993948D01*
X122511427Y-126939660D01*
X122295875Y-126759335D01*
X122194990Y-126540207D01*
X122193235Y-126287417D01*
X122248690Y-126111979D01*
X122874074Y-126111979D01*
X122876071Y-126291024D01*
X122910932Y-126471999D01*
X122972094Y-126605933D01*
X123073879Y-126705850D01*
X123147704Y-126685376D01*
X123186168Y-126549446D01*
X123190000Y-126460636D01*
X123166228Y-126223746D01*
X123103404Y-126037367D01*
X123014258Y-125932665D01*
X122969321Y-125920500D01*
X122905103Y-125975070D01*
X122874074Y-126111979D01*
X122248690Y-126111979D01*
X122282632Y-126004602D01*
X122470405Y-125796617D01*
X122664085Y-125689485D01*
X122985302Y-125606956D01*
X123287663Y-125625455D01*
G37*
X123287663Y-125625455D02*
X123549716Y-125733355D01*
X123750012Y-125919027D01*
X123867099Y-126170841D01*
X123888500Y-126353283D01*
X123830770Y-126590381D01*
X123675555Y-126790658D01*
X123449815Y-126942633D01*
X123180511Y-127034827D01*
X122894603Y-127055759D01*
X122619052Y-126993948D01*
X122511427Y-126939660D01*
X122295875Y-126759335D01*
X122194990Y-126540207D01*
X122193235Y-126287417D01*
X122248690Y-126111979D01*
X122874074Y-126111979D01*
X122876071Y-126291024D01*
X122910932Y-126471999D01*
X122972094Y-126605933D01*
X123073879Y-126705850D01*
X123147704Y-126685376D01*
X123186168Y-126549446D01*
X123190000Y-126460636D01*
X123166228Y-126223746D01*
X123103404Y-126037367D01*
X123014258Y-125932665D01*
X122969321Y-125920500D01*
X122905103Y-125975070D01*
X122874074Y-126111979D01*
X122248690Y-126111979D01*
X122282632Y-126004602D01*
X122470405Y-125796617D01*
X122664085Y-125689485D01*
X122985302Y-125606956D01*
X123287663Y-125625455D01*
G36*
X124766355Y-125681700D02*
G01*
X124777500Y-125741068D01*
X124777500Y-125879137D01*
X124924467Y-125741068D01*
X125113559Y-125623033D01*
X125290598Y-125625226D01*
X125439863Y-125746953D01*
X125451793Y-125764351D01*
X125520419Y-125912779D01*
X125499482Y-126051423D01*
X125487167Y-126080099D01*
X125365824Y-126223081D01*
X125196947Y-126283756D01*
X125027111Y-126249951D01*
X124976163Y-126213637D01*
X124870250Y-126147117D01*
X124807001Y-126186828D01*
X124779783Y-126340221D01*
X124777500Y-126436849D01*
X124801858Y-126627540D01*
X124884556Y-126734204D01*
X124904500Y-126746000D01*
X125011949Y-126846352D01*
X125016939Y-126953678D01*
X124931056Y-127024956D01*
X124770144Y-127057975D01*
X124555260Y-127067165D01*
X124330153Y-127055109D01*
X124138570Y-127024395D01*
X124024259Y-126977607D01*
X124017763Y-126970977D01*
X123976484Y-126876028D01*
X124024956Y-126759306D01*
X124041738Y-126734598D01*
X124115948Y-126559633D01*
X124141176Y-126349786D01*
X124117709Y-126154473D01*
X124045836Y-126023109D01*
X124037548Y-126016508D01*
X123970553Y-125917755D01*
X124028734Y-125813418D01*
X124210524Y-125705967D01*
X124243462Y-125691770D01*
X124494010Y-125612419D01*
X124672576Y-125609456D01*
X124766355Y-125681700D01*
G37*
X124766355Y-125681700D02*
X124777500Y-125741068D01*
X124777500Y-125879137D01*
X124924467Y-125741068D01*
X125113559Y-125623033D01*
X125290598Y-125625226D01*
X125439863Y-125746953D01*
X125451793Y-125764351D01*
X125520419Y-125912779D01*
X125499482Y-126051423D01*
X125487167Y-126080099D01*
X125365824Y-126223081D01*
X125196947Y-126283756D01*
X125027111Y-126249951D01*
X124976163Y-126213637D01*
X124870250Y-126147117D01*
X124807001Y-126186828D01*
X124779783Y-126340221D01*
X124777500Y-126436849D01*
X124801858Y-126627540D01*
X124884556Y-126734204D01*
X124904500Y-126746000D01*
X125011949Y-126846352D01*
X125016939Y-126953678D01*
X124931056Y-127024956D01*
X124770144Y-127057975D01*
X124555260Y-127067165D01*
X124330153Y-127055109D01*
X124138570Y-127024395D01*
X124024259Y-126977607D01*
X124017763Y-126970977D01*
X123976484Y-126876028D01*
X124024956Y-126759306D01*
X124041738Y-126734598D01*
X124115948Y-126559633D01*
X124141176Y-126349786D01*
X124117709Y-126154473D01*
X124045836Y-126023109D01*
X124037548Y-126016508D01*
X123970553Y-125917755D01*
X124028734Y-125813418D01*
X124210524Y-125705967D01*
X124243462Y-125691770D01*
X124494010Y-125612419D01*
X124672576Y-125609456D01*
X124766355Y-125681700D01*
G36*
X110341070Y-119778871D02*
G01*
X110554583Y-119789770D01*
X110721411Y-119809754D01*
X110861598Y-119839578D01*
X110924501Y-119857366D01*
X111299838Y-120027704D01*
X111588336Y-120272769D01*
X111787934Y-120572744D01*
X111896573Y-120907811D01*
X111912191Y-121258151D01*
X111832731Y-121603947D01*
X111656130Y-121925382D01*
X111380331Y-122202636D01*
X111181655Y-122331285D01*
X110999137Y-122422633D01*
X110828862Y-122481457D01*
X110630083Y-122516778D01*
X110362054Y-122537618D01*
X110220125Y-122544178D01*
X109601000Y-122569771D01*
X109601000Y-122906442D01*
X109610264Y-123170068D01*
X109647467Y-123341395D01*
X109726718Y-123454367D01*
X109862132Y-123542929D01*
X109866562Y-123545229D01*
X110009064Y-123671495D01*
X110040221Y-123824984D01*
X109962424Y-123976401D01*
X109823250Y-124076404D01*
X109645267Y-124128626D01*
X109377326Y-124165960D01*
X109055683Y-124187636D01*
X108716592Y-124192879D01*
X108396310Y-124180918D01*
X108131091Y-124150979D01*
X107988097Y-124115519D01*
X107754728Y-124002518D01*
X107647090Y-123879599D01*
X107664011Y-123741725D01*
X107804314Y-123583859D01*
X107854750Y-123543555D01*
X108077000Y-123374036D01*
X108077000Y-121440891D01*
X109610550Y-121440891D01*
X109621999Y-121651209D01*
X109650345Y-121768632D01*
X109677947Y-121802654D01*
X109869518Y-121854350D01*
X110079805Y-121793523D01*
X110240884Y-121670884D01*
X110358554Y-121529873D01*
X110413216Y-121380421D01*
X110426500Y-121166425D01*
X110384042Y-120857945D01*
X110257904Y-120643086D01*
X110049940Y-120524125D01*
X109883571Y-120499618D01*
X109632750Y-120491250D01*
X109614447Y-121121002D01*
X109610550Y-121440891D01*
X108077000Y-121440891D01*
X108077000Y-120516519D01*
X107865570Y-120428178D01*
X107636467Y-120298477D01*
X107531528Y-120151607D01*
X107536236Y-120018194D01*
X107558170Y-119963349D01*
X107594950Y-119920400D01*
X107661565Y-119887342D01*
X107773003Y-119862173D01*
X107944252Y-119842889D01*
X108190301Y-119827487D01*
X108526137Y-119813963D01*
X108966750Y-119800313D01*
X109220000Y-119793125D01*
X109693821Y-119781303D01*
X110060830Y-119776300D01*
X110341070Y-119778871D01*
G37*
X110341070Y-119778871D02*
X110554583Y-119789770D01*
X110721411Y-119809754D01*
X110861598Y-119839578D01*
X110924501Y-119857366D01*
X111299838Y-120027704D01*
X111588336Y-120272769D01*
X111787934Y-120572744D01*
X111896573Y-120907811D01*
X111912191Y-121258151D01*
X111832731Y-121603947D01*
X111656130Y-121925382D01*
X111380331Y-122202636D01*
X111181655Y-122331285D01*
X110999137Y-122422633D01*
X110828862Y-122481457D01*
X110630083Y-122516778D01*
X110362054Y-122537618D01*
X110220125Y-122544178D01*
X109601000Y-122569771D01*
X109601000Y-122906442D01*
X109610264Y-123170068D01*
X109647467Y-123341395D01*
X109726718Y-123454367D01*
X109862132Y-123542929D01*
X109866562Y-123545229D01*
X110009064Y-123671495D01*
X110040221Y-123824984D01*
X109962424Y-123976401D01*
X109823250Y-124076404D01*
X109645267Y-124128626D01*
X109377326Y-124165960D01*
X109055683Y-124187636D01*
X108716592Y-124192879D01*
X108396310Y-124180918D01*
X108131091Y-124150979D01*
X107988097Y-124115519D01*
X107754728Y-124002518D01*
X107647090Y-123879599D01*
X107664011Y-123741725D01*
X107804314Y-123583859D01*
X107854750Y-123543555D01*
X108077000Y-123374036D01*
X108077000Y-121440891D01*
X109610550Y-121440891D01*
X109621999Y-121651209D01*
X109650345Y-121768632D01*
X109677947Y-121802654D01*
X109869518Y-121854350D01*
X110079805Y-121793523D01*
X110240884Y-121670884D01*
X110358554Y-121529873D01*
X110413216Y-121380421D01*
X110426500Y-121166425D01*
X110384042Y-120857945D01*
X110257904Y-120643086D01*
X110049940Y-120524125D01*
X109883571Y-120499618D01*
X109632750Y-120491250D01*
X109614447Y-121121002D01*
X109610550Y-121440891D01*
X108077000Y-121440891D01*
X108077000Y-120516519D01*
X107865570Y-120428178D01*
X107636467Y-120298477D01*
X107531528Y-120151607D01*
X107536236Y-120018194D01*
X107558170Y-119963349D01*
X107594950Y-119920400D01*
X107661565Y-119887342D01*
X107773003Y-119862173D01*
X107944252Y-119842889D01*
X108190301Y-119827487D01*
X108526137Y-119813963D01*
X108966750Y-119800313D01*
X109220000Y-119793125D01*
X109693821Y-119781303D01*
X110060830Y-119776300D01*
X110341070Y-119778871D01*
G36*
X113360961Y-119767568D02*
G01*
X113582984Y-119786361D01*
X113719367Y-119819648D01*
X113721687Y-119820853D01*
X113802819Y-119879074D01*
X113963719Y-120006456D01*
X114187800Y-120189431D01*
X114458472Y-120414430D01*
X114759148Y-120667884D01*
X114810892Y-120711837D01*
X115112652Y-120963638D01*
X115386311Y-121182938D01*
X115615771Y-121357562D01*
X115784933Y-121475336D01*
X115877698Y-121524085D01*
X115885504Y-121524513D01*
X115949903Y-121468516D01*
X115988385Y-121317944D01*
X116002376Y-121160799D01*
X116006884Y-120862009D01*
X115973610Y-120658708D01*
X115893059Y-120522574D01*
X115755823Y-120425331D01*
X115621984Y-120334395D01*
X115578631Y-120220704D01*
X115582118Y-120123999D01*
X115619094Y-119975258D01*
X115707773Y-119871909D01*
X115865523Y-119807773D01*
X116109716Y-119776672D01*
X116457723Y-119772427D01*
X116563628Y-119774856D01*
X116874762Y-119787640D01*
X117086236Y-119808689D01*
X117225342Y-119842874D01*
X117319376Y-119895068D01*
X117341503Y-119913716D01*
X117440775Y-120041872D01*
X117475000Y-120149338D01*
X117466069Y-120225199D01*
X117423565Y-120295371D01*
X117323922Y-120387163D01*
X117157500Y-120517258D01*
X116998750Y-120638472D01*
X116965682Y-122215861D01*
X116952421Y-122766314D01*
X116936438Y-123203066D01*
X116914959Y-123539418D01*
X116885212Y-123788669D01*
X116844423Y-123964118D01*
X116789820Y-124079066D01*
X116718628Y-124146811D01*
X116628074Y-124180653D01*
X116553808Y-124191106D01*
X116481490Y-124186977D01*
X116394322Y-124155963D01*
X116279316Y-124088540D01*
X116123481Y-123975184D01*
X115913830Y-123806370D01*
X115637373Y-123572573D01*
X115281122Y-123264271D01*
X115235019Y-123224106D01*
X114910274Y-122942608D01*
X114612375Y-122687338D01*
X114356255Y-122470853D01*
X114156843Y-122305712D01*
X114029071Y-122204472D01*
X113993348Y-122179805D01*
X113857209Y-122147463D01*
X113761150Y-122223103D01*
X113700803Y-122412641D01*
X113678146Y-122606724D01*
X113679068Y-122930560D01*
X113726926Y-123200203D01*
X113814946Y-123391575D01*
X113922990Y-123477016D01*
X114051679Y-123562835D01*
X114116045Y-123646730D01*
X114149442Y-123766129D01*
X114098329Y-123891937D01*
X114062628Y-123942543D01*
X113926986Y-124074464D01*
X113786275Y-124150533D01*
X113637485Y-124172390D01*
X113406511Y-124185743D01*
X113137910Y-124190187D01*
X112876241Y-124185313D01*
X112666061Y-124170714D01*
X112602640Y-124161351D01*
X112474275Y-124096490D01*
X112337198Y-123973699D01*
X112234025Y-123837040D01*
X112204500Y-123749699D01*
X112247745Y-123676385D01*
X112357929Y-123554443D01*
X112436899Y-123478619D01*
X112669298Y-123265713D01*
X112699067Y-122441304D01*
X112707033Y-122081474D01*
X112706365Y-121721561D01*
X112697629Y-121404752D01*
X112682599Y-121185142D01*
X112650886Y-120945409D01*
X112603809Y-120783506D01*
X112518700Y-120650476D01*
X112372888Y-120497360D01*
X112356931Y-120481814D01*
X112209989Y-120333241D01*
X112108774Y-120219889D01*
X112077500Y-120171944D01*
X112132899Y-120028647D01*
X112273525Y-119896240D01*
X112403135Y-119831179D01*
X112574386Y-119795075D01*
X112817329Y-119772233D01*
X113092632Y-119762962D01*
X113360961Y-119767568D01*
G37*
X113360961Y-119767568D02*
X113582984Y-119786361D01*
X113719367Y-119819648D01*
X113721687Y-119820853D01*
X113802819Y-119879074D01*
X113963719Y-120006456D01*
X114187800Y-120189431D01*
X114458472Y-120414430D01*
X114759148Y-120667884D01*
X114810892Y-120711837D01*
X115112652Y-120963638D01*
X115386311Y-121182938D01*
X115615771Y-121357562D01*
X115784933Y-121475336D01*
X115877698Y-121524085D01*
X115885504Y-121524513D01*
X115949903Y-121468516D01*
X115988385Y-121317944D01*
X116002376Y-121160799D01*
X116006884Y-120862009D01*
X115973610Y-120658708D01*
X115893059Y-120522574D01*
X115755823Y-120425331D01*
X115621984Y-120334395D01*
X115578631Y-120220704D01*
X115582118Y-120123999D01*
X115619094Y-119975258D01*
X115707773Y-119871909D01*
X115865523Y-119807773D01*
X116109716Y-119776672D01*
X116457723Y-119772427D01*
X116563628Y-119774856D01*
X116874762Y-119787640D01*
X117086236Y-119808689D01*
X117225342Y-119842874D01*
X117319376Y-119895068D01*
X117341503Y-119913716D01*
X117440775Y-120041872D01*
X117475000Y-120149338D01*
X117466069Y-120225199D01*
X117423565Y-120295371D01*
X117323922Y-120387163D01*
X117157500Y-120517258D01*
X116998750Y-120638472D01*
X116965682Y-122215861D01*
X116952421Y-122766314D01*
X116936438Y-123203066D01*
X116914959Y-123539418D01*
X116885212Y-123788669D01*
X116844423Y-123964118D01*
X116789820Y-124079066D01*
X116718628Y-124146811D01*
X116628074Y-124180653D01*
X116553808Y-124191106D01*
X116481490Y-124186977D01*
X116394322Y-124155963D01*
X116279316Y-124088540D01*
X116123481Y-123975184D01*
X115913830Y-123806370D01*
X115637373Y-123572573D01*
X115281122Y-123264271D01*
X115235019Y-123224106D01*
X114910274Y-122942608D01*
X114612375Y-122687338D01*
X114356255Y-122470853D01*
X114156843Y-122305712D01*
X114029071Y-122204472D01*
X113993348Y-122179805D01*
X113857209Y-122147463D01*
X113761150Y-122223103D01*
X113700803Y-122412641D01*
X113678146Y-122606724D01*
X113679068Y-122930560D01*
X113726926Y-123200203D01*
X113814946Y-123391575D01*
X113922990Y-123477016D01*
X114051679Y-123562835D01*
X114116045Y-123646730D01*
X114149442Y-123766129D01*
X114098329Y-123891937D01*
X114062628Y-123942543D01*
X113926986Y-124074464D01*
X113786275Y-124150533D01*
X113637485Y-124172390D01*
X113406511Y-124185743D01*
X113137910Y-124190187D01*
X112876241Y-124185313D01*
X112666061Y-124170714D01*
X112602640Y-124161351D01*
X112474275Y-124096490D01*
X112337198Y-123973699D01*
X112234025Y-123837040D01*
X112204500Y-123749699D01*
X112247745Y-123676385D01*
X112357929Y-123554443D01*
X112436899Y-123478619D01*
X112669298Y-123265713D01*
X112699067Y-122441304D01*
X112707033Y-122081474D01*
X112706365Y-121721561D01*
X112697629Y-121404752D01*
X112682599Y-121185142D01*
X112650886Y-120945409D01*
X112603809Y-120783506D01*
X112518700Y-120650476D01*
X112372888Y-120497360D01*
X112356931Y-120481814D01*
X112209989Y-120333241D01*
X112108774Y-120219889D01*
X112077500Y-120171944D01*
X112132899Y-120028647D01*
X112273525Y-119896240D01*
X112403135Y-119831179D01*
X112574386Y-119795075D01*
X112817329Y-119772233D01*
X113092632Y-119762962D01*
X113360961Y-119767568D01*
G36*
X120437570Y-119778871D02*
G01*
X120651083Y-119789770D01*
X120817911Y-119809754D01*
X120958098Y-119839578D01*
X121021001Y-119857366D01*
X121396338Y-120027704D01*
X121684836Y-120272769D01*
X121884434Y-120572744D01*
X121993073Y-120907811D01*
X122008691Y-121258151D01*
X121929231Y-121603947D01*
X121752630Y-121925382D01*
X121476831Y-122202636D01*
X121278155Y-122331285D01*
X121095637Y-122422633D01*
X120925362Y-122481457D01*
X120726583Y-122516778D01*
X120458554Y-122537618D01*
X120316625Y-122544178D01*
X119697500Y-122569771D01*
X119697500Y-122906442D01*
X119706764Y-123170068D01*
X119743967Y-123341395D01*
X119823218Y-123454367D01*
X119958632Y-123542929D01*
X119963062Y-123545229D01*
X120105564Y-123671495D01*
X120136721Y-123824984D01*
X120058924Y-123976401D01*
X119919750Y-124076404D01*
X119741767Y-124128626D01*
X119473826Y-124165960D01*
X119152183Y-124187636D01*
X118813092Y-124192879D01*
X118492810Y-124180918D01*
X118227591Y-124150979D01*
X118084597Y-124115519D01*
X117851228Y-124002518D01*
X117743590Y-123879599D01*
X117760511Y-123741725D01*
X117900814Y-123583859D01*
X117951250Y-123543555D01*
X118173500Y-123374036D01*
X118173500Y-121440891D01*
X119707050Y-121440891D01*
X119718499Y-121651209D01*
X119746845Y-121768632D01*
X119774447Y-121802654D01*
X119966018Y-121854350D01*
X120176305Y-121793523D01*
X120337384Y-121670884D01*
X120455054Y-121529873D01*
X120509716Y-121380421D01*
X120523000Y-121166425D01*
X120480542Y-120857945D01*
X120354404Y-120643086D01*
X120146440Y-120524125D01*
X119980071Y-120499618D01*
X119729250Y-120491250D01*
X119710947Y-121121002D01*
X119707050Y-121440891D01*
X118173500Y-121440891D01*
X118173500Y-120516519D01*
X117962070Y-120428178D01*
X117732967Y-120298477D01*
X117628028Y-120151607D01*
X117632736Y-120018194D01*
X117654670Y-119963349D01*
X117691450Y-119920400D01*
X117758065Y-119887342D01*
X117869503Y-119862173D01*
X118040752Y-119842889D01*
X118286801Y-119827487D01*
X118622637Y-119813963D01*
X119063250Y-119800313D01*
X119316500Y-119793125D01*
X119790321Y-119781303D01*
X120157330Y-119776300D01*
X120437570Y-119778871D01*
G37*
X120437570Y-119778871D02*
X120651083Y-119789770D01*
X120817911Y-119809754D01*
X120958098Y-119839578D01*
X121021001Y-119857366D01*
X121396338Y-120027704D01*
X121684836Y-120272769D01*
X121884434Y-120572744D01*
X121993073Y-120907811D01*
X122008691Y-121258151D01*
X121929231Y-121603947D01*
X121752630Y-121925382D01*
X121476831Y-122202636D01*
X121278155Y-122331285D01*
X121095637Y-122422633D01*
X120925362Y-122481457D01*
X120726583Y-122516778D01*
X120458554Y-122537618D01*
X120316625Y-122544178D01*
X119697500Y-122569771D01*
X119697500Y-122906442D01*
X119706764Y-123170068D01*
X119743967Y-123341395D01*
X119823218Y-123454367D01*
X119958632Y-123542929D01*
X119963062Y-123545229D01*
X120105564Y-123671495D01*
X120136721Y-123824984D01*
X120058924Y-123976401D01*
X119919750Y-124076404D01*
X119741767Y-124128626D01*
X119473826Y-124165960D01*
X119152183Y-124187636D01*
X118813092Y-124192879D01*
X118492810Y-124180918D01*
X118227591Y-124150979D01*
X118084597Y-124115519D01*
X117851228Y-124002518D01*
X117743590Y-123879599D01*
X117760511Y-123741725D01*
X117900814Y-123583859D01*
X117951250Y-123543555D01*
X118173500Y-123374036D01*
X118173500Y-121440891D01*
X119707050Y-121440891D01*
X119718499Y-121651209D01*
X119746845Y-121768632D01*
X119774447Y-121802654D01*
X119966018Y-121854350D01*
X120176305Y-121793523D01*
X120337384Y-121670884D01*
X120455054Y-121529873D01*
X120509716Y-121380421D01*
X120523000Y-121166425D01*
X120480542Y-120857945D01*
X120354404Y-120643086D01*
X120146440Y-120524125D01*
X119980071Y-120499618D01*
X119729250Y-120491250D01*
X119710947Y-121121002D01*
X119707050Y-121440891D01*
X118173500Y-121440891D01*
X118173500Y-120516519D01*
X117962070Y-120428178D01*
X117732967Y-120298477D01*
X117628028Y-120151607D01*
X117632736Y-120018194D01*
X117654670Y-119963349D01*
X117691450Y-119920400D01*
X117758065Y-119887342D01*
X117869503Y-119862173D01*
X118040752Y-119842889D01*
X118286801Y-119827487D01*
X118622637Y-119813963D01*
X119063250Y-119800313D01*
X119316500Y-119793125D01*
X119790321Y-119781303D01*
X120157330Y-119776300D01*
X120437570Y-119778871D01*
G36*
X123393961Y-119767568D02*
G01*
X123615984Y-119786361D01*
X123752367Y-119819648D01*
X123754687Y-119820853D01*
X123835819Y-119879074D01*
X123996719Y-120006456D01*
X124220800Y-120189431D01*
X124491472Y-120414430D01*
X124792148Y-120667884D01*
X124843892Y-120711837D01*
X125145652Y-120963638D01*
X125419311Y-121182938D01*
X125648771Y-121357562D01*
X125817933Y-121475336D01*
X125910698Y-121524085D01*
X125918504Y-121524513D01*
X125982903Y-121468516D01*
X126021385Y-121317944D01*
X126035376Y-121160799D01*
X126039884Y-120862009D01*
X126006610Y-120658708D01*
X125926059Y-120522574D01*
X125788823Y-120425331D01*
X125654984Y-120334395D01*
X125611631Y-120220704D01*
X125615118Y-120123999D01*
X125652094Y-119975258D01*
X125740773Y-119871909D01*
X125898523Y-119807773D01*
X126142716Y-119776672D01*
X126490723Y-119772427D01*
X126596628Y-119774856D01*
X126907762Y-119787640D01*
X127119236Y-119808689D01*
X127258342Y-119842874D01*
X127352376Y-119895068D01*
X127374503Y-119913716D01*
X127473775Y-120041872D01*
X127508000Y-120149338D01*
X127499069Y-120225199D01*
X127456565Y-120295371D01*
X127356922Y-120387163D01*
X127190500Y-120517258D01*
X127031750Y-120638472D01*
X126998682Y-122215861D01*
X126985421Y-122766314D01*
X126969438Y-123203066D01*
X126947959Y-123539418D01*
X126918212Y-123788669D01*
X126877423Y-123964118D01*
X126822820Y-124079066D01*
X126751628Y-124146811D01*
X126661074Y-124180653D01*
X126586808Y-124191106D01*
X126514490Y-124186977D01*
X126427322Y-124155963D01*
X126312316Y-124088540D01*
X126156481Y-123975184D01*
X125946830Y-123806370D01*
X125670373Y-123572573D01*
X125314122Y-123264271D01*
X125268019Y-123224106D01*
X124943274Y-122942608D01*
X124645375Y-122687338D01*
X124389255Y-122470853D01*
X124189843Y-122305712D01*
X124062071Y-122204472D01*
X124026348Y-122179805D01*
X123890209Y-122147463D01*
X123794150Y-122223103D01*
X123733803Y-122412641D01*
X123711146Y-122606724D01*
X123712068Y-122930560D01*
X123759926Y-123200203D01*
X123847946Y-123391575D01*
X123955990Y-123477016D01*
X124084679Y-123562835D01*
X124149045Y-123646730D01*
X124182442Y-123766129D01*
X124131329Y-123891937D01*
X124095628Y-123942543D01*
X123959986Y-124074464D01*
X123819275Y-124150533D01*
X123670485Y-124172390D01*
X123439511Y-124185743D01*
X123170910Y-124190187D01*
X122909241Y-124185313D01*
X122699061Y-124170714D01*
X122635640Y-124161351D01*
X122507275Y-124096490D01*
X122370198Y-123973699D01*
X122267025Y-123837040D01*
X122237500Y-123749699D01*
X122280745Y-123676385D01*
X122390929Y-123554443D01*
X122469899Y-123478619D01*
X122702298Y-123265713D01*
X122732067Y-122441304D01*
X122740033Y-122081474D01*
X122739365Y-121721561D01*
X122730629Y-121404752D01*
X122715599Y-121185142D01*
X122683886Y-120945409D01*
X122636809Y-120783506D01*
X122551700Y-120650476D01*
X122405888Y-120497360D01*
X122389931Y-120481814D01*
X122242989Y-120333241D01*
X122141774Y-120219889D01*
X122110500Y-120171944D01*
X122165899Y-120028647D01*
X122306525Y-119896240D01*
X122436135Y-119831179D01*
X122607386Y-119795075D01*
X122850329Y-119772233D01*
X123125632Y-119762962D01*
X123393961Y-119767568D01*
G37*
X123393961Y-119767568D02*
X123615984Y-119786361D01*
X123752367Y-119819648D01*
X123754687Y-119820853D01*
X123835819Y-119879074D01*
X123996719Y-120006456D01*
X124220800Y-120189431D01*
X124491472Y-120414430D01*
X124792148Y-120667884D01*
X124843892Y-120711837D01*
X125145652Y-120963638D01*
X125419311Y-121182938D01*
X125648771Y-121357562D01*
X125817933Y-121475336D01*
X125910698Y-121524085D01*
X125918504Y-121524513D01*
X125982903Y-121468516D01*
X126021385Y-121317944D01*
X126035376Y-121160799D01*
X126039884Y-120862009D01*
X126006610Y-120658708D01*
X125926059Y-120522574D01*
X125788823Y-120425331D01*
X125654984Y-120334395D01*
X125611631Y-120220704D01*
X125615118Y-120123999D01*
X125652094Y-119975258D01*
X125740773Y-119871909D01*
X125898523Y-119807773D01*
X126142716Y-119776672D01*
X126490723Y-119772427D01*
X126596628Y-119774856D01*
X126907762Y-119787640D01*
X127119236Y-119808689D01*
X127258342Y-119842874D01*
X127352376Y-119895068D01*
X127374503Y-119913716D01*
X127473775Y-120041872D01*
X127508000Y-120149338D01*
X127499069Y-120225199D01*
X127456565Y-120295371D01*
X127356922Y-120387163D01*
X127190500Y-120517258D01*
X127031750Y-120638472D01*
X126998682Y-122215861D01*
X126985421Y-122766314D01*
X126969438Y-123203066D01*
X126947959Y-123539418D01*
X126918212Y-123788669D01*
X126877423Y-123964118D01*
X126822820Y-124079066D01*
X126751628Y-124146811D01*
X126661074Y-124180653D01*
X126586808Y-124191106D01*
X126514490Y-124186977D01*
X126427322Y-124155963D01*
X126312316Y-124088540D01*
X126156481Y-123975184D01*
X125946830Y-123806370D01*
X125670373Y-123572573D01*
X125314122Y-123264271D01*
X125268019Y-123224106D01*
X124943274Y-122942608D01*
X124645375Y-122687338D01*
X124389255Y-122470853D01*
X124189843Y-122305712D01*
X124062071Y-122204472D01*
X124026348Y-122179805D01*
X123890209Y-122147463D01*
X123794150Y-122223103D01*
X123733803Y-122412641D01*
X123711146Y-122606724D01*
X123712068Y-122930560D01*
X123759926Y-123200203D01*
X123847946Y-123391575D01*
X123955990Y-123477016D01*
X124084679Y-123562835D01*
X124149045Y-123646730D01*
X124182442Y-123766129D01*
X124131329Y-123891937D01*
X124095628Y-123942543D01*
X123959986Y-124074464D01*
X123819275Y-124150533D01*
X123670485Y-124172390D01*
X123439511Y-124185743D01*
X123170910Y-124190187D01*
X122909241Y-124185313D01*
X122699061Y-124170714D01*
X122635640Y-124161351D01*
X122507275Y-124096490D01*
X122370198Y-123973699D01*
X122267025Y-123837040D01*
X122237500Y-123749699D01*
X122280745Y-123676385D01*
X122390929Y-123554443D01*
X122469899Y-123478619D01*
X122702298Y-123265713D01*
X122732067Y-122441304D01*
X122740033Y-122081474D01*
X122739365Y-121721561D01*
X122730629Y-121404752D01*
X122715599Y-121185142D01*
X122683886Y-120945409D01*
X122636809Y-120783506D01*
X122551700Y-120650476D01*
X122405888Y-120497360D01*
X122389931Y-120481814D01*
X122242989Y-120333241D01*
X122141774Y-120219889D01*
X122110500Y-120171944D01*
X122165899Y-120028647D01*
X122306525Y-119896240D01*
X122436135Y-119831179D01*
X122607386Y-119795075D01*
X122850329Y-119772233D01*
X123125632Y-119762962D01*
X123393961Y-119767568D01*
D12*
G04 #@! TO.C,J5*
X162500000Y-66735000D02*
X165160000Y-66735000D01*
X162500000Y-64135000D02*
X162500000Y-66735000D01*
X165160000Y-64135000D02*
X165160000Y-66735000D01*
X162500000Y-64135000D02*
X165160000Y-64135000D01*
X162500000Y-62865000D02*
X162500000Y-61535000D01*
X162500000Y-61535000D02*
X163830000Y-61535000D01*
G04 #@! TO.C,C6*
X183465000Y-102585000D02*
X176025000Y-102585000D01*
X183465000Y-99345000D02*
X176025000Y-99345000D01*
X183465000Y-102585000D02*
X183465000Y-99345000D01*
X176025000Y-102585000D02*
X176025000Y-99345000D01*
G04 #@! TO.C,U1*
X162500000Y-111880000D02*
X172780000Y-111880000D01*
X162500000Y-101480000D02*
X162500000Y-111880000D01*
X172780000Y-101480000D02*
X162500000Y-101480000D01*
X172780000Y-111880000D02*
X172780000Y-101480000D01*
X164990000Y-111820000D02*
X166640000Y-111820000D01*
X164990000Y-101540000D02*
X164990000Y-111820000D01*
X170290000Y-101540000D02*
X164990000Y-101540000D01*
X170290000Y-111820000D02*
X170290000Y-101540000D01*
X168640000Y-111820000D02*
X170290000Y-111820000D01*
X166640000Y-111820000D02*
G75*
G02*
X168640000Y-111820000I1000000J0D01*
G01*
G04 #@! TO.C,RV1*
X129108200Y-76987400D02*
X136321800Y-76987400D01*
X129085000Y-84251800D02*
X136321800Y-84251800D01*
X129082800Y-76987400D02*
X129085000Y-84251800D01*
X136321800Y-76987400D02*
X136321800Y-84251800D01*
G04 #@! TO.C,R25*
X113895000Y-102235000D02*
X113125000Y-102235000D01*
X105815000Y-102235000D02*
X106585000Y-102235000D01*
X113125000Y-100865000D02*
X106585000Y-100865000D01*
X113125000Y-103605000D02*
X113125000Y-100865000D01*
X106585000Y-103605000D02*
X113125000Y-103605000D01*
X106585000Y-100865000D02*
X106585000Y-103605000D01*
G04 #@! TO.C,R24*
X113895000Y-111760000D02*
X113125000Y-111760000D01*
X105815000Y-111760000D02*
X106585000Y-111760000D01*
X113125000Y-110390000D02*
X106585000Y-110390000D01*
X113125000Y-113130000D02*
X113125000Y-110390000D01*
X106585000Y-113130000D02*
X113125000Y-113130000D01*
X106585000Y-110390000D02*
X106585000Y-113130000D01*
G04 #@! TO.C,R23*
X105815000Y-108585000D02*
X106585000Y-108585000D01*
X113895000Y-108585000D02*
X113125000Y-108585000D01*
X106585000Y-109955000D02*
X113125000Y-109955000D01*
X106585000Y-107215000D02*
X106585000Y-109955000D01*
X113125000Y-107215000D02*
X106585000Y-107215000D01*
X113125000Y-109955000D02*
X113125000Y-107215000D01*
G04 #@! TO.C,R22*
X105815000Y-105410000D02*
X106585000Y-105410000D01*
X113895000Y-105410000D02*
X113125000Y-105410000D01*
X106585000Y-106780000D02*
X113125000Y-106780000D01*
X106585000Y-104040000D02*
X106585000Y-106780000D01*
X113125000Y-104040000D02*
X106585000Y-104040000D01*
X113125000Y-106780000D02*
X113125000Y-104040000D01*
G04 #@! TO.C,R21*
X103910000Y-66040000D02*
X104680000Y-66040000D01*
X111990000Y-66040000D02*
X111220000Y-66040000D01*
X104680000Y-67410000D02*
X111220000Y-67410000D01*
X104680000Y-64670000D02*
X104680000Y-67410000D01*
X111220000Y-64670000D02*
X104680000Y-64670000D01*
X111220000Y-67410000D02*
X111220000Y-64670000D01*
G04 #@! TO.C,R20*
X111990000Y-91440000D02*
X111220000Y-91440000D01*
X103910000Y-91440000D02*
X104680000Y-91440000D01*
X111220000Y-90070000D02*
X104680000Y-90070000D01*
X111220000Y-92810000D02*
X111220000Y-90070000D01*
X104680000Y-92810000D02*
X111220000Y-92810000D01*
X104680000Y-90070000D02*
X104680000Y-92810000D01*
G04 #@! TO.C,R19*
X129945000Y-104775000D02*
X130715000Y-104775000D01*
X138025000Y-104775000D02*
X137255000Y-104775000D01*
X130715000Y-106145000D02*
X137255000Y-106145000D01*
X130715000Y-103405000D02*
X130715000Y-106145000D01*
X137255000Y-103405000D02*
X130715000Y-103405000D01*
X137255000Y-106145000D02*
X137255000Y-103405000D01*
G04 #@! TO.C,R18*
X129945000Y-114300000D02*
X130715000Y-114300000D01*
X138025000Y-114300000D02*
X137255000Y-114300000D01*
X130715000Y-115670000D02*
X137255000Y-115670000D01*
X130715000Y-112930000D02*
X130715000Y-115670000D01*
X137255000Y-112930000D02*
X130715000Y-112930000D01*
X137255000Y-115670000D02*
X137255000Y-112930000D01*
G04 #@! TO.C,R17*
X138025000Y-111125000D02*
X137255000Y-111125000D01*
X129945000Y-111125000D02*
X130715000Y-111125000D01*
X137255000Y-109755000D02*
X130715000Y-109755000D01*
X137255000Y-112495000D02*
X137255000Y-109755000D01*
X130715000Y-112495000D02*
X137255000Y-112495000D01*
X130715000Y-109755000D02*
X130715000Y-112495000D01*
G04 #@! TO.C,R16*
X138025000Y-107950000D02*
X137255000Y-107950000D01*
X129945000Y-107950000D02*
X130715000Y-107950000D01*
X137255000Y-106580000D02*
X130715000Y-106580000D01*
X137255000Y-109320000D02*
X137255000Y-106580000D01*
X130715000Y-109320000D02*
X137255000Y-109320000D01*
X130715000Y-106580000D02*
X130715000Y-109320000D01*
G04 #@! TO.C,R15*
X128675000Y-71755000D02*
X129445000Y-71755000D01*
X136755000Y-71755000D02*
X135985000Y-71755000D01*
X129445000Y-73125000D02*
X135985000Y-73125000D01*
X129445000Y-70385000D02*
X129445000Y-73125000D01*
X135985000Y-70385000D02*
X129445000Y-70385000D01*
X135985000Y-73125000D02*
X135985000Y-70385000D01*
G04 #@! TO.C,R14*
X160885000Y-76835000D02*
X160115000Y-76835000D01*
X152805000Y-76835000D02*
X153575000Y-76835000D01*
X160115000Y-75465000D02*
X153575000Y-75465000D01*
X160115000Y-78205000D02*
X160115000Y-75465000D01*
X153575000Y-78205000D02*
X160115000Y-78205000D01*
X153575000Y-75465000D02*
X153575000Y-78205000D01*
G04 #@! TO.C,R13*
X144780000Y-102005000D02*
X144780000Y-102775000D01*
X144780000Y-110085000D02*
X144780000Y-109315000D01*
X143410000Y-102775000D02*
X143410000Y-109315000D01*
X146150000Y-102775000D02*
X143410000Y-102775000D01*
X146150000Y-109315000D02*
X146150000Y-102775000D01*
X143410000Y-109315000D02*
X146150000Y-109315000D01*
G04 #@! TO.C,R12*
X168910000Y-79145000D02*
X168910000Y-79915000D01*
X168910000Y-87225000D02*
X168910000Y-86455000D01*
X167540000Y-79915000D02*
X167540000Y-86455000D01*
X170280000Y-79915000D02*
X167540000Y-79915000D01*
X170280000Y-86455000D02*
X170280000Y-79915000D01*
X167540000Y-86455000D02*
X170280000Y-86455000D01*
G04 #@! TO.C,R11*
X151535000Y-102235000D02*
X152305000Y-102235000D01*
X159615000Y-102235000D02*
X158845000Y-102235000D01*
X152305000Y-103605000D02*
X158845000Y-103605000D01*
X152305000Y-100865000D02*
X152305000Y-103605000D01*
X158845000Y-100865000D02*
X152305000Y-100865000D01*
X158845000Y-103605000D02*
X158845000Y-100865000D01*
G04 #@! TO.C,R10*
X159615000Y-111760000D02*
X158845000Y-111760000D01*
X151535000Y-111760000D02*
X152305000Y-111760000D01*
X158845000Y-110390000D02*
X152305000Y-110390000D01*
X158845000Y-113130000D02*
X158845000Y-110390000D01*
X152305000Y-113130000D02*
X158845000Y-113130000D01*
X152305000Y-110390000D02*
X152305000Y-113130000D01*
G04 #@! TO.C,R9*
X128675000Y-74930000D02*
X129445000Y-74930000D01*
X136755000Y-74930000D02*
X135985000Y-74930000D01*
X129445000Y-76300000D02*
X135985000Y-76300000D01*
X129445000Y-73560000D02*
X129445000Y-76300000D01*
X135985000Y-73560000D02*
X129445000Y-73560000D01*
X135985000Y-76300000D02*
X135985000Y-73560000D01*
G04 #@! TO.C,R8*
X160885000Y-83185000D02*
X160115000Y-83185000D01*
X152805000Y-83185000D02*
X153575000Y-83185000D01*
X160115000Y-81815000D02*
X153575000Y-81815000D01*
X160115000Y-84555000D02*
X160115000Y-81815000D01*
X153575000Y-84555000D02*
X160115000Y-84555000D01*
X153575000Y-81815000D02*
X153575000Y-84555000D01*
G04 #@! TO.C,R7*
X160885000Y-80010000D02*
X160115000Y-80010000D01*
X152805000Y-80010000D02*
X153575000Y-80010000D01*
X160115000Y-78640000D02*
X153575000Y-78640000D01*
X160115000Y-81380000D02*
X160115000Y-78640000D01*
X153575000Y-81380000D02*
X160115000Y-81380000D01*
X153575000Y-78640000D02*
X153575000Y-81380000D01*
G04 #@! TO.C,R6*
X151535000Y-108585000D02*
X152305000Y-108585000D01*
X159615000Y-108585000D02*
X158845000Y-108585000D01*
X152305000Y-109955000D02*
X158845000Y-109955000D01*
X152305000Y-107215000D02*
X152305000Y-109955000D01*
X158845000Y-107215000D02*
X152305000Y-107215000D01*
X158845000Y-109955000D02*
X158845000Y-107215000D01*
G04 #@! TO.C,R5*
X159615000Y-105410000D02*
X158845000Y-105410000D01*
X151535000Y-105410000D02*
X152305000Y-105410000D01*
X158845000Y-104040000D02*
X152305000Y-104040000D01*
X158845000Y-106780000D02*
X158845000Y-104040000D01*
X152305000Y-106780000D02*
X158845000Y-106780000D01*
X152305000Y-104040000D02*
X152305000Y-106780000D01*
G04 #@! TO.C,R4*
X175665000Y-114300000D02*
X176435000Y-114300000D01*
X183745000Y-114300000D02*
X182975000Y-114300000D01*
X176435000Y-115670000D02*
X182975000Y-115670000D01*
X176435000Y-112930000D02*
X176435000Y-115670000D01*
X182975000Y-112930000D02*
X176435000Y-112930000D01*
X182975000Y-115670000D02*
X182975000Y-112930000D01*
G04 #@! TO.C,R3*
X183745000Y-104775000D02*
X182975000Y-104775000D01*
X175665000Y-104775000D02*
X176435000Y-104775000D01*
X182975000Y-103405000D02*
X176435000Y-103405000D01*
X182975000Y-106145000D02*
X182975000Y-103405000D01*
X176435000Y-106145000D02*
X182975000Y-106145000D01*
X176435000Y-103405000D02*
X176435000Y-106145000D01*
G04 #@! TO.C,R2*
X183745000Y-111125000D02*
X182975000Y-111125000D01*
X175665000Y-111125000D02*
X176435000Y-111125000D01*
X182975000Y-109755000D02*
X176435000Y-109755000D01*
X182975000Y-112495000D02*
X182975000Y-109755000D01*
X176435000Y-112495000D02*
X182975000Y-112495000D01*
X176435000Y-109755000D02*
X176435000Y-112495000D01*
G04 #@! TO.C,R1*
X183745000Y-107950000D02*
X182975000Y-107950000D01*
X175665000Y-107950000D02*
X176435000Y-107950000D01*
X182975000Y-106580000D02*
X176435000Y-106580000D01*
X182975000Y-109320000D02*
X182975000Y-106580000D01*
X176435000Y-109320000D02*
X182975000Y-109320000D01*
X176435000Y-106580000D02*
X176435000Y-109320000D01*
G04 #@! TO.C,Q3*
X180135000Y-82585000D02*
X180135000Y-78735000D01*
X179547264Y-78342617D02*
G75*
G02*
X180135000Y-78735000I-1112264J-2302383D01*
G01*
X177345487Y-78308537D02*
G75*
G03*
X176085000Y-79585000I1089513J-2336463D01*
G01*
X177340214Y-82992775D02*
G75*
G02*
X176085000Y-81735000I1094786J2347775D01*
G01*
X179557045Y-82967631D02*
G75*
G03*
X180135000Y-82585000I-1122045J2322631D01*
G01*
G04 #@! TO.C,Q2*
X173150000Y-74965000D02*
X173150000Y-71115000D01*
X172562264Y-70722617D02*
G75*
G02*
X173150000Y-71115000I-1112264J-2302383D01*
G01*
X170360487Y-70688537D02*
G75*
G03*
X169100000Y-71965000I1089513J-2336463D01*
G01*
X170355214Y-75372775D02*
G75*
G02*
X169100000Y-74115000I1094786J2347775D01*
G01*
X172572045Y-75347631D02*
G75*
G03*
X173150000Y-74965000I-1122045J2322631D01*
G01*
G04 #@! TO.C,Q1*
X180135000Y-74965000D02*
X180135000Y-71115000D01*
X179547264Y-70722617D02*
G75*
G02*
X180135000Y-71115000I-1112264J-2302383D01*
G01*
X177345487Y-70688537D02*
G75*
G03*
X176085000Y-71965000I1089513J-2336463D01*
G01*
X177340214Y-75372775D02*
G75*
G02*
X176085000Y-74115000I1094786J2347775D01*
G01*
X179557045Y-75347631D02*
G75*
G03*
X180135000Y-74965000I-1122045J2322631D01*
G01*
G04 #@! TO.C,J4*
X164405000Y-125670000D02*
X165735000Y-125670000D01*
X164405000Y-127000000D02*
X164405000Y-125670000D01*
X164405000Y-128270000D02*
X167065000Y-128270000D01*
X167065000Y-128270000D02*
X167065000Y-130870000D01*
X164405000Y-128270000D02*
X164405000Y-130870000D01*
X164405000Y-130870000D02*
X167065000Y-130870000D01*
G04 #@! TO.C,J3*
X152710000Y-131020000D02*
X152710000Y-129770000D01*
X151460000Y-131020000D02*
X152710000Y-131020000D01*
X135560000Y-125520000D02*
X143610000Y-125520000D01*
X135560000Y-128470000D02*
X135560000Y-125520000D01*
X134810000Y-128470000D02*
X135560000Y-128470000D01*
X151660000Y-125520000D02*
X143610000Y-125520000D01*
X151660000Y-128470000D02*
X151660000Y-125520000D01*
X152410000Y-128470000D02*
X151660000Y-128470000D01*
X134810000Y-130720000D02*
X136610000Y-130720000D01*
X134810000Y-129970000D02*
X134810000Y-130720000D01*
X136610000Y-129970000D02*
X134810000Y-129970000D01*
X136610000Y-130720000D02*
X136610000Y-129970000D01*
X150610000Y-130720000D02*
X152410000Y-130720000D01*
X150610000Y-129970000D02*
X150610000Y-130720000D01*
X152410000Y-129970000D02*
X150610000Y-129970000D01*
X152410000Y-130720000D02*
X152410000Y-129970000D01*
X138110000Y-130720000D02*
X149110000Y-130720000D01*
X138110000Y-129970000D02*
X138110000Y-130720000D01*
X149110000Y-129970000D02*
X138110000Y-129970000D01*
X149110000Y-130720000D02*
X149110000Y-129970000D01*
X134800000Y-130730000D02*
X152420000Y-130730000D01*
X134800000Y-124760000D02*
X134800000Y-130730000D01*
X152420000Y-124760000D02*
X134800000Y-124760000D01*
X152420000Y-130730000D02*
X152420000Y-124760000D01*
G04 #@! TO.C,J2*
X144780000Y-92015000D02*
X146110000Y-92015000D01*
X146110000Y-92015000D02*
X146110000Y-93345000D01*
X146110000Y-94615000D02*
X146110000Y-97215000D01*
X143450000Y-97215000D02*
X146110000Y-97215000D01*
X143450000Y-94615000D02*
X143450000Y-97215000D01*
X143450000Y-94615000D02*
X146110000Y-94615000D01*
G04 #@! TO.C,J1*
X102000000Y-74160000D02*
X103000000Y-73660000D01*
X102000000Y-73160000D02*
X102000000Y-74160000D01*
X103000000Y-73660000D02*
X102000000Y-73160000D01*
X104700000Y-80790000D02*
X103390000Y-80790000D01*
X104700000Y-80790000D02*
X104700000Y-80790000D01*
X104700000Y-87730000D02*
X104700000Y-80790000D01*
X111200000Y-87730000D02*
X104700000Y-87730000D01*
X111200000Y-69750000D02*
X111200000Y-87730000D01*
X104700000Y-69750000D02*
X111200000Y-69750000D01*
X104700000Y-76690000D02*
X104700000Y-69750000D01*
X103390000Y-76690000D02*
X104700000Y-76690000D01*
X103390000Y-89030000D02*
X103390000Y-68450000D01*
X112510000Y-89030000D02*
X103390000Y-89030000D01*
X112510000Y-68450000D02*
X112510000Y-89030000D01*
X103390000Y-68450000D02*
X112510000Y-68450000D01*
G04 #@! TO.C,D2*
X117185000Y-67120000D02*
X117185000Y-67276000D01*
X117185000Y-64804000D02*
X117185000Y-64960000D01*
X119786130Y-67119837D02*
G75*
G02*
X117704039Y-67120000I-1041130J1079837D01*
G01*
X119786130Y-64960163D02*
G75*
G03*
X117704039Y-64960000I-1041130J-1079837D01*
G01*
X120417335Y-67118608D02*
G75*
G02*
X117185000Y-67275516I-1672335J1078608D01*
G01*
X120417335Y-64961392D02*
G75*
G03*
X117185000Y-64804484I-1672335J-1078608D01*
G01*
G04 #@! TO.C,D1*
X120305000Y-90360000D02*
X120305000Y-90204000D01*
X120305000Y-92676000D02*
X120305000Y-92520000D01*
X117703870Y-90360163D02*
G75*
G02*
X119785961Y-90360000I1041130J-1079837D01*
G01*
X117703870Y-92519837D02*
G75*
G03*
X119785961Y-92520000I1041130J1079837D01*
G01*
X117072665Y-90361392D02*
G75*
G02*
X120305000Y-90204484I1672335J-1078608D01*
G01*
X117072665Y-92518608D02*
G75*
G03*
X120305000Y-92675516I1672335J1078608D01*
G01*
G04 #@! TO.C,C17*
X113535000Y-96805000D02*
X113535000Y-100045000D01*
X106095000Y-96805000D02*
X106095000Y-100045000D01*
X106095000Y-100045000D02*
X113535000Y-100045000D01*
X106095000Y-96805000D02*
X113535000Y-96805000D01*
G04 #@! TO.C,C16*
X137665000Y-99345000D02*
X137665000Y-102585000D01*
X130225000Y-99345000D02*
X130225000Y-102585000D01*
X130225000Y-102585000D02*
X137665000Y-102585000D01*
X130225000Y-99345000D02*
X137665000Y-99345000D01*
G04 #@! TO.C,C15*
X153165000Y-88615000D02*
X153165000Y-85375000D01*
X160605000Y-88615000D02*
X160605000Y-85375000D01*
X160605000Y-85375000D02*
X153165000Y-85375000D01*
X160605000Y-88615000D02*
X153165000Y-88615000D01*
G04 #@! TO.C,C14*
X160525000Y-71405000D02*
X160525000Y-74645000D01*
X153085000Y-71405000D02*
X153085000Y-74645000D01*
X153085000Y-74645000D02*
X160525000Y-74645000D01*
X153085000Y-71405000D02*
X160525000Y-71405000D01*
G04 #@! TO.C,C13*
X159255000Y-96805000D02*
X159255000Y-100045000D01*
X151815000Y-96805000D02*
X151815000Y-100045000D01*
X151815000Y-100045000D02*
X159255000Y-100045000D01*
X151815000Y-96805000D02*
X159255000Y-96805000D01*
G04 #@! TO.C,C12*
X151895000Y-117190000D02*
X151895000Y-113950000D01*
X159335000Y-117190000D02*
X159335000Y-113950000D01*
X159335000Y-113950000D02*
X151895000Y-113950000D01*
X159335000Y-117190000D02*
X151895000Y-117190000D01*
G04 #@! TO.C,C11*
X151895000Y-121000000D02*
X151895000Y-117760000D01*
X159335000Y-121000000D02*
X159335000Y-117760000D01*
X159335000Y-117760000D02*
X151895000Y-117760000D01*
X159335000Y-121000000D02*
X151895000Y-121000000D01*
G04 #@! TO.C,C10*
X147969000Y-70835000D02*
X146711000Y-70835000D01*
X147969000Y-72675000D02*
X146711000Y-72675000D01*
G04 #@! TO.C,C9*
X125109000Y-98775000D02*
X123851000Y-98775000D01*
X125109000Y-100615000D02*
X123851000Y-100615000D01*
G04 #@! TO.C,C8*
X170829000Y-98775000D02*
X169571000Y-98775000D01*
X170829000Y-100615000D02*
X169571000Y-100615000D01*
G04 #@! TO.C,C7*
X116591000Y-78135241D02*
X117221000Y-78135241D01*
X116906000Y-78450241D02*
X116906000Y-77820241D01*
X118343000Y-71709000D02*
X119147000Y-71709000D01*
X118112000Y-71749000D02*
X119378000Y-71749000D01*
X117943000Y-71789000D02*
X119547000Y-71789000D01*
X117805000Y-71829000D02*
X119685000Y-71829000D01*
X117686000Y-71869000D02*
X119804000Y-71869000D01*
X117580000Y-71909000D02*
X119910000Y-71909000D01*
X117483000Y-71949000D02*
X120007000Y-71949000D01*
X117395000Y-71989000D02*
X120095000Y-71989000D01*
X117313000Y-72029000D02*
X120177000Y-72029000D01*
X117236000Y-72069000D02*
X120254000Y-72069000D01*
X117164000Y-72109000D02*
X120326000Y-72109000D01*
X117095000Y-72149000D02*
X120395000Y-72149000D01*
X117031000Y-72189000D02*
X120459000Y-72189000D01*
X116969000Y-72229000D02*
X120521000Y-72229000D01*
X116911000Y-72269000D02*
X120579000Y-72269000D01*
X116855000Y-72309000D02*
X120635000Y-72309000D01*
X116801000Y-72349000D02*
X120689000Y-72349000D01*
X116750000Y-72389000D02*
X120740000Y-72389000D01*
X116701000Y-72429000D02*
X120789000Y-72429000D01*
X116653000Y-72469000D02*
X120837000Y-72469000D01*
X116608000Y-72509000D02*
X120882000Y-72509000D01*
X116563000Y-72549000D02*
X120927000Y-72549000D01*
X116521000Y-72589000D02*
X120969000Y-72589000D01*
X116480000Y-72629000D02*
X121010000Y-72629000D01*
X119785000Y-72669000D02*
X121050000Y-72669000D01*
X116440000Y-72669000D02*
X117705000Y-72669000D01*
X119785000Y-72709000D02*
X121088000Y-72709000D01*
X116402000Y-72709000D02*
X117705000Y-72709000D01*
X119785000Y-72749000D02*
X121125000Y-72749000D01*
X116365000Y-72749000D02*
X117705000Y-72749000D01*
X119785000Y-72789000D02*
X121161000Y-72789000D01*
X116329000Y-72789000D02*
X117705000Y-72789000D01*
X119785000Y-72829000D02*
X121195000Y-72829000D01*
X116295000Y-72829000D02*
X117705000Y-72829000D01*
X119785000Y-72869000D02*
X121229000Y-72869000D01*
X116261000Y-72869000D02*
X117705000Y-72869000D01*
X119785000Y-72909000D02*
X121261000Y-72909000D01*
X116229000Y-72909000D02*
X117705000Y-72909000D01*
X119785000Y-72949000D02*
X121293000Y-72949000D01*
X116197000Y-72949000D02*
X117705000Y-72949000D01*
X119785000Y-72989000D02*
X121323000Y-72989000D01*
X116167000Y-72989000D02*
X117705000Y-72989000D01*
X119785000Y-73029000D02*
X121352000Y-73029000D01*
X116138000Y-73029000D02*
X117705000Y-73029000D01*
X119785000Y-73069000D02*
X121381000Y-73069000D01*
X116109000Y-73069000D02*
X117705000Y-73069000D01*
X119785000Y-73109000D02*
X121409000Y-73109000D01*
X116081000Y-73109000D02*
X117705000Y-73109000D01*
X119785000Y-73149000D02*
X121435000Y-73149000D01*
X116055000Y-73149000D02*
X117705000Y-73149000D01*
X119785000Y-73189000D02*
X121461000Y-73189000D01*
X116029000Y-73189000D02*
X117705000Y-73189000D01*
X119785000Y-73229000D02*
X121487000Y-73229000D01*
X116003000Y-73229000D02*
X117705000Y-73229000D01*
X119785000Y-73269000D02*
X121511000Y-73269000D01*
X115979000Y-73269000D02*
X117705000Y-73269000D01*
X119785000Y-73309000D02*
X121535000Y-73309000D01*
X115955000Y-73309000D02*
X117705000Y-73309000D01*
X119785000Y-73349000D02*
X121557000Y-73349000D01*
X115933000Y-73349000D02*
X117705000Y-73349000D01*
X119785000Y-73389000D02*
X121579000Y-73389000D01*
X115911000Y-73389000D02*
X117705000Y-73389000D01*
X119785000Y-73429000D02*
X121601000Y-73429000D01*
X115889000Y-73429000D02*
X117705000Y-73429000D01*
X119785000Y-73469000D02*
X121621000Y-73469000D01*
X115869000Y-73469000D02*
X117705000Y-73469000D01*
X119785000Y-73509000D02*
X121641000Y-73509000D01*
X115849000Y-73509000D02*
X117705000Y-73509000D01*
X119785000Y-73549000D02*
X121661000Y-73549000D01*
X115829000Y-73549000D02*
X117705000Y-73549000D01*
X119785000Y-73589000D02*
X121679000Y-73589000D01*
X115811000Y-73589000D02*
X117705000Y-73589000D01*
X119785000Y-73629000D02*
X121697000Y-73629000D01*
X115793000Y-73629000D02*
X117705000Y-73629000D01*
X119785000Y-73669000D02*
X121715000Y-73669000D01*
X115775000Y-73669000D02*
X117705000Y-73669000D01*
X119785000Y-73709000D02*
X121731000Y-73709000D01*
X115759000Y-73709000D02*
X117705000Y-73709000D01*
X119785000Y-73749000D02*
X121747000Y-73749000D01*
X115743000Y-73749000D02*
X117705000Y-73749000D01*
X119785000Y-73789000D02*
X121763000Y-73789000D01*
X115727000Y-73789000D02*
X117705000Y-73789000D01*
X119785000Y-73829000D02*
X121778000Y-73829000D01*
X115712000Y-73829000D02*
X117705000Y-73829000D01*
X119785000Y-73869000D02*
X121792000Y-73869000D01*
X115698000Y-73869000D02*
X117705000Y-73869000D01*
X119785000Y-73909000D02*
X121806000Y-73909000D01*
X115684000Y-73909000D02*
X117705000Y-73909000D01*
X119785000Y-73949000D02*
X121819000Y-73949000D01*
X115671000Y-73949000D02*
X117705000Y-73949000D01*
X119785000Y-73989000D02*
X121831000Y-73989000D01*
X115659000Y-73989000D02*
X117705000Y-73989000D01*
X119785000Y-74029000D02*
X121843000Y-74029000D01*
X115647000Y-74029000D02*
X117705000Y-74029000D01*
X119785000Y-74069000D02*
X121855000Y-74069000D01*
X115635000Y-74069000D02*
X117705000Y-74069000D01*
X119785000Y-74109000D02*
X121866000Y-74109000D01*
X115624000Y-74109000D02*
X117705000Y-74109000D01*
X119785000Y-74149000D02*
X121876000Y-74149000D01*
X115614000Y-74149000D02*
X117705000Y-74149000D01*
X119785000Y-74189000D02*
X121886000Y-74189000D01*
X115604000Y-74189000D02*
X117705000Y-74189000D01*
X119785000Y-74229000D02*
X121895000Y-74229000D01*
X115595000Y-74229000D02*
X117705000Y-74229000D01*
X119785000Y-74270000D02*
X121904000Y-74270000D01*
X115586000Y-74270000D02*
X117705000Y-74270000D01*
X119785000Y-74310000D02*
X121912000Y-74310000D01*
X115578000Y-74310000D02*
X117705000Y-74310000D01*
X119785000Y-74350000D02*
X121920000Y-74350000D01*
X115570000Y-74350000D02*
X117705000Y-74350000D01*
X119785000Y-74390000D02*
X121927000Y-74390000D01*
X115563000Y-74390000D02*
X117705000Y-74390000D01*
X119785000Y-74430000D02*
X121934000Y-74430000D01*
X115556000Y-74430000D02*
X117705000Y-74430000D01*
X119785000Y-74470000D02*
X121940000Y-74470000D01*
X115550000Y-74470000D02*
X117705000Y-74470000D01*
X119785000Y-74510000D02*
X121946000Y-74510000D01*
X115544000Y-74510000D02*
X117705000Y-74510000D01*
X119785000Y-74550000D02*
X121951000Y-74550000D01*
X115539000Y-74550000D02*
X117705000Y-74550000D01*
X119785000Y-74590000D02*
X121956000Y-74590000D01*
X115534000Y-74590000D02*
X117705000Y-74590000D01*
X119785000Y-74630000D02*
X121960000Y-74630000D01*
X115530000Y-74630000D02*
X117705000Y-74630000D01*
X119785000Y-74670000D02*
X121963000Y-74670000D01*
X115527000Y-74670000D02*
X117705000Y-74670000D01*
X119785000Y-74710000D02*
X121967000Y-74710000D01*
X115523000Y-74710000D02*
X117705000Y-74710000D01*
X115521000Y-74750000D02*
X121969000Y-74750000D01*
X115518000Y-74790000D02*
X121972000Y-74790000D01*
X115517000Y-74830000D02*
X121973000Y-74830000D01*
X115515000Y-74870000D02*
X121975000Y-74870000D01*
X115515000Y-74910000D02*
X121975000Y-74910000D01*
X115515000Y-74950000D02*
X121975000Y-74950000D01*
X122015000Y-74950000D02*
G75*
G03*
X122015000Y-74950000I-3270000J0D01*
G01*
G04 #@! TO.C,C5*
X183385000Y-95535000D02*
X183385000Y-98775000D01*
X175945000Y-95535000D02*
X175945000Y-98775000D01*
X175945000Y-98775000D02*
X183385000Y-98775000D01*
X175945000Y-95535000D02*
X183385000Y-95535000D01*
G04 #@! TO.C,C4*
X119989000Y-112745000D02*
X118731000Y-112745000D01*
X119989000Y-114585000D02*
X118731000Y-114585000D01*
G04 #@! TO.C,C3*
X142849000Y-84805000D02*
X141591000Y-84805000D01*
X142849000Y-86645000D02*
X141591000Y-86645000D01*
G04 #@! TO.C,C2*
X165749000Y-112745000D02*
X164491000Y-112745000D01*
X165749000Y-114585000D02*
X164491000Y-114585000D01*
G04 #@! TO.C,C1*
X116591000Y-85755241D02*
X117221000Y-85755241D01*
X116906000Y-86070241D02*
X116906000Y-85440241D01*
X118343000Y-79329000D02*
X119147000Y-79329000D01*
X118112000Y-79369000D02*
X119378000Y-79369000D01*
X117943000Y-79409000D02*
X119547000Y-79409000D01*
X117805000Y-79449000D02*
X119685000Y-79449000D01*
X117686000Y-79489000D02*
X119804000Y-79489000D01*
X117580000Y-79529000D02*
X119910000Y-79529000D01*
X117483000Y-79569000D02*
X120007000Y-79569000D01*
X117395000Y-79609000D02*
X120095000Y-79609000D01*
X117313000Y-79649000D02*
X120177000Y-79649000D01*
X117236000Y-79689000D02*
X120254000Y-79689000D01*
X117164000Y-79729000D02*
X120326000Y-79729000D01*
X117095000Y-79769000D02*
X120395000Y-79769000D01*
X117031000Y-79809000D02*
X120459000Y-79809000D01*
X116969000Y-79849000D02*
X120521000Y-79849000D01*
X116911000Y-79889000D02*
X120579000Y-79889000D01*
X116855000Y-79929000D02*
X120635000Y-79929000D01*
X116801000Y-79969000D02*
X120689000Y-79969000D01*
X116750000Y-80009000D02*
X120740000Y-80009000D01*
X116701000Y-80049000D02*
X120789000Y-80049000D01*
X116653000Y-80089000D02*
X120837000Y-80089000D01*
X116608000Y-80129000D02*
X120882000Y-80129000D01*
X116563000Y-80169000D02*
X120927000Y-80169000D01*
X116521000Y-80209000D02*
X120969000Y-80209000D01*
X116480000Y-80249000D02*
X121010000Y-80249000D01*
X119785000Y-80289000D02*
X121050000Y-80289000D01*
X116440000Y-80289000D02*
X117705000Y-80289000D01*
X119785000Y-80329000D02*
X121088000Y-80329000D01*
X116402000Y-80329000D02*
X117705000Y-80329000D01*
X119785000Y-80369000D02*
X121125000Y-80369000D01*
X116365000Y-80369000D02*
X117705000Y-80369000D01*
X119785000Y-80409000D02*
X121161000Y-80409000D01*
X116329000Y-80409000D02*
X117705000Y-80409000D01*
X119785000Y-80449000D02*
X121195000Y-80449000D01*
X116295000Y-80449000D02*
X117705000Y-80449000D01*
X119785000Y-80489000D02*
X121229000Y-80489000D01*
X116261000Y-80489000D02*
X117705000Y-80489000D01*
X119785000Y-80529000D02*
X121261000Y-80529000D01*
X116229000Y-80529000D02*
X117705000Y-80529000D01*
X119785000Y-80569000D02*
X121293000Y-80569000D01*
X116197000Y-80569000D02*
X117705000Y-80569000D01*
X119785000Y-80609000D02*
X121323000Y-80609000D01*
X116167000Y-80609000D02*
X117705000Y-80609000D01*
X119785000Y-80649000D02*
X121352000Y-80649000D01*
X116138000Y-80649000D02*
X117705000Y-80649000D01*
X119785000Y-80689000D02*
X121381000Y-80689000D01*
X116109000Y-80689000D02*
X117705000Y-80689000D01*
X119785000Y-80729000D02*
X121409000Y-80729000D01*
X116081000Y-80729000D02*
X117705000Y-80729000D01*
X119785000Y-80769000D02*
X121435000Y-80769000D01*
X116055000Y-80769000D02*
X117705000Y-80769000D01*
X119785000Y-80809000D02*
X121461000Y-80809000D01*
X116029000Y-80809000D02*
X117705000Y-80809000D01*
X119785000Y-80849000D02*
X121487000Y-80849000D01*
X116003000Y-80849000D02*
X117705000Y-80849000D01*
X119785000Y-80889000D02*
X121511000Y-80889000D01*
X115979000Y-80889000D02*
X117705000Y-80889000D01*
X119785000Y-80929000D02*
X121535000Y-80929000D01*
X115955000Y-80929000D02*
X117705000Y-80929000D01*
X119785000Y-80969000D02*
X121557000Y-80969000D01*
X115933000Y-80969000D02*
X117705000Y-80969000D01*
X119785000Y-81009000D02*
X121579000Y-81009000D01*
X115911000Y-81009000D02*
X117705000Y-81009000D01*
X119785000Y-81049000D02*
X121601000Y-81049000D01*
X115889000Y-81049000D02*
X117705000Y-81049000D01*
X119785000Y-81089000D02*
X121621000Y-81089000D01*
X115869000Y-81089000D02*
X117705000Y-81089000D01*
X119785000Y-81129000D02*
X121641000Y-81129000D01*
X115849000Y-81129000D02*
X117705000Y-81129000D01*
X119785000Y-81169000D02*
X121661000Y-81169000D01*
X115829000Y-81169000D02*
X117705000Y-81169000D01*
X119785000Y-81209000D02*
X121679000Y-81209000D01*
X115811000Y-81209000D02*
X117705000Y-81209000D01*
X119785000Y-81249000D02*
X121697000Y-81249000D01*
X115793000Y-81249000D02*
X117705000Y-81249000D01*
X119785000Y-81289000D02*
X121715000Y-81289000D01*
X115775000Y-81289000D02*
X117705000Y-81289000D01*
X119785000Y-81329000D02*
X121731000Y-81329000D01*
X115759000Y-81329000D02*
X117705000Y-81329000D01*
X119785000Y-81369000D02*
X121747000Y-81369000D01*
X115743000Y-81369000D02*
X117705000Y-81369000D01*
X119785000Y-81409000D02*
X121763000Y-81409000D01*
X115727000Y-81409000D02*
X117705000Y-81409000D01*
X119785000Y-81449000D02*
X121778000Y-81449000D01*
X115712000Y-81449000D02*
X117705000Y-81449000D01*
X119785000Y-81489000D02*
X121792000Y-81489000D01*
X115698000Y-81489000D02*
X117705000Y-81489000D01*
X119785000Y-81529000D02*
X121806000Y-81529000D01*
X115684000Y-81529000D02*
X117705000Y-81529000D01*
X119785000Y-81569000D02*
X121819000Y-81569000D01*
X115671000Y-81569000D02*
X117705000Y-81569000D01*
X119785000Y-81609000D02*
X121831000Y-81609000D01*
X115659000Y-81609000D02*
X117705000Y-81609000D01*
X119785000Y-81649000D02*
X121843000Y-81649000D01*
X115647000Y-81649000D02*
X117705000Y-81649000D01*
X119785000Y-81689000D02*
X121855000Y-81689000D01*
X115635000Y-81689000D02*
X117705000Y-81689000D01*
X119785000Y-81729000D02*
X121866000Y-81729000D01*
X115624000Y-81729000D02*
X117705000Y-81729000D01*
X119785000Y-81769000D02*
X121876000Y-81769000D01*
X115614000Y-81769000D02*
X117705000Y-81769000D01*
X119785000Y-81809000D02*
X121886000Y-81809000D01*
X115604000Y-81809000D02*
X117705000Y-81809000D01*
X119785000Y-81849000D02*
X121895000Y-81849000D01*
X115595000Y-81849000D02*
X117705000Y-81849000D01*
X119785000Y-81890000D02*
X121904000Y-81890000D01*
X115586000Y-81890000D02*
X117705000Y-81890000D01*
X119785000Y-81930000D02*
X121912000Y-81930000D01*
X115578000Y-81930000D02*
X117705000Y-81930000D01*
X119785000Y-81970000D02*
X121920000Y-81970000D01*
X115570000Y-81970000D02*
X117705000Y-81970000D01*
X119785000Y-82010000D02*
X121927000Y-82010000D01*
X115563000Y-82010000D02*
X117705000Y-82010000D01*
X119785000Y-82050000D02*
X121934000Y-82050000D01*
X115556000Y-82050000D02*
X117705000Y-82050000D01*
X119785000Y-82090000D02*
X121940000Y-82090000D01*
X115550000Y-82090000D02*
X117705000Y-82090000D01*
X119785000Y-82130000D02*
X121946000Y-82130000D01*
X115544000Y-82130000D02*
X117705000Y-82130000D01*
X119785000Y-82170000D02*
X121951000Y-82170000D01*
X115539000Y-82170000D02*
X117705000Y-82170000D01*
X119785000Y-82210000D02*
X121956000Y-82210000D01*
X115534000Y-82210000D02*
X117705000Y-82210000D01*
X119785000Y-82250000D02*
X121960000Y-82250000D01*
X115530000Y-82250000D02*
X117705000Y-82250000D01*
X119785000Y-82290000D02*
X121963000Y-82290000D01*
X115527000Y-82290000D02*
X117705000Y-82290000D01*
X119785000Y-82330000D02*
X121967000Y-82330000D01*
X115523000Y-82330000D02*
X117705000Y-82330000D01*
X115521000Y-82370000D02*
X121969000Y-82370000D01*
X115518000Y-82410000D02*
X121972000Y-82410000D01*
X115517000Y-82450000D02*
X121973000Y-82450000D01*
X115515000Y-82490000D02*
X121975000Y-82490000D01*
X115515000Y-82530000D02*
X121975000Y-82530000D01*
X115515000Y-82570000D02*
X121975000Y-82570000D01*
X122015000Y-82570000D02*
G75*
G03*
X122015000Y-82570000I-3270000J0D01*
G01*
G04 #@! TO.C,U3*
D10*
X117348095Y-99782380D02*
X117348095Y-100591904D01*
X117395714Y-100687142D01*
X117443333Y-100734761D01*
X117538571Y-100782380D01*
X117729047Y-100782380D01*
X117824285Y-100734761D01*
X117871904Y-100687142D01*
X117919523Y-100591904D01*
X117919523Y-99782380D01*
X118300476Y-99782380D02*
X118919523Y-99782380D01*
X118586190Y-100163333D01*
X118729047Y-100163333D01*
X118824285Y-100210952D01*
X118871904Y-100258571D01*
X118919523Y-100353809D01*
X118919523Y-100591904D01*
X118871904Y-100687142D01*
X118824285Y-100734761D01*
X118729047Y-100782380D01*
X118443333Y-100782380D01*
X118348095Y-100734761D01*
X118300476Y-100687142D01*
G04 #@! TO.C,U2*
X140208095Y-71842380D02*
X140208095Y-72651904D01*
X140255714Y-72747142D01*
X140303333Y-72794761D01*
X140398571Y-72842380D01*
X140589047Y-72842380D01*
X140684285Y-72794761D01*
X140731904Y-72747142D01*
X140779523Y-72651904D01*
X140779523Y-71842380D01*
X141208095Y-71937619D02*
X141255714Y-71890000D01*
X141350952Y-71842380D01*
X141589047Y-71842380D01*
X141684285Y-71890000D01*
X141731904Y-71937619D01*
X141779523Y-72032857D01*
X141779523Y-72128095D01*
X141731904Y-72270952D01*
X141160476Y-72842380D01*
X141779523Y-72842380D01*
G04 #@! TO.C,J5*
X163496666Y-59987380D02*
X163496666Y-60701666D01*
X163449047Y-60844523D01*
X163353809Y-60939761D01*
X163210952Y-60987380D01*
X163115714Y-60987380D01*
X164449047Y-59987380D02*
X163972857Y-59987380D01*
X163925238Y-60463571D01*
X163972857Y-60415952D01*
X164068095Y-60368333D01*
X164306190Y-60368333D01*
X164401428Y-60415952D01*
X164449047Y-60463571D01*
X164496666Y-60558809D01*
X164496666Y-60796904D01*
X164449047Y-60892142D01*
X164401428Y-60939761D01*
X164306190Y-60987380D01*
X164068095Y-60987380D01*
X163972857Y-60939761D01*
X163925238Y-60892142D01*
G04 #@! TO.C,C6*
X184618333Y-101322142D02*
X184570714Y-101369761D01*
X184427857Y-101417380D01*
X184332619Y-101417380D01*
X184189761Y-101369761D01*
X184094523Y-101274523D01*
X184046904Y-101179285D01*
X183999285Y-100988809D01*
X183999285Y-100845952D01*
X184046904Y-100655476D01*
X184094523Y-100560238D01*
X184189761Y-100465000D01*
X184332619Y-100417380D01*
X184427857Y-100417380D01*
X184570714Y-100465000D01*
X184618333Y-100512619D01*
X185475476Y-100417380D02*
X185285000Y-100417380D01*
X185189761Y-100465000D01*
X185142142Y-100512619D01*
X185046904Y-100655476D01*
X184999285Y-100845952D01*
X184999285Y-101226904D01*
X185046904Y-101322142D01*
X185094523Y-101369761D01*
X185189761Y-101417380D01*
X185380238Y-101417380D01*
X185475476Y-101369761D01*
X185523095Y-101322142D01*
X185570714Y-101226904D01*
X185570714Y-100988809D01*
X185523095Y-100893571D01*
X185475476Y-100845952D01*
X185380238Y-100798333D01*
X185189761Y-100798333D01*
X185094523Y-100845952D01*
X185046904Y-100893571D01*
X184999285Y-100988809D01*
G04 #@! TO.C,U1*
X163068095Y-99782380D02*
X163068095Y-100591904D01*
X163115714Y-100687142D01*
X163163333Y-100734761D01*
X163258571Y-100782380D01*
X163449047Y-100782380D01*
X163544285Y-100734761D01*
X163591904Y-100687142D01*
X163639523Y-100591904D01*
X163639523Y-99782380D01*
X164639523Y-100782380D02*
X164068095Y-100782380D01*
X164353809Y-100782380D02*
X164353809Y-99782380D01*
X164258571Y-99925238D01*
X164163333Y-100020476D01*
X164068095Y-100068095D01*
G04 #@! TO.C,RV1*
X129579761Y-86177380D02*
X129246428Y-85701190D01*
X129008333Y-86177380D02*
X129008333Y-85177380D01*
X129389285Y-85177380D01*
X129484523Y-85225000D01*
X129532142Y-85272619D01*
X129579761Y-85367857D01*
X129579761Y-85510714D01*
X129532142Y-85605952D01*
X129484523Y-85653571D01*
X129389285Y-85701190D01*
X129008333Y-85701190D01*
X129865476Y-85177380D02*
X130198809Y-86177380D01*
X130532142Y-85177380D01*
X131389285Y-86177380D02*
X130817857Y-86177380D01*
X131103571Y-86177380D02*
X131103571Y-85177380D01*
X131008333Y-85320238D01*
X130913095Y-85415476D01*
X130817857Y-85463095D01*
G04 #@! TO.C,R25*
X101592142Y-102687380D02*
X101258809Y-102211190D01*
X101020714Y-102687380D02*
X101020714Y-101687380D01*
X101401666Y-101687380D01*
X101496904Y-101735000D01*
X101544523Y-101782619D01*
X101592142Y-101877857D01*
X101592142Y-102020714D01*
X101544523Y-102115952D01*
X101496904Y-102163571D01*
X101401666Y-102211190D01*
X101020714Y-102211190D01*
X101973095Y-101782619D02*
X102020714Y-101735000D01*
X102115952Y-101687380D01*
X102354047Y-101687380D01*
X102449285Y-101735000D01*
X102496904Y-101782619D01*
X102544523Y-101877857D01*
X102544523Y-101973095D01*
X102496904Y-102115952D01*
X101925476Y-102687380D01*
X102544523Y-102687380D01*
X103449285Y-101687380D02*
X102973095Y-101687380D01*
X102925476Y-102163571D01*
X102973095Y-102115952D01*
X103068333Y-102068333D01*
X103306428Y-102068333D01*
X103401666Y-102115952D01*
X103449285Y-102163571D01*
X103496904Y-102258809D01*
X103496904Y-102496904D01*
X103449285Y-102592142D01*
X103401666Y-102639761D01*
X103306428Y-102687380D01*
X103068333Y-102687380D01*
X102973095Y-102639761D01*
X102925476Y-102592142D01*
G04 #@! TO.C,R24*
X101592142Y-112212380D02*
X101258809Y-111736190D01*
X101020714Y-112212380D02*
X101020714Y-111212380D01*
X101401666Y-111212380D01*
X101496904Y-111260000D01*
X101544523Y-111307619D01*
X101592142Y-111402857D01*
X101592142Y-111545714D01*
X101544523Y-111640952D01*
X101496904Y-111688571D01*
X101401666Y-111736190D01*
X101020714Y-111736190D01*
X101973095Y-111307619D02*
X102020714Y-111260000D01*
X102115952Y-111212380D01*
X102354047Y-111212380D01*
X102449285Y-111260000D01*
X102496904Y-111307619D01*
X102544523Y-111402857D01*
X102544523Y-111498095D01*
X102496904Y-111640952D01*
X101925476Y-112212380D01*
X102544523Y-112212380D01*
X103401666Y-111545714D02*
X103401666Y-112212380D01*
X103163571Y-111164761D02*
X102925476Y-111879047D01*
X103544523Y-111879047D01*
G04 #@! TO.C,R23*
X101592142Y-109037380D02*
X101258809Y-108561190D01*
X101020714Y-109037380D02*
X101020714Y-108037380D01*
X101401666Y-108037380D01*
X101496904Y-108085000D01*
X101544523Y-108132619D01*
X101592142Y-108227857D01*
X101592142Y-108370714D01*
X101544523Y-108465952D01*
X101496904Y-108513571D01*
X101401666Y-108561190D01*
X101020714Y-108561190D01*
X101973095Y-108132619D02*
X102020714Y-108085000D01*
X102115952Y-108037380D01*
X102354047Y-108037380D01*
X102449285Y-108085000D01*
X102496904Y-108132619D01*
X102544523Y-108227857D01*
X102544523Y-108323095D01*
X102496904Y-108465952D01*
X101925476Y-109037380D01*
X102544523Y-109037380D01*
X102877857Y-108037380D02*
X103496904Y-108037380D01*
X103163571Y-108418333D01*
X103306428Y-108418333D01*
X103401666Y-108465952D01*
X103449285Y-108513571D01*
X103496904Y-108608809D01*
X103496904Y-108846904D01*
X103449285Y-108942142D01*
X103401666Y-108989761D01*
X103306428Y-109037380D01*
X103020714Y-109037380D01*
X102925476Y-108989761D01*
X102877857Y-108942142D01*
G04 #@! TO.C,R22*
X101592142Y-105862380D02*
X101258809Y-105386190D01*
X101020714Y-105862380D02*
X101020714Y-104862380D01*
X101401666Y-104862380D01*
X101496904Y-104910000D01*
X101544523Y-104957619D01*
X101592142Y-105052857D01*
X101592142Y-105195714D01*
X101544523Y-105290952D01*
X101496904Y-105338571D01*
X101401666Y-105386190D01*
X101020714Y-105386190D01*
X101973095Y-104957619D02*
X102020714Y-104910000D01*
X102115952Y-104862380D01*
X102354047Y-104862380D01*
X102449285Y-104910000D01*
X102496904Y-104957619D01*
X102544523Y-105052857D01*
X102544523Y-105148095D01*
X102496904Y-105290952D01*
X101925476Y-105862380D01*
X102544523Y-105862380D01*
X102925476Y-104957619D02*
X102973095Y-104910000D01*
X103068333Y-104862380D01*
X103306428Y-104862380D01*
X103401666Y-104910000D01*
X103449285Y-104957619D01*
X103496904Y-105052857D01*
X103496904Y-105148095D01*
X103449285Y-105290952D01*
X102877857Y-105862380D01*
X103496904Y-105862380D01*
G04 #@! TO.C,R21*
X107307142Y-63952380D02*
X106973809Y-63476190D01*
X106735714Y-63952380D02*
X106735714Y-62952380D01*
X107116666Y-62952380D01*
X107211904Y-63000000D01*
X107259523Y-63047619D01*
X107307142Y-63142857D01*
X107307142Y-63285714D01*
X107259523Y-63380952D01*
X107211904Y-63428571D01*
X107116666Y-63476190D01*
X106735714Y-63476190D01*
X107688095Y-63047619D02*
X107735714Y-63000000D01*
X107830952Y-62952380D01*
X108069047Y-62952380D01*
X108164285Y-63000000D01*
X108211904Y-63047619D01*
X108259523Y-63142857D01*
X108259523Y-63238095D01*
X108211904Y-63380952D01*
X107640476Y-63952380D01*
X108259523Y-63952380D01*
X109211904Y-63952380D02*
X108640476Y-63952380D01*
X108926190Y-63952380D02*
X108926190Y-62952380D01*
X108830952Y-63095238D01*
X108735714Y-63190476D01*
X108640476Y-63238095D01*
G04 #@! TO.C,R20*
X107307142Y-94432380D02*
X106973809Y-93956190D01*
X106735714Y-94432380D02*
X106735714Y-93432380D01*
X107116666Y-93432380D01*
X107211904Y-93480000D01*
X107259523Y-93527619D01*
X107307142Y-93622857D01*
X107307142Y-93765714D01*
X107259523Y-93860952D01*
X107211904Y-93908571D01*
X107116666Y-93956190D01*
X106735714Y-93956190D01*
X107688095Y-93527619D02*
X107735714Y-93480000D01*
X107830952Y-93432380D01*
X108069047Y-93432380D01*
X108164285Y-93480000D01*
X108211904Y-93527619D01*
X108259523Y-93622857D01*
X108259523Y-93718095D01*
X108211904Y-93860952D01*
X107640476Y-94432380D01*
X108259523Y-94432380D01*
X108878571Y-93432380D02*
X108973809Y-93432380D01*
X109069047Y-93480000D01*
X109116666Y-93527619D01*
X109164285Y-93622857D01*
X109211904Y-93813333D01*
X109211904Y-94051428D01*
X109164285Y-94241904D01*
X109116666Y-94337142D01*
X109069047Y-94384761D01*
X108973809Y-94432380D01*
X108878571Y-94432380D01*
X108783333Y-94384761D01*
X108735714Y-94337142D01*
X108688095Y-94241904D01*
X108640476Y-94051428D01*
X108640476Y-93813333D01*
X108688095Y-93622857D01*
X108735714Y-93527619D01*
X108783333Y-93480000D01*
X108878571Y-93432380D01*
G04 #@! TO.C,R19*
X140962142Y-105227380D02*
X140628809Y-104751190D01*
X140390714Y-105227380D02*
X140390714Y-104227380D01*
X140771666Y-104227380D01*
X140866904Y-104275000D01*
X140914523Y-104322619D01*
X140962142Y-104417857D01*
X140962142Y-104560714D01*
X140914523Y-104655952D01*
X140866904Y-104703571D01*
X140771666Y-104751190D01*
X140390714Y-104751190D01*
X141914523Y-105227380D02*
X141343095Y-105227380D01*
X141628809Y-105227380D02*
X141628809Y-104227380D01*
X141533571Y-104370238D01*
X141438333Y-104465476D01*
X141343095Y-104513095D01*
X142390714Y-105227380D02*
X142581190Y-105227380D01*
X142676428Y-105179761D01*
X142724047Y-105132142D01*
X142819285Y-104989285D01*
X142866904Y-104798809D01*
X142866904Y-104417857D01*
X142819285Y-104322619D01*
X142771666Y-104275000D01*
X142676428Y-104227380D01*
X142485952Y-104227380D01*
X142390714Y-104275000D01*
X142343095Y-104322619D01*
X142295476Y-104417857D01*
X142295476Y-104655952D01*
X142343095Y-104751190D01*
X142390714Y-104798809D01*
X142485952Y-104846428D01*
X142676428Y-104846428D01*
X142771666Y-104798809D01*
X142819285Y-104751190D01*
X142866904Y-104655952D01*
G04 #@! TO.C,R18*
X140962142Y-114752380D02*
X140628809Y-114276190D01*
X140390714Y-114752380D02*
X140390714Y-113752380D01*
X140771666Y-113752380D01*
X140866904Y-113800000D01*
X140914523Y-113847619D01*
X140962142Y-113942857D01*
X140962142Y-114085714D01*
X140914523Y-114180952D01*
X140866904Y-114228571D01*
X140771666Y-114276190D01*
X140390714Y-114276190D01*
X141914523Y-114752380D02*
X141343095Y-114752380D01*
X141628809Y-114752380D02*
X141628809Y-113752380D01*
X141533571Y-113895238D01*
X141438333Y-113990476D01*
X141343095Y-114038095D01*
X142485952Y-114180952D02*
X142390714Y-114133333D01*
X142343095Y-114085714D01*
X142295476Y-113990476D01*
X142295476Y-113942857D01*
X142343095Y-113847619D01*
X142390714Y-113800000D01*
X142485952Y-113752380D01*
X142676428Y-113752380D01*
X142771666Y-113800000D01*
X142819285Y-113847619D01*
X142866904Y-113942857D01*
X142866904Y-113990476D01*
X142819285Y-114085714D01*
X142771666Y-114133333D01*
X142676428Y-114180952D01*
X142485952Y-114180952D01*
X142390714Y-114228571D01*
X142343095Y-114276190D01*
X142295476Y-114371428D01*
X142295476Y-114561904D01*
X142343095Y-114657142D01*
X142390714Y-114704761D01*
X142485952Y-114752380D01*
X142676428Y-114752380D01*
X142771666Y-114704761D01*
X142819285Y-114657142D01*
X142866904Y-114561904D01*
X142866904Y-114371428D01*
X142819285Y-114276190D01*
X142771666Y-114228571D01*
X142676428Y-114180952D01*
G04 #@! TO.C,R17*
X140962142Y-111577380D02*
X140628809Y-111101190D01*
X140390714Y-111577380D02*
X140390714Y-110577380D01*
X140771666Y-110577380D01*
X140866904Y-110625000D01*
X140914523Y-110672619D01*
X140962142Y-110767857D01*
X140962142Y-110910714D01*
X140914523Y-111005952D01*
X140866904Y-111053571D01*
X140771666Y-111101190D01*
X140390714Y-111101190D01*
X141914523Y-111577380D02*
X141343095Y-111577380D01*
X141628809Y-111577380D02*
X141628809Y-110577380D01*
X141533571Y-110720238D01*
X141438333Y-110815476D01*
X141343095Y-110863095D01*
X142247857Y-110577380D02*
X142914523Y-110577380D01*
X142485952Y-111577380D01*
G04 #@! TO.C,R16*
X140962142Y-108402380D02*
X140628809Y-107926190D01*
X140390714Y-108402380D02*
X140390714Y-107402380D01*
X140771666Y-107402380D01*
X140866904Y-107450000D01*
X140914523Y-107497619D01*
X140962142Y-107592857D01*
X140962142Y-107735714D01*
X140914523Y-107830952D01*
X140866904Y-107878571D01*
X140771666Y-107926190D01*
X140390714Y-107926190D01*
X141914523Y-108402380D02*
X141343095Y-108402380D01*
X141628809Y-108402380D02*
X141628809Y-107402380D01*
X141533571Y-107545238D01*
X141438333Y-107640476D01*
X141343095Y-107688095D01*
X142771666Y-107402380D02*
X142581190Y-107402380D01*
X142485952Y-107450000D01*
X142438333Y-107497619D01*
X142343095Y-107640476D01*
X142295476Y-107830952D01*
X142295476Y-108211904D01*
X142343095Y-108307142D01*
X142390714Y-108354761D01*
X142485952Y-108402380D01*
X142676428Y-108402380D01*
X142771666Y-108354761D01*
X142819285Y-108307142D01*
X142866904Y-108211904D01*
X142866904Y-107973809D01*
X142819285Y-107878571D01*
X142771666Y-107830952D01*
X142676428Y-107783333D01*
X142485952Y-107783333D01*
X142390714Y-107830952D01*
X142343095Y-107878571D01*
X142295476Y-107973809D01*
G04 #@! TO.C,R15*
X124452142Y-72207380D02*
X124118809Y-71731190D01*
X123880714Y-72207380D02*
X123880714Y-71207380D01*
X124261666Y-71207380D01*
X124356904Y-71255000D01*
X124404523Y-71302619D01*
X124452142Y-71397857D01*
X124452142Y-71540714D01*
X124404523Y-71635952D01*
X124356904Y-71683571D01*
X124261666Y-71731190D01*
X123880714Y-71731190D01*
X125404523Y-72207380D02*
X124833095Y-72207380D01*
X125118809Y-72207380D02*
X125118809Y-71207380D01*
X125023571Y-71350238D01*
X124928333Y-71445476D01*
X124833095Y-71493095D01*
X126309285Y-71207380D02*
X125833095Y-71207380D01*
X125785476Y-71683571D01*
X125833095Y-71635952D01*
X125928333Y-71588333D01*
X126166428Y-71588333D01*
X126261666Y-71635952D01*
X126309285Y-71683571D01*
X126356904Y-71778809D01*
X126356904Y-72016904D01*
X126309285Y-72112142D01*
X126261666Y-72159761D01*
X126166428Y-72207380D01*
X125928333Y-72207380D01*
X125833095Y-72159761D01*
X125785476Y-72112142D01*
G04 #@! TO.C,R14*
X163822142Y-77287380D02*
X163488809Y-76811190D01*
X163250714Y-77287380D02*
X163250714Y-76287380D01*
X163631666Y-76287380D01*
X163726904Y-76335000D01*
X163774523Y-76382619D01*
X163822142Y-76477857D01*
X163822142Y-76620714D01*
X163774523Y-76715952D01*
X163726904Y-76763571D01*
X163631666Y-76811190D01*
X163250714Y-76811190D01*
X164774523Y-77287380D02*
X164203095Y-77287380D01*
X164488809Y-77287380D02*
X164488809Y-76287380D01*
X164393571Y-76430238D01*
X164298333Y-76525476D01*
X164203095Y-76573095D01*
X165631666Y-76620714D02*
X165631666Y-77287380D01*
X165393571Y-76239761D02*
X165155476Y-76954047D01*
X165774523Y-76954047D01*
G04 #@! TO.C,R13*
X145232380Y-114942857D02*
X144756190Y-115276190D01*
X145232380Y-115514285D02*
X144232380Y-115514285D01*
X144232380Y-115133333D01*
X144280000Y-115038095D01*
X144327619Y-114990476D01*
X144422857Y-114942857D01*
X144565714Y-114942857D01*
X144660952Y-114990476D01*
X144708571Y-115038095D01*
X144756190Y-115133333D01*
X144756190Y-115514285D01*
X145232380Y-113990476D02*
X145232380Y-114561904D01*
X145232380Y-114276190D02*
X144232380Y-114276190D01*
X144375238Y-114371428D01*
X144470476Y-114466666D01*
X144518095Y-114561904D01*
X144232380Y-113657142D02*
X144232380Y-113038095D01*
X144613333Y-113371428D01*
X144613333Y-113228571D01*
X144660952Y-113133333D01*
X144708571Y-113085714D01*
X144803809Y-113038095D01*
X145041904Y-113038095D01*
X145137142Y-113085714D01*
X145184761Y-113133333D01*
X145232380Y-113228571D01*
X145232380Y-113514285D01*
X145184761Y-113609523D01*
X145137142Y-113657142D01*
G04 #@! TO.C,R12*
X171902380Y-83827857D02*
X171426190Y-84161190D01*
X171902380Y-84399285D02*
X170902380Y-84399285D01*
X170902380Y-84018333D01*
X170950000Y-83923095D01*
X170997619Y-83875476D01*
X171092857Y-83827857D01*
X171235714Y-83827857D01*
X171330952Y-83875476D01*
X171378571Y-83923095D01*
X171426190Y-84018333D01*
X171426190Y-84399285D01*
X171902380Y-82875476D02*
X171902380Y-83446904D01*
X171902380Y-83161190D02*
X170902380Y-83161190D01*
X171045238Y-83256428D01*
X171140476Y-83351666D01*
X171188095Y-83446904D01*
X170997619Y-82494523D02*
X170950000Y-82446904D01*
X170902380Y-82351666D01*
X170902380Y-82113571D01*
X170950000Y-82018333D01*
X170997619Y-81970714D01*
X171092857Y-81923095D01*
X171188095Y-81923095D01*
X171330952Y-81970714D01*
X171902380Y-82542142D01*
X171902380Y-81923095D01*
G04 #@! TO.C,R11*
X147312142Y-102687380D02*
X146978809Y-102211190D01*
X146740714Y-102687380D02*
X146740714Y-101687380D01*
X147121666Y-101687380D01*
X147216904Y-101735000D01*
X147264523Y-101782619D01*
X147312142Y-101877857D01*
X147312142Y-102020714D01*
X147264523Y-102115952D01*
X147216904Y-102163571D01*
X147121666Y-102211190D01*
X146740714Y-102211190D01*
X148264523Y-102687380D02*
X147693095Y-102687380D01*
X147978809Y-102687380D02*
X147978809Y-101687380D01*
X147883571Y-101830238D01*
X147788333Y-101925476D01*
X147693095Y-101973095D01*
X149216904Y-102687380D02*
X148645476Y-102687380D01*
X148931190Y-102687380D02*
X148931190Y-101687380D01*
X148835952Y-101830238D01*
X148740714Y-101925476D01*
X148645476Y-101973095D01*
G04 #@! TO.C,R10*
X147312142Y-112212380D02*
X146978809Y-111736190D01*
X146740714Y-112212380D02*
X146740714Y-111212380D01*
X147121666Y-111212380D01*
X147216904Y-111260000D01*
X147264523Y-111307619D01*
X147312142Y-111402857D01*
X147312142Y-111545714D01*
X147264523Y-111640952D01*
X147216904Y-111688571D01*
X147121666Y-111736190D01*
X146740714Y-111736190D01*
X148264523Y-112212380D02*
X147693095Y-112212380D01*
X147978809Y-112212380D02*
X147978809Y-111212380D01*
X147883571Y-111355238D01*
X147788333Y-111450476D01*
X147693095Y-111498095D01*
X148883571Y-111212380D02*
X148978809Y-111212380D01*
X149074047Y-111260000D01*
X149121666Y-111307619D01*
X149169285Y-111402857D01*
X149216904Y-111593333D01*
X149216904Y-111831428D01*
X149169285Y-112021904D01*
X149121666Y-112117142D01*
X149074047Y-112164761D01*
X148978809Y-112212380D01*
X148883571Y-112212380D01*
X148788333Y-112164761D01*
X148740714Y-112117142D01*
X148693095Y-112021904D01*
X148645476Y-111831428D01*
X148645476Y-111593333D01*
X148693095Y-111402857D01*
X148740714Y-111307619D01*
X148788333Y-111260000D01*
X148883571Y-111212380D01*
G04 #@! TO.C,R9*
X125563333Y-75382380D02*
X125230000Y-74906190D01*
X124991904Y-75382380D02*
X124991904Y-74382380D01*
X125372857Y-74382380D01*
X125468095Y-74430000D01*
X125515714Y-74477619D01*
X125563333Y-74572857D01*
X125563333Y-74715714D01*
X125515714Y-74810952D01*
X125468095Y-74858571D01*
X125372857Y-74906190D01*
X124991904Y-74906190D01*
X126039523Y-75382380D02*
X126230000Y-75382380D01*
X126325238Y-75334761D01*
X126372857Y-75287142D01*
X126468095Y-75144285D01*
X126515714Y-74953809D01*
X126515714Y-74572857D01*
X126468095Y-74477619D01*
X126420476Y-74430000D01*
X126325238Y-74382380D01*
X126134761Y-74382380D01*
X126039523Y-74430000D01*
X125991904Y-74477619D01*
X125944285Y-74572857D01*
X125944285Y-74810952D01*
X125991904Y-74906190D01*
X126039523Y-74953809D01*
X126134761Y-75001428D01*
X126325238Y-75001428D01*
X126420476Y-74953809D01*
X126468095Y-74906190D01*
X126515714Y-74810952D01*
G04 #@! TO.C,R8*
X163663333Y-83637380D02*
X163330000Y-83161190D01*
X163091904Y-83637380D02*
X163091904Y-82637380D01*
X163472857Y-82637380D01*
X163568095Y-82685000D01*
X163615714Y-82732619D01*
X163663333Y-82827857D01*
X163663333Y-82970714D01*
X163615714Y-83065952D01*
X163568095Y-83113571D01*
X163472857Y-83161190D01*
X163091904Y-83161190D01*
X164234761Y-83065952D02*
X164139523Y-83018333D01*
X164091904Y-82970714D01*
X164044285Y-82875476D01*
X164044285Y-82827857D01*
X164091904Y-82732619D01*
X164139523Y-82685000D01*
X164234761Y-82637380D01*
X164425238Y-82637380D01*
X164520476Y-82685000D01*
X164568095Y-82732619D01*
X164615714Y-82827857D01*
X164615714Y-82875476D01*
X164568095Y-82970714D01*
X164520476Y-83018333D01*
X164425238Y-83065952D01*
X164234761Y-83065952D01*
X164139523Y-83113571D01*
X164091904Y-83161190D01*
X164044285Y-83256428D01*
X164044285Y-83446904D01*
X164091904Y-83542142D01*
X164139523Y-83589761D01*
X164234761Y-83637380D01*
X164425238Y-83637380D01*
X164520476Y-83589761D01*
X164568095Y-83542142D01*
X164615714Y-83446904D01*
X164615714Y-83256428D01*
X164568095Y-83161190D01*
X164520476Y-83113571D01*
X164425238Y-83065952D01*
G04 #@! TO.C,R7*
X163663333Y-80462380D02*
X163330000Y-79986190D01*
X163091904Y-80462380D02*
X163091904Y-79462380D01*
X163472857Y-79462380D01*
X163568095Y-79510000D01*
X163615714Y-79557619D01*
X163663333Y-79652857D01*
X163663333Y-79795714D01*
X163615714Y-79890952D01*
X163568095Y-79938571D01*
X163472857Y-79986190D01*
X163091904Y-79986190D01*
X163996666Y-79462380D02*
X164663333Y-79462380D01*
X164234761Y-80462380D01*
G04 #@! TO.C,R6*
X147788333Y-109037380D02*
X147455000Y-108561190D01*
X147216904Y-109037380D02*
X147216904Y-108037380D01*
X147597857Y-108037380D01*
X147693095Y-108085000D01*
X147740714Y-108132619D01*
X147788333Y-108227857D01*
X147788333Y-108370714D01*
X147740714Y-108465952D01*
X147693095Y-108513571D01*
X147597857Y-108561190D01*
X147216904Y-108561190D01*
X148645476Y-108037380D02*
X148455000Y-108037380D01*
X148359761Y-108085000D01*
X148312142Y-108132619D01*
X148216904Y-108275476D01*
X148169285Y-108465952D01*
X148169285Y-108846904D01*
X148216904Y-108942142D01*
X148264523Y-108989761D01*
X148359761Y-109037380D01*
X148550238Y-109037380D01*
X148645476Y-108989761D01*
X148693095Y-108942142D01*
X148740714Y-108846904D01*
X148740714Y-108608809D01*
X148693095Y-108513571D01*
X148645476Y-108465952D01*
X148550238Y-108418333D01*
X148359761Y-108418333D01*
X148264523Y-108465952D01*
X148216904Y-108513571D01*
X148169285Y-108608809D01*
G04 #@! TO.C,R5*
X147788333Y-105862380D02*
X147455000Y-105386190D01*
X147216904Y-105862380D02*
X147216904Y-104862380D01*
X147597857Y-104862380D01*
X147693095Y-104910000D01*
X147740714Y-104957619D01*
X147788333Y-105052857D01*
X147788333Y-105195714D01*
X147740714Y-105290952D01*
X147693095Y-105338571D01*
X147597857Y-105386190D01*
X147216904Y-105386190D01*
X148693095Y-104862380D02*
X148216904Y-104862380D01*
X148169285Y-105338571D01*
X148216904Y-105290952D01*
X148312142Y-105243333D01*
X148550238Y-105243333D01*
X148645476Y-105290952D01*
X148693095Y-105338571D01*
X148740714Y-105433809D01*
X148740714Y-105671904D01*
X148693095Y-105767142D01*
X148645476Y-105814761D01*
X148550238Y-105862380D01*
X148312142Y-105862380D01*
X148216904Y-105814761D01*
X148169285Y-105767142D01*
G04 #@! TO.C,R4*
X187158333Y-114752380D02*
X186825000Y-114276190D01*
X186586904Y-114752380D02*
X186586904Y-113752380D01*
X186967857Y-113752380D01*
X187063095Y-113800000D01*
X187110714Y-113847619D01*
X187158333Y-113942857D01*
X187158333Y-114085714D01*
X187110714Y-114180952D01*
X187063095Y-114228571D01*
X186967857Y-114276190D01*
X186586904Y-114276190D01*
X188015476Y-114085714D02*
X188015476Y-114752380D01*
X187777380Y-113704761D02*
X187539285Y-114419047D01*
X188158333Y-114419047D01*
G04 #@! TO.C,R3*
X187158333Y-105227380D02*
X186825000Y-104751190D01*
X186586904Y-105227380D02*
X186586904Y-104227380D01*
X186967857Y-104227380D01*
X187063095Y-104275000D01*
X187110714Y-104322619D01*
X187158333Y-104417857D01*
X187158333Y-104560714D01*
X187110714Y-104655952D01*
X187063095Y-104703571D01*
X186967857Y-104751190D01*
X186586904Y-104751190D01*
X187491666Y-104227380D02*
X188110714Y-104227380D01*
X187777380Y-104608333D01*
X187920238Y-104608333D01*
X188015476Y-104655952D01*
X188063095Y-104703571D01*
X188110714Y-104798809D01*
X188110714Y-105036904D01*
X188063095Y-105132142D01*
X188015476Y-105179761D01*
X187920238Y-105227380D01*
X187634523Y-105227380D01*
X187539285Y-105179761D01*
X187491666Y-105132142D01*
G04 #@! TO.C,R2*
X187158333Y-111577380D02*
X186825000Y-111101190D01*
X186586904Y-111577380D02*
X186586904Y-110577380D01*
X186967857Y-110577380D01*
X187063095Y-110625000D01*
X187110714Y-110672619D01*
X187158333Y-110767857D01*
X187158333Y-110910714D01*
X187110714Y-111005952D01*
X187063095Y-111053571D01*
X186967857Y-111101190D01*
X186586904Y-111101190D01*
X187539285Y-110672619D02*
X187586904Y-110625000D01*
X187682142Y-110577380D01*
X187920238Y-110577380D01*
X188015476Y-110625000D01*
X188063095Y-110672619D01*
X188110714Y-110767857D01*
X188110714Y-110863095D01*
X188063095Y-111005952D01*
X187491666Y-111577380D01*
X188110714Y-111577380D01*
G04 #@! TO.C,R1*
X187158333Y-108402380D02*
X186825000Y-107926190D01*
X186586904Y-108402380D02*
X186586904Y-107402380D01*
X186967857Y-107402380D01*
X187063095Y-107450000D01*
X187110714Y-107497619D01*
X187158333Y-107592857D01*
X187158333Y-107735714D01*
X187110714Y-107830952D01*
X187063095Y-107878571D01*
X186967857Y-107926190D01*
X186586904Y-107926190D01*
X188110714Y-108402380D02*
X187539285Y-108402380D01*
X187825000Y-108402380D02*
X187825000Y-107402380D01*
X187729761Y-107545238D01*
X187634523Y-107640476D01*
X187539285Y-107688095D01*
G04 #@! TO.C,Q3*
X181522619Y-80730238D02*
X181475000Y-80825476D01*
X181379761Y-80920714D01*
X181236904Y-81063571D01*
X181189285Y-81158809D01*
X181189285Y-81254047D01*
X181427380Y-81206428D02*
X181379761Y-81301666D01*
X181284523Y-81396904D01*
X181094047Y-81444523D01*
X180760714Y-81444523D01*
X180570238Y-81396904D01*
X180475000Y-81301666D01*
X180427380Y-81206428D01*
X180427380Y-81015952D01*
X180475000Y-80920714D01*
X180570238Y-80825476D01*
X180760714Y-80777857D01*
X181094047Y-80777857D01*
X181284523Y-80825476D01*
X181379761Y-80920714D01*
X181427380Y-81015952D01*
X181427380Y-81206428D01*
X180427380Y-80444523D02*
X180427380Y-79825476D01*
X180808333Y-80158809D01*
X180808333Y-80015952D01*
X180855952Y-79920714D01*
X180903571Y-79873095D01*
X180998809Y-79825476D01*
X181236904Y-79825476D01*
X181332142Y-79873095D01*
X181379761Y-79920714D01*
X181427380Y-80015952D01*
X181427380Y-80301666D01*
X181379761Y-80396904D01*
X181332142Y-80444523D01*
G04 #@! TO.C,Q2*
X167847619Y-73110238D02*
X167800000Y-73205476D01*
X167704761Y-73300714D01*
X167561904Y-73443571D01*
X167514285Y-73538809D01*
X167514285Y-73634047D01*
X167752380Y-73586428D02*
X167704761Y-73681666D01*
X167609523Y-73776904D01*
X167419047Y-73824523D01*
X167085714Y-73824523D01*
X166895238Y-73776904D01*
X166800000Y-73681666D01*
X166752380Y-73586428D01*
X166752380Y-73395952D01*
X166800000Y-73300714D01*
X166895238Y-73205476D01*
X167085714Y-73157857D01*
X167419047Y-73157857D01*
X167609523Y-73205476D01*
X167704761Y-73300714D01*
X167752380Y-73395952D01*
X167752380Y-73586428D01*
X166847619Y-72776904D02*
X166800000Y-72729285D01*
X166752380Y-72634047D01*
X166752380Y-72395952D01*
X166800000Y-72300714D01*
X166847619Y-72253095D01*
X166942857Y-72205476D01*
X167038095Y-72205476D01*
X167180952Y-72253095D01*
X167752380Y-72824523D01*
X167752380Y-72205476D01*
G04 #@! TO.C,Q1*
X181522619Y-73110238D02*
X181475000Y-73205476D01*
X181379761Y-73300714D01*
X181236904Y-73443571D01*
X181189285Y-73538809D01*
X181189285Y-73634047D01*
X181427380Y-73586428D02*
X181379761Y-73681666D01*
X181284523Y-73776904D01*
X181094047Y-73824523D01*
X180760714Y-73824523D01*
X180570238Y-73776904D01*
X180475000Y-73681666D01*
X180427380Y-73586428D01*
X180427380Y-73395952D01*
X180475000Y-73300714D01*
X180570238Y-73205476D01*
X180760714Y-73157857D01*
X181094047Y-73157857D01*
X181284523Y-73205476D01*
X181379761Y-73300714D01*
X181427380Y-73395952D01*
X181427380Y-73586428D01*
X181427380Y-72205476D02*
X181427380Y-72776904D01*
X181427380Y-72491190D02*
X180427380Y-72491190D01*
X180570238Y-72586428D01*
X180665476Y-72681666D01*
X180713095Y-72776904D01*
G04 #@! TO.C,J4*
X165401666Y-124122380D02*
X165401666Y-124836666D01*
X165354047Y-124979523D01*
X165258809Y-125074761D01*
X165115952Y-125122380D01*
X165020714Y-125122380D01*
X166306428Y-124455714D02*
X166306428Y-125122380D01*
X166068333Y-124074761D02*
X165830238Y-124789047D01*
X166449285Y-124789047D01*
G04 #@! TO.C,J3*
X134921666Y-122642380D02*
X134921666Y-123356666D01*
X134874047Y-123499523D01*
X134778809Y-123594761D01*
X134635952Y-123642380D01*
X134540714Y-123642380D01*
X135302619Y-122642380D02*
X135921666Y-122642380D01*
X135588333Y-123023333D01*
X135731190Y-123023333D01*
X135826428Y-123070952D01*
X135874047Y-123118571D01*
X135921666Y-123213809D01*
X135921666Y-123451904D01*
X135874047Y-123547142D01*
X135826428Y-123594761D01*
X135731190Y-123642380D01*
X135445476Y-123642380D01*
X135350238Y-123594761D01*
X135302619Y-123547142D01*
G04 #@! TO.C,J2*
X144446666Y-90027380D02*
X144446666Y-90741666D01*
X144399047Y-90884523D01*
X144303809Y-90979761D01*
X144160952Y-91027380D01*
X144065714Y-91027380D01*
X144875238Y-90122619D02*
X144922857Y-90075000D01*
X145018095Y-90027380D01*
X145256190Y-90027380D01*
X145351428Y-90075000D01*
X145399047Y-90122619D01*
X145446666Y-90217857D01*
X145446666Y-90313095D01*
X145399047Y-90455952D01*
X144827619Y-91027380D01*
X145446666Y-91027380D01*
G04 #@! TO.C,J1*
X101266666Y-87717380D02*
X101266666Y-88431666D01*
X101219047Y-88574523D01*
X101123809Y-88669761D01*
X100980952Y-88717380D01*
X100885714Y-88717380D01*
X102266666Y-88717380D02*
X101695238Y-88717380D01*
X101980952Y-88717380D02*
X101980952Y-87717380D01*
X101885714Y-87860238D01*
X101790476Y-87955476D01*
X101695238Y-88003095D01*
G04 #@! TO.C,D2*
X118006904Y-63532380D02*
X118006904Y-62532380D01*
X118245000Y-62532380D01*
X118387857Y-62580000D01*
X118483095Y-62675238D01*
X118530714Y-62770476D01*
X118578333Y-62960952D01*
X118578333Y-63103809D01*
X118530714Y-63294285D01*
X118483095Y-63389523D01*
X118387857Y-63484761D01*
X118245000Y-63532380D01*
X118006904Y-63532380D01*
X118959285Y-62627619D02*
X119006904Y-62580000D01*
X119102142Y-62532380D01*
X119340238Y-62532380D01*
X119435476Y-62580000D01*
X119483095Y-62627619D01*
X119530714Y-62722857D01*
X119530714Y-62818095D01*
X119483095Y-62960952D01*
X118911666Y-63532380D01*
X119530714Y-63532380D01*
G04 #@! TO.C,D1*
X118006904Y-94852380D02*
X118006904Y-93852380D01*
X118245000Y-93852380D01*
X118387857Y-93900000D01*
X118483095Y-93995238D01*
X118530714Y-94090476D01*
X118578333Y-94280952D01*
X118578333Y-94423809D01*
X118530714Y-94614285D01*
X118483095Y-94709523D01*
X118387857Y-94804761D01*
X118245000Y-94852380D01*
X118006904Y-94852380D01*
X119530714Y-94852380D02*
X118959285Y-94852380D01*
X119245000Y-94852380D02*
X119245000Y-93852380D01*
X119149761Y-93995238D01*
X119054523Y-94090476D01*
X118959285Y-94138095D01*
G04 #@! TO.C,C17*
X103497142Y-98782142D02*
X103449523Y-98829761D01*
X103306666Y-98877380D01*
X103211428Y-98877380D01*
X103068571Y-98829761D01*
X102973333Y-98734523D01*
X102925714Y-98639285D01*
X102878095Y-98448809D01*
X102878095Y-98305952D01*
X102925714Y-98115476D01*
X102973333Y-98020238D01*
X103068571Y-97925000D01*
X103211428Y-97877380D01*
X103306666Y-97877380D01*
X103449523Y-97925000D01*
X103497142Y-97972619D01*
X104449523Y-98877380D02*
X103878095Y-98877380D01*
X104163809Y-98877380D02*
X104163809Y-97877380D01*
X104068571Y-98020238D01*
X103973333Y-98115476D01*
X103878095Y-98163095D01*
X104782857Y-97877380D02*
X105449523Y-97877380D01*
X105020952Y-98877380D01*
G04 #@! TO.C,C16*
X133302142Y-98572142D02*
X133254523Y-98619761D01*
X133111666Y-98667380D01*
X133016428Y-98667380D01*
X132873571Y-98619761D01*
X132778333Y-98524523D01*
X132730714Y-98429285D01*
X132683095Y-98238809D01*
X132683095Y-98095952D01*
X132730714Y-97905476D01*
X132778333Y-97810238D01*
X132873571Y-97715000D01*
X133016428Y-97667380D01*
X133111666Y-97667380D01*
X133254523Y-97715000D01*
X133302142Y-97762619D01*
X134254523Y-98667380D02*
X133683095Y-98667380D01*
X133968809Y-98667380D02*
X133968809Y-97667380D01*
X133873571Y-97810238D01*
X133778333Y-97905476D01*
X133683095Y-97953095D01*
X135111666Y-97667380D02*
X134921190Y-97667380D01*
X134825952Y-97715000D01*
X134778333Y-97762619D01*
X134683095Y-97905476D01*
X134635476Y-98095952D01*
X134635476Y-98476904D01*
X134683095Y-98572142D01*
X134730714Y-98619761D01*
X134825952Y-98667380D01*
X135016428Y-98667380D01*
X135111666Y-98619761D01*
X135159285Y-98572142D01*
X135206904Y-98476904D01*
X135206904Y-98238809D01*
X135159285Y-98143571D01*
X135111666Y-98095952D01*
X135016428Y-98048333D01*
X134825952Y-98048333D01*
X134730714Y-98095952D01*
X134683095Y-98143571D01*
X134635476Y-98238809D01*
G04 #@! TO.C,C15*
X161917142Y-87352142D02*
X161869523Y-87399761D01*
X161726666Y-87447380D01*
X161631428Y-87447380D01*
X161488571Y-87399761D01*
X161393333Y-87304523D01*
X161345714Y-87209285D01*
X161298095Y-87018809D01*
X161298095Y-86875952D01*
X161345714Y-86685476D01*
X161393333Y-86590238D01*
X161488571Y-86495000D01*
X161631428Y-86447380D01*
X161726666Y-86447380D01*
X161869523Y-86495000D01*
X161917142Y-86542619D01*
X162869523Y-87447380D02*
X162298095Y-87447380D01*
X162583809Y-87447380D02*
X162583809Y-86447380D01*
X162488571Y-86590238D01*
X162393333Y-86685476D01*
X162298095Y-86733095D01*
X163774285Y-86447380D02*
X163298095Y-86447380D01*
X163250476Y-86923571D01*
X163298095Y-86875952D01*
X163393333Y-86828333D01*
X163631428Y-86828333D01*
X163726666Y-86875952D01*
X163774285Y-86923571D01*
X163821904Y-87018809D01*
X163821904Y-87256904D01*
X163774285Y-87352142D01*
X163726666Y-87399761D01*
X163631428Y-87447380D01*
X163393333Y-87447380D01*
X163298095Y-87399761D01*
X163250476Y-87352142D01*
G04 #@! TO.C,C14*
X161917142Y-73382142D02*
X161869523Y-73429761D01*
X161726666Y-73477380D01*
X161631428Y-73477380D01*
X161488571Y-73429761D01*
X161393333Y-73334523D01*
X161345714Y-73239285D01*
X161298095Y-73048809D01*
X161298095Y-72905952D01*
X161345714Y-72715476D01*
X161393333Y-72620238D01*
X161488571Y-72525000D01*
X161631428Y-72477380D01*
X161726666Y-72477380D01*
X161869523Y-72525000D01*
X161917142Y-72572619D01*
X162869523Y-73477380D02*
X162298095Y-73477380D01*
X162583809Y-73477380D02*
X162583809Y-72477380D01*
X162488571Y-72620238D01*
X162393333Y-72715476D01*
X162298095Y-72763095D01*
X163726666Y-72810714D02*
X163726666Y-73477380D01*
X163488571Y-72429761D02*
X163250476Y-73144047D01*
X163869523Y-73144047D01*
G04 #@! TO.C,C13*
X154892142Y-96032142D02*
X154844523Y-96079761D01*
X154701666Y-96127380D01*
X154606428Y-96127380D01*
X154463571Y-96079761D01*
X154368333Y-95984523D01*
X154320714Y-95889285D01*
X154273095Y-95698809D01*
X154273095Y-95555952D01*
X154320714Y-95365476D01*
X154368333Y-95270238D01*
X154463571Y-95175000D01*
X154606428Y-95127380D01*
X154701666Y-95127380D01*
X154844523Y-95175000D01*
X154892142Y-95222619D01*
X155844523Y-96127380D02*
X155273095Y-96127380D01*
X155558809Y-96127380D02*
X155558809Y-95127380D01*
X155463571Y-95270238D01*
X155368333Y-95365476D01*
X155273095Y-95413095D01*
X156177857Y-95127380D02*
X156796904Y-95127380D01*
X156463571Y-95508333D01*
X156606428Y-95508333D01*
X156701666Y-95555952D01*
X156749285Y-95603571D01*
X156796904Y-95698809D01*
X156796904Y-95936904D01*
X156749285Y-96032142D01*
X156701666Y-96079761D01*
X156606428Y-96127380D01*
X156320714Y-96127380D01*
X156225476Y-96079761D01*
X156177857Y-96032142D01*
G04 #@! TO.C,C12*
X149217142Y-115927142D02*
X149169523Y-115974761D01*
X149026666Y-116022380D01*
X148931428Y-116022380D01*
X148788571Y-115974761D01*
X148693333Y-115879523D01*
X148645714Y-115784285D01*
X148598095Y-115593809D01*
X148598095Y-115450952D01*
X148645714Y-115260476D01*
X148693333Y-115165238D01*
X148788571Y-115070000D01*
X148931428Y-115022380D01*
X149026666Y-115022380D01*
X149169523Y-115070000D01*
X149217142Y-115117619D01*
X150169523Y-116022380D02*
X149598095Y-116022380D01*
X149883809Y-116022380D02*
X149883809Y-115022380D01*
X149788571Y-115165238D01*
X149693333Y-115260476D01*
X149598095Y-115308095D01*
X150550476Y-115117619D02*
X150598095Y-115070000D01*
X150693333Y-115022380D01*
X150931428Y-115022380D01*
X151026666Y-115070000D01*
X151074285Y-115117619D01*
X151121904Y-115212857D01*
X151121904Y-115308095D01*
X151074285Y-115450952D01*
X150502857Y-116022380D01*
X151121904Y-116022380D01*
G04 #@! TO.C,C11*
X149217142Y-119737142D02*
X149169523Y-119784761D01*
X149026666Y-119832380D01*
X148931428Y-119832380D01*
X148788571Y-119784761D01*
X148693333Y-119689523D01*
X148645714Y-119594285D01*
X148598095Y-119403809D01*
X148598095Y-119260952D01*
X148645714Y-119070476D01*
X148693333Y-118975238D01*
X148788571Y-118880000D01*
X148931428Y-118832380D01*
X149026666Y-118832380D01*
X149169523Y-118880000D01*
X149217142Y-118927619D01*
X150169523Y-119832380D02*
X149598095Y-119832380D01*
X149883809Y-119832380D02*
X149883809Y-118832380D01*
X149788571Y-118975238D01*
X149693333Y-119070476D01*
X149598095Y-119118095D01*
X151121904Y-119832380D02*
X150550476Y-119832380D01*
X150836190Y-119832380D02*
X150836190Y-118832380D01*
X150740952Y-118975238D01*
X150645714Y-119070476D01*
X150550476Y-119118095D01*
G04 #@! TO.C,C10*
X146677142Y-70207142D02*
X146629523Y-70254761D01*
X146486666Y-70302380D01*
X146391428Y-70302380D01*
X146248571Y-70254761D01*
X146153333Y-70159523D01*
X146105714Y-70064285D01*
X146058095Y-69873809D01*
X146058095Y-69730952D01*
X146105714Y-69540476D01*
X146153333Y-69445238D01*
X146248571Y-69350000D01*
X146391428Y-69302380D01*
X146486666Y-69302380D01*
X146629523Y-69350000D01*
X146677142Y-69397619D01*
X147629523Y-70302380D02*
X147058095Y-70302380D01*
X147343809Y-70302380D02*
X147343809Y-69302380D01*
X147248571Y-69445238D01*
X147153333Y-69540476D01*
X147058095Y-69588095D01*
X148248571Y-69302380D02*
X148343809Y-69302380D01*
X148439047Y-69350000D01*
X148486666Y-69397619D01*
X148534285Y-69492857D01*
X148581904Y-69683333D01*
X148581904Y-69921428D01*
X148534285Y-70111904D01*
X148486666Y-70207142D01*
X148439047Y-70254761D01*
X148343809Y-70302380D01*
X148248571Y-70302380D01*
X148153333Y-70254761D01*
X148105714Y-70207142D01*
X148058095Y-70111904D01*
X148010476Y-69921428D01*
X148010476Y-69683333D01*
X148058095Y-69492857D01*
X148105714Y-69397619D01*
X148153333Y-69350000D01*
X148248571Y-69302380D01*
G04 #@! TO.C,C9*
X124293333Y-98147142D02*
X124245714Y-98194761D01*
X124102857Y-98242380D01*
X124007619Y-98242380D01*
X123864761Y-98194761D01*
X123769523Y-98099523D01*
X123721904Y-98004285D01*
X123674285Y-97813809D01*
X123674285Y-97670952D01*
X123721904Y-97480476D01*
X123769523Y-97385238D01*
X123864761Y-97290000D01*
X124007619Y-97242380D01*
X124102857Y-97242380D01*
X124245714Y-97290000D01*
X124293333Y-97337619D01*
X124769523Y-98242380D02*
X124960000Y-98242380D01*
X125055238Y-98194761D01*
X125102857Y-98147142D01*
X125198095Y-98004285D01*
X125245714Y-97813809D01*
X125245714Y-97432857D01*
X125198095Y-97337619D01*
X125150476Y-97290000D01*
X125055238Y-97242380D01*
X124864761Y-97242380D01*
X124769523Y-97290000D01*
X124721904Y-97337619D01*
X124674285Y-97432857D01*
X124674285Y-97670952D01*
X124721904Y-97766190D01*
X124769523Y-97813809D01*
X124864761Y-97861428D01*
X125055238Y-97861428D01*
X125150476Y-97813809D01*
X125198095Y-97766190D01*
X125245714Y-97670952D01*
G04 #@! TO.C,C8*
X170013333Y-98147142D02*
X169965714Y-98194761D01*
X169822857Y-98242380D01*
X169727619Y-98242380D01*
X169584761Y-98194761D01*
X169489523Y-98099523D01*
X169441904Y-98004285D01*
X169394285Y-97813809D01*
X169394285Y-97670952D01*
X169441904Y-97480476D01*
X169489523Y-97385238D01*
X169584761Y-97290000D01*
X169727619Y-97242380D01*
X169822857Y-97242380D01*
X169965714Y-97290000D01*
X170013333Y-97337619D01*
X170584761Y-97670952D02*
X170489523Y-97623333D01*
X170441904Y-97575714D01*
X170394285Y-97480476D01*
X170394285Y-97432857D01*
X170441904Y-97337619D01*
X170489523Y-97290000D01*
X170584761Y-97242380D01*
X170775238Y-97242380D01*
X170870476Y-97290000D01*
X170918095Y-97337619D01*
X170965714Y-97432857D01*
X170965714Y-97480476D01*
X170918095Y-97575714D01*
X170870476Y-97623333D01*
X170775238Y-97670952D01*
X170584761Y-97670952D01*
X170489523Y-97718571D01*
X170441904Y-97766190D01*
X170394285Y-97861428D01*
X170394285Y-98051904D01*
X170441904Y-98147142D01*
X170489523Y-98194761D01*
X170584761Y-98242380D01*
X170775238Y-98242380D01*
X170870476Y-98194761D01*
X170918095Y-98147142D01*
X170965714Y-98051904D01*
X170965714Y-97861428D01*
X170918095Y-97766190D01*
X170870476Y-97718571D01*
X170775238Y-97670952D01*
G04 #@! TO.C,C7*
X114702142Y-75116666D02*
X114749761Y-75164285D01*
X114797380Y-75307142D01*
X114797380Y-75402380D01*
X114749761Y-75545238D01*
X114654523Y-75640476D01*
X114559285Y-75688095D01*
X114368809Y-75735714D01*
X114225952Y-75735714D01*
X114035476Y-75688095D01*
X113940238Y-75640476D01*
X113845000Y-75545238D01*
X113797380Y-75402380D01*
X113797380Y-75307142D01*
X113845000Y-75164285D01*
X113892619Y-75116666D01*
X113797380Y-74783333D02*
X113797380Y-74116666D01*
X114797380Y-74545238D01*
G04 #@! TO.C,C5*
X184618333Y-97512142D02*
X184570714Y-97559761D01*
X184427857Y-97607380D01*
X184332619Y-97607380D01*
X184189761Y-97559761D01*
X184094523Y-97464523D01*
X184046904Y-97369285D01*
X183999285Y-97178809D01*
X183999285Y-97035952D01*
X184046904Y-96845476D01*
X184094523Y-96750238D01*
X184189761Y-96655000D01*
X184332619Y-96607380D01*
X184427857Y-96607380D01*
X184570714Y-96655000D01*
X184618333Y-96702619D01*
X185523095Y-96607380D02*
X185046904Y-96607380D01*
X184999285Y-97083571D01*
X185046904Y-97035952D01*
X185142142Y-96988333D01*
X185380238Y-96988333D01*
X185475476Y-97035952D01*
X185523095Y-97083571D01*
X185570714Y-97178809D01*
X185570714Y-97416904D01*
X185523095Y-97512142D01*
X185475476Y-97559761D01*
X185380238Y-97607380D01*
X185142142Y-97607380D01*
X185046904Y-97559761D01*
X184999285Y-97512142D01*
G04 #@! TO.C,C4*
X119193333Y-116072142D02*
X119145714Y-116119761D01*
X119002857Y-116167380D01*
X118907619Y-116167380D01*
X118764761Y-116119761D01*
X118669523Y-116024523D01*
X118621904Y-115929285D01*
X118574285Y-115738809D01*
X118574285Y-115595952D01*
X118621904Y-115405476D01*
X118669523Y-115310238D01*
X118764761Y-115215000D01*
X118907619Y-115167380D01*
X119002857Y-115167380D01*
X119145714Y-115215000D01*
X119193333Y-115262619D01*
X120050476Y-115500714D02*
X120050476Y-116167380D01*
X119812380Y-115119761D02*
X119574285Y-115834047D01*
X120193333Y-115834047D01*
G04 #@! TO.C,C3*
X142053333Y-88132142D02*
X142005714Y-88179761D01*
X141862857Y-88227380D01*
X141767619Y-88227380D01*
X141624761Y-88179761D01*
X141529523Y-88084523D01*
X141481904Y-87989285D01*
X141434285Y-87798809D01*
X141434285Y-87655952D01*
X141481904Y-87465476D01*
X141529523Y-87370238D01*
X141624761Y-87275000D01*
X141767619Y-87227380D01*
X141862857Y-87227380D01*
X142005714Y-87275000D01*
X142053333Y-87322619D01*
X142386666Y-87227380D02*
X143005714Y-87227380D01*
X142672380Y-87608333D01*
X142815238Y-87608333D01*
X142910476Y-87655952D01*
X142958095Y-87703571D01*
X143005714Y-87798809D01*
X143005714Y-88036904D01*
X142958095Y-88132142D01*
X142910476Y-88179761D01*
X142815238Y-88227380D01*
X142529523Y-88227380D01*
X142434285Y-88179761D01*
X142386666Y-88132142D01*
G04 #@! TO.C,C2*
X164953333Y-116072142D02*
X164905714Y-116119761D01*
X164762857Y-116167380D01*
X164667619Y-116167380D01*
X164524761Y-116119761D01*
X164429523Y-116024523D01*
X164381904Y-115929285D01*
X164334285Y-115738809D01*
X164334285Y-115595952D01*
X164381904Y-115405476D01*
X164429523Y-115310238D01*
X164524761Y-115215000D01*
X164667619Y-115167380D01*
X164762857Y-115167380D01*
X164905714Y-115215000D01*
X164953333Y-115262619D01*
X165334285Y-115262619D02*
X165381904Y-115215000D01*
X165477142Y-115167380D01*
X165715238Y-115167380D01*
X165810476Y-115215000D01*
X165858095Y-115262619D01*
X165905714Y-115357857D01*
X165905714Y-115453095D01*
X165858095Y-115595952D01*
X165286666Y-116167380D01*
X165905714Y-116167380D01*
G04 #@! TO.C,C1*
X114702142Y-82736666D02*
X114749761Y-82784285D01*
X114797380Y-82927142D01*
X114797380Y-83022380D01*
X114749761Y-83165238D01*
X114654523Y-83260476D01*
X114559285Y-83308095D01*
X114368809Y-83355714D01*
X114225952Y-83355714D01*
X114035476Y-83308095D01*
X113940238Y-83260476D01*
X113845000Y-83165238D01*
X113797380Y-83022380D01*
X113797380Y-82927142D01*
X113845000Y-82784285D01*
X113892619Y-82736666D01*
X114797380Y-81784285D02*
X114797380Y-82355714D01*
X114797380Y-82070000D02*
X113797380Y-82070000D01*
X113940238Y-82165238D01*
X114035476Y-82260476D01*
X114083095Y-82355714D01*
G04 #@! TD*
M02*
