G04 #@! TF.GenerationSoftware,KiCad,Pcbnew,(5.1.10)-1*
G04 #@! TF.CreationDate,2021-07-20T07:48:38+09:00*
G04 #@! TF.ProjectId,NOS02,4e4f5330-322e-46b6-9963-61645f706362,Ver. 1.0*
G04 #@! TF.SameCoordinates,Original*
G04 #@! TF.FileFunction,Copper,L1,Top*
G04 #@! TF.FilePolarity,Positive*
%FSLAX46Y46*%
G04 Gerber Fmt 4.6, Leading zero omitted, Abs format (unit mm)*
G04 Created by KiCad (PCBNEW (5.1.10)-1) date 2021-07-20 07:48:38*
%MOMM*%
%LPD*%
G01*
G04 APERTURE LIST*
G04 #@! TA.AperFunction,NonConductor*
%ADD10C,0.200000*%
G04 #@! TD*
G04 #@! TA.AperFunction,ComponentPad*
%ADD11O,1.600000X1.600000*%
G04 #@! TD*
G04 #@! TA.AperFunction,ComponentPad*
%ADD12R,1.600000X1.600000*%
G04 #@! TD*
G04 #@! TA.AperFunction,ComponentPad*
%ADD13O,1.700000X1.700000*%
G04 #@! TD*
G04 #@! TA.AperFunction,ComponentPad*
%ADD14R,1.700000X1.700000*%
G04 #@! TD*
G04 #@! TA.AperFunction,ComponentPad*
%ADD15C,1.600000*%
G04 #@! TD*
G04 #@! TA.AperFunction,ComponentPad*
%ADD16C,1.440000*%
G04 #@! TD*
G04 #@! TA.AperFunction,ComponentPad*
%ADD17R,1.500000X1.500000*%
G04 #@! TD*
G04 #@! TA.AperFunction,ComponentPad*
%ADD18C,1.500000*%
G04 #@! TD*
G04 #@! TA.AperFunction,ComponentPad*
%ADD19O,1.700000X1.950000*%
G04 #@! TD*
G04 #@! TA.AperFunction,ComponentPad*
%ADD20C,1.700000*%
G04 #@! TD*
G04 #@! TA.AperFunction,ComponentPad*
%ADD21C,1.800000*%
G04 #@! TD*
G04 #@! TA.AperFunction,ComponentPad*
%ADD22R,1.800000X1.800000*%
G04 #@! TD*
G04 #@! TA.AperFunction,Conductor*
%ADD23C,0.500000*%
G04 #@! TD*
G04 APERTURE END LIST*
D10*
X104402142Y-132622857D02*
X104402142Y-131422857D01*
X104916428Y-132622857D02*
X104916428Y-131994285D01*
X104859285Y-131880000D01*
X104745000Y-131822857D01*
X104573571Y-131822857D01*
X104459285Y-131880000D01*
X104402142Y-131937142D01*
X105316428Y-131822857D02*
X105773571Y-131822857D01*
X105487857Y-131422857D02*
X105487857Y-132451428D01*
X105545000Y-132565714D01*
X105659285Y-132622857D01*
X105773571Y-132622857D01*
X106002142Y-131822857D02*
X106459285Y-131822857D01*
X106173571Y-131422857D02*
X106173571Y-132451428D01*
X106230714Y-132565714D01*
X106345000Y-132622857D01*
X106459285Y-132622857D01*
X106859285Y-131822857D02*
X106859285Y-133022857D01*
X106859285Y-131880000D02*
X106973571Y-131822857D01*
X107202142Y-131822857D01*
X107316428Y-131880000D01*
X107373571Y-131937142D01*
X107430714Y-132051428D01*
X107430714Y-132394285D01*
X107373571Y-132508571D01*
X107316428Y-132565714D01*
X107202142Y-132622857D01*
X106973571Y-132622857D01*
X106859285Y-132565714D01*
X107887857Y-132565714D02*
X108002142Y-132622857D01*
X108230714Y-132622857D01*
X108345000Y-132565714D01*
X108402142Y-132451428D01*
X108402142Y-132394285D01*
X108345000Y-132280000D01*
X108230714Y-132222857D01*
X108059285Y-132222857D01*
X107945000Y-132165714D01*
X107887857Y-132051428D01*
X107887857Y-131994285D01*
X107945000Y-131880000D01*
X108059285Y-131822857D01*
X108230714Y-131822857D01*
X108345000Y-131880000D01*
X108916428Y-132508571D02*
X108973571Y-132565714D01*
X108916428Y-132622857D01*
X108859285Y-132565714D01*
X108916428Y-132508571D01*
X108916428Y-132622857D01*
X108916428Y-131880000D02*
X108973571Y-131937142D01*
X108916428Y-131994285D01*
X108859285Y-131937142D01*
X108916428Y-131880000D01*
X108916428Y-131994285D01*
X110345000Y-131365714D02*
X109316428Y-132908571D01*
X111602142Y-131365714D02*
X110573571Y-132908571D01*
X112516428Y-132622857D02*
X112516428Y-131422857D01*
X112516428Y-132565714D02*
X112402142Y-132622857D01*
X112173571Y-132622857D01*
X112059285Y-132565714D01*
X112002142Y-132508571D01*
X111945000Y-132394285D01*
X111945000Y-132051428D01*
X112002142Y-131937142D01*
X112059285Y-131880000D01*
X112173571Y-131822857D01*
X112402142Y-131822857D01*
X112516428Y-131880000D01*
X113602142Y-132622857D02*
X113602142Y-131994285D01*
X113545000Y-131880000D01*
X113430714Y-131822857D01*
X113202142Y-131822857D01*
X113087857Y-131880000D01*
X113602142Y-132565714D02*
X113487857Y-132622857D01*
X113202142Y-132622857D01*
X113087857Y-132565714D01*
X113030714Y-132451428D01*
X113030714Y-132337142D01*
X113087857Y-132222857D01*
X113202142Y-132165714D01*
X113487857Y-132165714D01*
X113602142Y-132108571D01*
X114687857Y-132622857D02*
X114687857Y-131422857D01*
X114687857Y-132565714D02*
X114573571Y-132622857D01*
X114345000Y-132622857D01*
X114230714Y-132565714D01*
X114173571Y-132508571D01*
X114116428Y-132394285D01*
X114116428Y-132051428D01*
X114173571Y-131937142D01*
X114230714Y-131880000D01*
X114345000Y-131822857D01*
X114573571Y-131822857D01*
X114687857Y-131880000D01*
X115430714Y-131937142D02*
X115316428Y-131880000D01*
X115259285Y-131822857D01*
X115202142Y-131708571D01*
X115202142Y-131651428D01*
X115259285Y-131537142D01*
X115316428Y-131480000D01*
X115430714Y-131422857D01*
X115659285Y-131422857D01*
X115773571Y-131480000D01*
X115830714Y-131537142D01*
X115887857Y-131651428D01*
X115887857Y-131708571D01*
X115830714Y-131822857D01*
X115773571Y-131880000D01*
X115659285Y-131937142D01*
X115430714Y-131937142D01*
X115316428Y-131994285D01*
X115259285Y-132051428D01*
X115202142Y-132165714D01*
X115202142Y-132394285D01*
X115259285Y-132508571D01*
X115316428Y-132565714D01*
X115430714Y-132622857D01*
X115659285Y-132622857D01*
X115773571Y-132565714D01*
X115830714Y-132508571D01*
X115887857Y-132394285D01*
X115887857Y-132165714D01*
X115830714Y-132051428D01*
X115773571Y-131994285D01*
X115659285Y-131937142D01*
X116573571Y-131937142D02*
X116459285Y-131880000D01*
X116402142Y-131822857D01*
X116345000Y-131708571D01*
X116345000Y-131651428D01*
X116402142Y-131537142D01*
X116459285Y-131480000D01*
X116573571Y-131422857D01*
X116802142Y-131422857D01*
X116916428Y-131480000D01*
X116973571Y-131537142D01*
X117030714Y-131651428D01*
X117030714Y-131708571D01*
X116973571Y-131822857D01*
X116916428Y-131880000D01*
X116802142Y-131937142D01*
X116573571Y-131937142D01*
X116459285Y-131994285D01*
X116402142Y-132051428D01*
X116345000Y-132165714D01*
X116345000Y-132394285D01*
X116402142Y-132508571D01*
X116459285Y-132565714D01*
X116573571Y-132622857D01*
X116802142Y-132622857D01*
X116916428Y-132565714D01*
X116973571Y-132508571D01*
X117030714Y-132394285D01*
X117030714Y-132165714D01*
X116973571Y-132051428D01*
X116916428Y-131994285D01*
X116802142Y-131937142D01*
X117602142Y-132622857D02*
X117830714Y-132622857D01*
X117945000Y-132565714D01*
X118002142Y-132508571D01*
X118116428Y-132337142D01*
X118173571Y-132108571D01*
X118173571Y-131651428D01*
X118116428Y-131537142D01*
X118059285Y-131480000D01*
X117945000Y-131422857D01*
X117716428Y-131422857D01*
X117602142Y-131480000D01*
X117545000Y-131537142D01*
X117487857Y-131651428D01*
X117487857Y-131937142D01*
X117545000Y-132051428D01*
X117602142Y-132108571D01*
X117716428Y-132165714D01*
X117945000Y-132165714D01*
X118059285Y-132108571D01*
X118116428Y-132051428D01*
X118173571Y-131937142D01*
X118573571Y-131422857D02*
X119316428Y-131422857D01*
X118916428Y-131880000D01*
X119087857Y-131880000D01*
X119202142Y-131937142D01*
X119259285Y-131994285D01*
X119316428Y-132108571D01*
X119316428Y-132394285D01*
X119259285Y-132508571D01*
X119202142Y-132565714D01*
X119087857Y-132622857D01*
X118745000Y-132622857D01*
X118630714Y-132565714D01*
X118573571Y-132508571D01*
X119830714Y-132508571D02*
X119887857Y-132565714D01*
X119830714Y-132622857D01*
X119773571Y-132565714D01*
X119830714Y-132508571D01*
X119830714Y-132622857D01*
X120402142Y-132622857D02*
X120402142Y-131422857D01*
X120402142Y-131880000D02*
X120516428Y-131822857D01*
X120745000Y-131822857D01*
X120859285Y-131880000D01*
X120916428Y-131937142D01*
X120973571Y-132051428D01*
X120973571Y-132394285D01*
X120916428Y-132508571D01*
X120859285Y-132565714D01*
X120745000Y-132622857D01*
X120516428Y-132622857D01*
X120402142Y-132565714D01*
X121659285Y-132622857D02*
X121545000Y-132565714D01*
X121487857Y-132451428D01*
X121487857Y-131422857D01*
X122287857Y-132622857D02*
X122173571Y-132565714D01*
X122116428Y-132508571D01*
X122059285Y-132394285D01*
X122059285Y-132051428D01*
X122116428Y-131937142D01*
X122173571Y-131880000D01*
X122287857Y-131822857D01*
X122459285Y-131822857D01*
X122573571Y-131880000D01*
X122630714Y-131937142D01*
X122687857Y-132051428D01*
X122687857Y-132394285D01*
X122630714Y-132508571D01*
X122573571Y-132565714D01*
X122459285Y-132622857D01*
X122287857Y-132622857D01*
X123716428Y-131822857D02*
X123716428Y-132794285D01*
X123659285Y-132908571D01*
X123602142Y-132965714D01*
X123487857Y-133022857D01*
X123316428Y-133022857D01*
X123202142Y-132965714D01*
X123716428Y-132565714D02*
X123602142Y-132622857D01*
X123373571Y-132622857D01*
X123259285Y-132565714D01*
X123202142Y-132508571D01*
X123145000Y-132394285D01*
X123145000Y-132051428D01*
X123202142Y-131937142D01*
X123259285Y-131880000D01*
X123373571Y-131822857D01*
X123602142Y-131822857D01*
X123716428Y-131880000D01*
X124230714Y-132565714D02*
X124345000Y-132622857D01*
X124573571Y-132622857D01*
X124687857Y-132565714D01*
X124745000Y-132451428D01*
X124745000Y-132394285D01*
X124687857Y-132280000D01*
X124573571Y-132222857D01*
X124402142Y-132222857D01*
X124287857Y-132165714D01*
X124230714Y-132051428D01*
X124230714Y-131994285D01*
X124287857Y-131880000D01*
X124402142Y-131822857D01*
X124573571Y-131822857D01*
X124687857Y-131880000D01*
X125259285Y-131822857D02*
X125259285Y-133022857D01*
X125259285Y-131880000D02*
X125373571Y-131822857D01*
X125602142Y-131822857D01*
X125716428Y-131880000D01*
X125773571Y-131937142D01*
X125830714Y-132051428D01*
X125830714Y-132394285D01*
X125773571Y-132508571D01*
X125716428Y-132565714D01*
X125602142Y-132622857D01*
X125373571Y-132622857D01*
X125259285Y-132565714D01*
X126516428Y-132622857D02*
X126402142Y-132565714D01*
X126345000Y-132508571D01*
X126287857Y-132394285D01*
X126287857Y-132051428D01*
X126345000Y-131937142D01*
X126402142Y-131880000D01*
X126516428Y-131822857D01*
X126687857Y-131822857D01*
X126802142Y-131880000D01*
X126859285Y-131937142D01*
X126916428Y-132051428D01*
X126916428Y-132394285D01*
X126859285Y-132508571D01*
X126802142Y-132565714D01*
X126687857Y-132622857D01*
X126516428Y-132622857D01*
X127259285Y-131822857D02*
X127716428Y-131822857D01*
X127430714Y-131422857D02*
X127430714Y-132451428D01*
X127487857Y-132565714D01*
X127602142Y-132622857D01*
X127716428Y-132622857D01*
X128116428Y-132508571D02*
X128173571Y-132565714D01*
X128116428Y-132622857D01*
X128059285Y-132565714D01*
X128116428Y-132508571D01*
X128116428Y-132622857D01*
X129202142Y-132565714D02*
X129087857Y-132622857D01*
X128859285Y-132622857D01*
X128745000Y-132565714D01*
X128687857Y-132508571D01*
X128630714Y-132394285D01*
X128630714Y-132051428D01*
X128687857Y-131937142D01*
X128745000Y-131880000D01*
X128859285Y-131822857D01*
X129087857Y-131822857D01*
X129202142Y-131880000D01*
X129887857Y-132622857D02*
X129773571Y-132565714D01*
X129716428Y-132508571D01*
X129659285Y-132394285D01*
X129659285Y-132051428D01*
X129716428Y-131937142D01*
X129773571Y-131880000D01*
X129887857Y-131822857D01*
X130059285Y-131822857D01*
X130173571Y-131880000D01*
X130230714Y-131937142D01*
X130287857Y-132051428D01*
X130287857Y-132394285D01*
X130230714Y-132508571D01*
X130173571Y-132565714D01*
X130059285Y-132622857D01*
X129887857Y-132622857D01*
X130802142Y-132622857D02*
X130802142Y-131822857D01*
X130802142Y-131937142D02*
X130859285Y-131880000D01*
X130973571Y-131822857D01*
X131145000Y-131822857D01*
X131259285Y-131880000D01*
X131316428Y-131994285D01*
X131316428Y-132622857D01*
X131316428Y-131994285D02*
X131373571Y-131880000D01*
X131487857Y-131822857D01*
X131659285Y-131822857D01*
X131773571Y-131880000D01*
X131830714Y-131994285D01*
X131830714Y-132622857D01*
X133259285Y-131365714D02*
X132230714Y-132908571D01*
D11*
G04 #@! TO.P,U3,8*
G04 #@! TO.N,+12V*
X118110000Y-110490000D03*
G04 #@! TO.P,U3,4*
G04 #@! TO.N,-12V*
X125730000Y-102870000D03*
G04 #@! TO.P,U3,7*
G04 #@! TO.N,Net-(R23-Pad1)*
X118110000Y-107950000D03*
G04 #@! TO.P,U3,3*
G04 #@! TO.N,Net-(C16-Pad1)*
X125730000Y-105410000D03*
G04 #@! TO.P,U3,6*
G04 #@! TO.N,Net-(R22-Pad1)*
X118110000Y-105410000D03*
G04 #@! TO.P,U3,2*
G04 #@! TO.N,Net-(R16-Pad1)*
X125730000Y-107950000D03*
G04 #@! TO.P,U3,5*
G04 #@! TO.N,Net-(C17-Pad1)*
X118110000Y-102870000D03*
D12*
G04 #@! TO.P,U3,1*
G04 #@! TO.N,Net-(C17-Pad2)*
X125730000Y-110490000D03*
G04 #@! TD*
D11*
G04 #@! TO.P,U2,8*
G04 #@! TO.N,+12V*
X140970000Y-82550000D03*
G04 #@! TO.P,U2,4*
G04 #@! TO.N,-12V*
X148590000Y-74930000D03*
G04 #@! TO.P,U2,7*
G04 #@! TO.N,Net-(J2-Pad1)*
X140970000Y-80010000D03*
G04 #@! TO.P,U2,3*
G04 #@! TO.N,Net-(C14-Pad1)*
X148590000Y-77470000D03*
G04 #@! TO.P,U2,6*
G04 #@! TO.N,Net-(RV1-Pad2)*
X140970000Y-77470000D03*
G04 #@! TO.P,U2,2*
G04 #@! TO.N,Net-(R7-Pad1)*
X148590000Y-80010000D03*
G04 #@! TO.P,U2,5*
G04 #@! TO.N,Net-(C15-Pad1)*
X140970000Y-74930000D03*
D12*
G04 #@! TO.P,U2,1*
G04 #@! TO.N,Net-(C15-Pad2)*
X148590000Y-82550000D03*
G04 #@! TD*
D13*
G04 #@! TO.P,J5,2*
G04 #@! TO.N,GND*
X163830000Y-65405000D03*
D14*
G04 #@! TO.P,J5,1*
X163830000Y-62865000D03*
G04 #@! TD*
D15*
G04 #@! TO.P,C6,2*
G04 #@! TO.N,Net-(C6-Pad2)*
X177245000Y-100965000D03*
G04 #@! TO.P,C6,1*
G04 #@! TO.N,GND*
X182245000Y-100965000D03*
G04 #@! TD*
D11*
G04 #@! TO.P,U1,8*
G04 #@! TO.N,+12V*
X163830000Y-110490000D03*
G04 #@! TO.P,U1,4*
G04 #@! TO.N,-12V*
X171450000Y-102870000D03*
G04 #@! TO.P,U1,7*
G04 #@! TO.N,Net-(C11-Pad1)*
X163830000Y-107950000D03*
G04 #@! TO.P,U1,3*
G04 #@! TO.N,Net-(C6-Pad2)*
X171450000Y-105410000D03*
G04 #@! TO.P,U1,6*
G04 #@! TO.N,Net-(C11-Pad2)*
X163830000Y-105410000D03*
G04 #@! TO.P,U1,2*
G04 #@! TO.N,Net-(R1-Pad1)*
X171450000Y-107950000D03*
G04 #@! TO.P,U1,5*
G04 #@! TO.N,GND*
X163830000Y-102870000D03*
D12*
G04 #@! TO.P,U1,1*
G04 #@! TO.N,Net-(R2-Pad1)*
X171450000Y-110490000D03*
G04 #@! TD*
D16*
G04 #@! TO.P,RV1,3*
G04 #@! TO.N,Net-(J2-Pad1)*
X132715000Y-83185000D03*
G04 #@! TO.P,RV1,2*
G04 #@! TO.N,Net-(RV1-Pad2)*
X135255000Y-80645000D03*
G04 #@! TO.P,RV1,1*
G04 #@! TO.N,Net-(R9-Pad1)*
X132715000Y-78105000D03*
G04 #@! TD*
D11*
G04 #@! TO.P,R25,2*
G04 #@! TO.N,Net-(C17-Pad1)*
X114935000Y-102235000D03*
D15*
G04 #@! TO.P,R25,1*
G04 #@! TO.N,GND*
X104775000Y-102235000D03*
G04 #@! TD*
D11*
G04 #@! TO.P,R24,2*
G04 #@! TO.N,Net-(R23-Pad1)*
X114935000Y-111760000D03*
D15*
G04 #@! TO.P,R24,1*
G04 #@! TO.N,Net-(J3-Pad5)*
X104775000Y-111760000D03*
G04 #@! TD*
D11*
G04 #@! TO.P,R23,2*
G04 #@! TO.N,Net-(R22-Pad1)*
X104775000Y-108585000D03*
D15*
G04 #@! TO.P,R23,1*
G04 #@! TO.N,Net-(R23-Pad1)*
X114935000Y-108585000D03*
G04 #@! TD*
D11*
G04 #@! TO.P,R22,2*
G04 #@! TO.N,GND*
X104775000Y-105410000D03*
D15*
G04 #@! TO.P,R22,1*
G04 #@! TO.N,Net-(R22-Pad1)*
X114935000Y-105410000D03*
G04 #@! TD*
D11*
G04 #@! TO.P,R21,2*
G04 #@! TO.N,-12V*
X102870000Y-66040000D03*
D15*
G04 #@! TO.P,R21,1*
G04 #@! TO.N,Net-(D2-Pad1)*
X113030000Y-66040000D03*
G04 #@! TD*
D11*
G04 #@! TO.P,R20,2*
G04 #@! TO.N,Net-(D1-Pad2)*
X113030000Y-91440000D03*
D15*
G04 #@! TO.P,R20,1*
G04 #@! TO.N,+12V*
X102870000Y-91440000D03*
G04 #@! TD*
D11*
G04 #@! TO.P,R19,2*
G04 #@! TO.N,Net-(C16-Pad1)*
X128905000Y-104775000D03*
D15*
G04 #@! TO.P,R19,1*
G04 #@! TO.N,GND*
X139065000Y-104775000D03*
G04 #@! TD*
D11*
G04 #@! TO.P,R18,2*
G04 #@! TO.N,Net-(C17-Pad2)*
X128905000Y-114300000D03*
D15*
G04 #@! TO.P,R18,1*
G04 #@! TO.N,Net-(J3-Pad4)*
X139065000Y-114300000D03*
G04 #@! TD*
D11*
G04 #@! TO.P,R17,2*
G04 #@! TO.N,Net-(R16-Pad1)*
X139065000Y-111125000D03*
D15*
G04 #@! TO.P,R17,1*
G04 #@! TO.N,Net-(C17-Pad2)*
X128905000Y-111125000D03*
G04 #@! TD*
D11*
G04 #@! TO.P,R16,2*
G04 #@! TO.N,GND*
X139065000Y-107950000D03*
D15*
G04 #@! TO.P,R16,1*
G04 #@! TO.N,Net-(R16-Pad1)*
X128905000Y-107950000D03*
G04 #@! TD*
D11*
G04 #@! TO.P,R15,2*
G04 #@! TO.N,GND*
X127635000Y-71755000D03*
D15*
G04 #@! TO.P,R15,1*
G04 #@! TO.N,Net-(C15-Pad1)*
X137795000Y-71755000D03*
G04 #@! TD*
D11*
G04 #@! TO.P,R14,2*
G04 #@! TO.N,GND*
X161925000Y-76835000D03*
D15*
G04 #@! TO.P,R14,1*
G04 #@! TO.N,Net-(C14-Pad1)*
X151765000Y-76835000D03*
G04 #@! TD*
D11*
G04 #@! TO.P,R13,2*
G04 #@! TO.N,Net-(C13-Pad2)*
X144780000Y-100965000D03*
D15*
G04 #@! TO.P,R13,1*
G04 #@! TO.N,Net-(J3-Pad3)*
X144780000Y-111125000D03*
G04 #@! TD*
D11*
G04 #@! TO.P,R12,2*
G04 #@! TO.N,Net-(C14-Pad2)*
X168910000Y-78105000D03*
D15*
G04 #@! TO.P,R12,1*
G04 #@! TO.N,+12V*
X168910000Y-88265000D03*
G04 #@! TD*
D11*
G04 #@! TO.P,R11,2*
G04 #@! TO.N,Net-(C13-Pad1)*
X150495000Y-102235000D03*
D15*
G04 #@! TO.P,R11,1*
G04 #@! TO.N,Net-(C11-Pad2)*
X160655000Y-102235000D03*
G04 #@! TD*
D11*
G04 #@! TO.P,R10,2*
G04 #@! TO.N,Net-(C11-Pad1)*
X160655000Y-111760000D03*
D15*
G04 #@! TO.P,R10,1*
G04 #@! TO.N,Net-(J3-Pad2)*
X150495000Y-111760000D03*
G04 #@! TD*
D11*
G04 #@! TO.P,R9,2*
G04 #@! TO.N,GND*
X127635000Y-74930000D03*
D15*
G04 #@! TO.P,R9,1*
G04 #@! TO.N,Net-(R9-Pad1)*
X137795000Y-74930000D03*
G04 #@! TD*
D11*
G04 #@! TO.P,R8,2*
G04 #@! TO.N,Net-(R7-Pad1)*
X161925000Y-83185000D03*
D15*
G04 #@! TO.P,R8,1*
G04 #@! TO.N,Net-(C15-Pad2)*
X151765000Y-83185000D03*
G04 #@! TD*
D11*
G04 #@! TO.P,R7,2*
G04 #@! TO.N,GND*
X161925000Y-80010000D03*
D15*
G04 #@! TO.P,R7,1*
G04 #@! TO.N,Net-(R7-Pad1)*
X151765000Y-80010000D03*
G04 #@! TD*
D11*
G04 #@! TO.P,R6,2*
G04 #@! TO.N,Net-(C11-Pad2)*
X150495000Y-108585000D03*
D15*
G04 #@! TO.P,R6,1*
G04 #@! TO.N,Net-(C11-Pad1)*
X160655000Y-108585000D03*
G04 #@! TD*
D11*
G04 #@! TO.P,R5,2*
G04 #@! TO.N,Net-(C11-Pad2)*
X160655000Y-105410000D03*
D15*
G04 #@! TO.P,R5,1*
G04 #@! TO.N,Net-(C12-Pad2)*
X150495000Y-105410000D03*
G04 #@! TD*
D11*
G04 #@! TO.P,R4,2*
G04 #@! TO.N,Net-(R2-Pad1)*
X174625000Y-114300000D03*
D15*
G04 #@! TO.P,R4,1*
G04 #@! TO.N,Net-(J3-Pad1)*
X184785000Y-114300000D03*
G04 #@! TD*
D11*
G04 #@! TO.P,R3,2*
G04 #@! TO.N,Net-(C5-Pad2)*
X184785000Y-104775000D03*
D15*
G04 #@! TO.P,R3,1*
G04 #@! TO.N,Net-(C6-Pad2)*
X174625000Y-104775000D03*
G04 #@! TD*
D11*
G04 #@! TO.P,R2,2*
G04 #@! TO.N,Net-(R1-Pad1)*
X184785000Y-111125000D03*
D15*
G04 #@! TO.P,R2,1*
G04 #@! TO.N,Net-(R2-Pad1)*
X174625000Y-111125000D03*
G04 #@! TD*
D11*
G04 #@! TO.P,R1,2*
G04 #@! TO.N,GND*
X184785000Y-107950000D03*
D15*
G04 #@! TO.P,R1,1*
G04 #@! TO.N,Net-(R1-Pad1)*
X174625000Y-107950000D03*
G04 #@! TD*
D17*
G04 #@! TO.P,Q3,1*
G04 #@! TO.N,N/C*
X178435000Y-83185000D03*
D18*
G04 #@! TO.P,Q3,3*
G04 #@! TO.N,Net-(C14-Pad2)*
X178435000Y-78105000D03*
G04 #@! TO.P,Q3,2*
G04 #@! TO.N,Net-(Q1-Pad3)*
X175895000Y-80645000D03*
G04 #@! TD*
D17*
G04 #@! TO.P,Q2,1*
G04 #@! TO.N,-12V*
X171450000Y-75565000D03*
D18*
G04 #@! TO.P,Q2,3*
G04 #@! TO.N,Net-(Q1-Pad3)*
X171450000Y-70485000D03*
G04 #@! TO.P,Q2,2*
G04 #@! TO.N,Net-(C14-Pad2)*
X168910000Y-73025000D03*
G04 #@! TD*
D17*
G04 #@! TO.P,Q1,1*
G04 #@! TO.N,Net-(C14-Pad2)*
X178435000Y-75565000D03*
D18*
G04 #@! TO.P,Q1,3*
G04 #@! TO.N,Net-(Q1-Pad3)*
X178435000Y-70485000D03*
G04 #@! TO.P,Q1,2*
G04 #@! TO.N,N/C*
X175895000Y-73025000D03*
G04 #@! TD*
D13*
G04 #@! TO.P,J4,2*
G04 #@! TO.N,GND*
X165735000Y-129540000D03*
D14*
G04 #@! TO.P,J4,1*
X165735000Y-127000000D03*
G04 #@! TD*
D19*
G04 #@! TO.P,J3,6*
G04 #@! TO.N,GND*
X137360000Y-128270000D03*
G04 #@! TO.P,J3,5*
G04 #@! TO.N,Net-(J3-Pad5)*
X139860000Y-128270000D03*
G04 #@! TO.P,J3,4*
G04 #@! TO.N,Net-(J3-Pad4)*
X142360000Y-128270000D03*
G04 #@! TO.P,J3,3*
G04 #@! TO.N,Net-(J3-Pad3)*
X144860000Y-128270000D03*
G04 #@! TO.P,J3,2*
G04 #@! TO.N,Net-(J3-Pad2)*
X147360000Y-128270000D03*
G04 #@! TO.P,J3,1*
G04 #@! TO.N,Net-(J3-Pad1)*
G04 #@! TA.AperFunction,ComponentPad*
G36*
G01*
X150710000Y-127545000D02*
X150710000Y-128995000D01*
G75*
G02*
X150460000Y-129245000I-250000J0D01*
G01*
X149260000Y-129245000D01*
G75*
G02*
X149010000Y-128995000I0J250000D01*
G01*
X149010000Y-127545000D01*
G75*
G02*
X149260000Y-127295000I250000J0D01*
G01*
X150460000Y-127295000D01*
G75*
G02*
X150710000Y-127545000I0J-250000D01*
G01*
G37*
G04 #@! TD.AperFunction*
G04 #@! TD*
D13*
G04 #@! TO.P,J2,2*
G04 #@! TO.N,Net-(C13-Pad2)*
X144780000Y-95885000D03*
D14*
G04 #@! TO.P,J2,1*
G04 #@! TO.N,Net-(J2-Pad1)*
X144780000Y-93345000D03*
G04 #@! TD*
D20*
G04 #@! TO.P,J1,10*
G04 #@! TO.N,+12V*
X109220000Y-83820000D03*
G04 #@! TO.P,J1,8*
G04 #@! TO.N,GND*
X109220000Y-81280000D03*
G04 #@! TO.P,J1,6*
X109220000Y-78740000D03*
G04 #@! TO.P,J1,4*
X109220000Y-76200000D03*
G04 #@! TO.P,J1,2*
G04 #@! TO.N,-12V*
X109220000Y-73660000D03*
G04 #@! TO.P,J1,9*
G04 #@! TO.N,+12V*
X106680000Y-83820000D03*
G04 #@! TO.P,J1,7*
G04 #@! TO.N,GND*
X106680000Y-81280000D03*
G04 #@! TO.P,J1,5*
X106680000Y-78740000D03*
G04 #@! TO.P,J1,3*
X106680000Y-76200000D03*
G04 #@! TO.P,J1,1*
G04 #@! TO.N,-12V*
G04 #@! TA.AperFunction,ComponentPad*
G36*
G01*
X105830000Y-74260000D02*
X105830000Y-73060000D01*
G75*
G02*
X106080000Y-72810000I250000J0D01*
G01*
X107280000Y-72810000D01*
G75*
G02*
X107530000Y-73060000I0J-250000D01*
G01*
X107530000Y-74260000D01*
G75*
G02*
X107280000Y-74510000I-250000J0D01*
G01*
X106080000Y-74510000D01*
G75*
G02*
X105830000Y-74260000I0J250000D01*
G01*
G37*
G04 #@! TD.AperFunction*
G04 #@! TD*
D21*
G04 #@! TO.P,D2,2*
G04 #@! TO.N,GND*
X120015000Y-66040000D03*
D22*
G04 #@! TO.P,D2,1*
G04 #@! TO.N,Net-(D2-Pad1)*
X117475000Y-66040000D03*
G04 #@! TD*
D21*
G04 #@! TO.P,D1,2*
G04 #@! TO.N,Net-(D1-Pad2)*
X117475000Y-91440000D03*
D22*
G04 #@! TO.P,D1,1*
G04 #@! TO.N,GND*
X120015000Y-91440000D03*
G04 #@! TD*
D15*
G04 #@! TO.P,C17,2*
G04 #@! TO.N,Net-(C17-Pad2)*
X112315000Y-98425000D03*
G04 #@! TO.P,C17,1*
G04 #@! TO.N,Net-(C17-Pad1)*
X107315000Y-98425000D03*
G04 #@! TD*
G04 #@! TO.P,C16,2*
G04 #@! TO.N,Net-(C13-Pad2)*
X136445000Y-100965000D03*
G04 #@! TO.P,C16,1*
G04 #@! TO.N,Net-(C16-Pad1)*
X131445000Y-100965000D03*
G04 #@! TD*
G04 #@! TO.P,C15,2*
G04 #@! TO.N,Net-(C15-Pad2)*
X154385000Y-86995000D03*
G04 #@! TO.P,C15,1*
G04 #@! TO.N,Net-(C15-Pad1)*
X159385000Y-86995000D03*
G04 #@! TD*
G04 #@! TO.P,C14,2*
G04 #@! TO.N,Net-(C14-Pad2)*
X159305000Y-73025000D03*
G04 #@! TO.P,C14,1*
G04 #@! TO.N,Net-(C14-Pad1)*
X154305000Y-73025000D03*
G04 #@! TD*
G04 #@! TO.P,C13,2*
G04 #@! TO.N,Net-(C13-Pad2)*
X158035000Y-98425000D03*
G04 #@! TO.P,C13,1*
G04 #@! TO.N,Net-(C13-Pad1)*
X153035000Y-98425000D03*
G04 #@! TD*
G04 #@! TO.P,C12,2*
G04 #@! TO.N,Net-(C12-Pad2)*
X153115000Y-115570000D03*
G04 #@! TO.P,C12,1*
G04 #@! TO.N,Net-(C11-Pad1)*
X158115000Y-115570000D03*
G04 #@! TD*
G04 #@! TO.P,C11,2*
G04 #@! TO.N,Net-(C11-Pad2)*
X153115000Y-119380000D03*
G04 #@! TO.P,C11,1*
G04 #@! TO.N,Net-(C11-Pad1)*
X158115000Y-119380000D03*
G04 #@! TD*
G04 #@! TO.P,C10,2*
G04 #@! TO.N,GND*
X146090000Y-71755000D03*
G04 #@! TO.P,C10,1*
G04 #@! TO.N,-12V*
X148590000Y-71755000D03*
G04 #@! TD*
G04 #@! TO.P,C9,2*
G04 #@! TO.N,GND*
X123230000Y-99695000D03*
G04 #@! TO.P,C9,1*
G04 #@! TO.N,-12V*
X125730000Y-99695000D03*
G04 #@! TD*
G04 #@! TO.P,C8,2*
G04 #@! TO.N,GND*
X168950000Y-99695000D03*
G04 #@! TO.P,C8,1*
G04 #@! TO.N,-12V*
X171450000Y-99695000D03*
G04 #@! TD*
G04 #@! TO.P,C7,2*
G04 #@! TO.N,-12V*
X118745000Y-73700000D03*
D12*
G04 #@! TO.P,C7,1*
G04 #@! TO.N,GND*
X118745000Y-76200000D03*
G04 #@! TD*
D15*
G04 #@! TO.P,C5,2*
G04 #@! TO.N,Net-(C5-Pad2)*
X182165000Y-97155000D03*
G04 #@! TO.P,C5,1*
G04 #@! TO.N,Net-(C13-Pad2)*
X177165000Y-97155000D03*
G04 #@! TD*
G04 #@! TO.P,C4,2*
G04 #@! TO.N,+12V*
X118110000Y-113665000D03*
G04 #@! TO.P,C4,1*
G04 #@! TO.N,GND*
X120610000Y-113665000D03*
G04 #@! TD*
G04 #@! TO.P,C3,2*
G04 #@! TO.N,+12V*
X140970000Y-85725000D03*
G04 #@! TO.P,C3,1*
G04 #@! TO.N,GND*
X143470000Y-85725000D03*
G04 #@! TD*
G04 #@! TO.P,C2,2*
G04 #@! TO.N,+12V*
X163870000Y-113665000D03*
G04 #@! TO.P,C2,1*
G04 #@! TO.N,GND*
X166370000Y-113665000D03*
G04 #@! TD*
G04 #@! TO.P,C1,2*
G04 #@! TO.N,GND*
X118745000Y-81320000D03*
D12*
G04 #@! TO.P,C1,1*
G04 #@! TO.N,+12V*
X118745000Y-83820000D03*
G04 #@! TD*
D23*
G04 #@! TO.N,Net-(C5-Pad2)*
X184785000Y-99775000D02*
X182165000Y-97155000D01*
X184785000Y-104775000D02*
X184785000Y-99775000D01*
G04 #@! TO.N,Net-(C13-Pad2)*
X144780000Y-95885000D02*
X144780000Y-100965000D01*
X155495000Y-95885000D02*
X144780000Y-95885000D01*
X158035000Y-98425000D02*
X155495000Y-95885000D01*
X159305000Y-97155000D02*
X158035000Y-98425000D01*
X177165000Y-97155000D02*
X159305000Y-97155000D01*
X141525000Y-95885000D02*
X136445000Y-100965000D01*
X144780000Y-95885000D02*
X141525000Y-95885000D01*
G04 #@! TO.N,Net-(C6-Pad2)*
X173990000Y-105410000D02*
X174625000Y-104775000D01*
X171450000Y-105410000D02*
X173990000Y-105410000D01*
X174625000Y-103585000D02*
X177245000Y-100965000D01*
X174625000Y-104775000D02*
X174625000Y-103585000D01*
G04 #@! TO.N,-12V*
X118745000Y-73789998D02*
X118745000Y-73700000D01*
X125730000Y-80774998D02*
X118745000Y-73789998D01*
X125730000Y-99695000D02*
X125730000Y-80774998D01*
G04 #@! TO.N,Net-(C11-Pad2)*
X151745001Y-118010001D02*
X151745001Y-109835001D01*
X153115000Y-119380000D02*
X151745001Y-118010001D01*
X163830000Y-105410000D02*
X160655000Y-105410000D01*
X151745001Y-109835001D02*
X150495000Y-108585000D01*
X149914998Y-104140000D02*
X160655000Y-104140000D01*
X149244999Y-107334999D02*
X149244999Y-104809999D01*
X150495000Y-108585000D02*
X149244999Y-107334999D01*
X149244999Y-104809999D02*
X149914998Y-104140000D01*
X160655000Y-104140000D02*
X160655000Y-105410000D01*
X160655000Y-102235000D02*
X160655000Y-104140000D01*
G04 #@! TO.N,Net-(C11-Pad1)*
X158115000Y-115570000D02*
X158115000Y-119380000D01*
X160655000Y-113030000D02*
X158115000Y-115570000D01*
X160655000Y-111760000D02*
X160655000Y-113030000D01*
X160655000Y-108585000D02*
X160655000Y-111760000D01*
X161290000Y-107950000D02*
X160655000Y-108585000D01*
X163830000Y-107950000D02*
X161290000Y-107950000D01*
G04 #@! TO.N,Net-(C12-Pad2)*
X153115000Y-108030000D02*
X150495000Y-105410000D01*
X153115000Y-115570000D02*
X153115000Y-108030000D01*
G04 #@! TO.N,Net-(C13-Pad1)*
X150495000Y-100965000D02*
X153035000Y-98425000D01*
X150495000Y-102235000D02*
X150495000Y-100965000D01*
G04 #@! TO.N,Net-(C14-Pad2)*
X159305000Y-73025000D02*
X168910000Y-73025000D01*
X168910000Y-73025000D02*
X168910000Y-78105000D01*
X178435000Y-75565000D02*
X178435000Y-78105000D01*
X172650001Y-81845001D02*
X168910000Y-78105000D01*
X176471001Y-81845001D02*
X172650001Y-81845001D01*
X178435000Y-79881002D02*
X176471001Y-81845001D01*
X178435000Y-78105000D02*
X178435000Y-79881002D01*
G04 #@! TO.N,Net-(C14-Pad1)*
X149225000Y-76835000D02*
X148590000Y-77470000D01*
X151765000Y-76835000D02*
X149225000Y-76835000D01*
X154305000Y-74295000D02*
X151765000Y-76835000D01*
X154305000Y-73025000D02*
X154305000Y-74295000D01*
G04 #@! TO.N,Net-(C15-Pad2)*
X149225000Y-83185000D02*
X148590000Y-82550000D01*
X151765000Y-83185000D02*
X149225000Y-83185000D01*
X151765000Y-84375000D02*
X154385000Y-86995000D01*
X151765000Y-83185000D02*
X151765000Y-84375000D01*
G04 #@! TO.N,Net-(C15-Pad1)*
X137795000Y-71755000D02*
X140970000Y-74930000D01*
X158134999Y-88245001D02*
X159385000Y-86995000D01*
X151874999Y-88245001D02*
X158134999Y-88245001D01*
X142220001Y-78590003D02*
X151874999Y-88245001D01*
X142220001Y-76180001D02*
X142220001Y-78590003D01*
X140970000Y-74930000D02*
X142220001Y-76180001D01*
G04 #@! TO.N,Net-(C16-Pad1)*
X128270000Y-105410000D02*
X128905000Y-104775000D01*
X125730000Y-105410000D02*
X128270000Y-105410000D01*
X131445000Y-102235000D02*
X128905000Y-104775000D01*
X131445000Y-100965000D02*
X131445000Y-102235000D01*
G04 #@! TO.N,Net-(C17-Pad2)*
X128270000Y-110490000D02*
X128905000Y-111125000D01*
X125730000Y-110490000D02*
X128270000Y-110490000D01*
X128905000Y-111125000D02*
X128905000Y-114300000D01*
X118745000Y-98425000D02*
X112315000Y-98425000D01*
X121285000Y-100965000D02*
X118745000Y-98425000D01*
X121285000Y-106045000D02*
X121285000Y-100965000D01*
X125730000Y-110490000D02*
X121285000Y-106045000D01*
G04 #@! TO.N,Net-(C17-Pad1)*
X117475000Y-102235000D02*
X118110000Y-102870000D01*
X114935000Y-102235000D02*
X117475000Y-102235000D01*
X111125000Y-102235000D02*
X107315000Y-98425000D01*
X114935000Y-102235000D02*
X111125000Y-102235000D01*
G04 #@! TO.N,Net-(D1-Pad2)*
X113030000Y-91440000D02*
X117475000Y-91440000D01*
G04 #@! TO.N,Net-(J2-Pad1)*
X137795000Y-83185000D02*
X140970000Y-80010000D01*
X132715000Y-83185000D02*
X137795000Y-83185000D01*
X137795000Y-86360000D02*
X137795000Y-83185000D01*
X144780000Y-93345000D02*
X137795000Y-86360000D01*
G04 #@! TO.N,Net-(J3-Pad5)*
X139860000Y-128270000D02*
X139860000Y-123985000D01*
X139860000Y-123985000D02*
X137795000Y-121920000D01*
X114935000Y-121920000D02*
X104775000Y-111760000D01*
X137795000Y-121920000D02*
X114935000Y-121920000D01*
G04 #@! TO.N,Net-(J3-Pad4)*
X142360000Y-117595000D02*
X139065000Y-114300000D01*
X142360000Y-128270000D02*
X142360000Y-117595000D01*
G04 #@! TO.N,Net-(J3-Pad3)*
X144860000Y-111205000D02*
X144780000Y-111125000D01*
X144860000Y-128270000D02*
X144860000Y-111205000D01*
G04 #@! TO.N,Net-(J3-Pad2)*
X147360000Y-114895000D02*
X150495000Y-111760000D01*
X147360000Y-128270000D02*
X147360000Y-114895000D01*
G04 #@! TO.N,Net-(J3-Pad1)*
X149860000Y-128270000D02*
X149860000Y-123825000D01*
X149860000Y-123825000D02*
X151765000Y-121920000D01*
X177165000Y-121920000D02*
X184785000Y-114300000D01*
X151765000Y-121920000D02*
X177165000Y-121920000D01*
G04 #@! TO.N,Net-(Q1-Pad3)*
X171450000Y-70485000D02*
X178435000Y-70485000D01*
X178435000Y-73254998D02*
X178435000Y-70485000D01*
X175895000Y-75794998D02*
X178435000Y-73254998D01*
X175895000Y-80645000D02*
X175895000Y-75794998D01*
G04 #@! TO.N,Net-(R1-Pad1)*
X171450000Y-107950000D02*
X174625000Y-107950000D01*
X177800000Y-111125000D02*
X174625000Y-107950000D01*
X184785000Y-111125000D02*
X177800000Y-111125000D01*
G04 #@! TO.N,Net-(R2-Pad1)*
X173990000Y-110490000D02*
X174625000Y-111125000D01*
X171450000Y-110490000D02*
X173990000Y-110490000D01*
X174625000Y-111125000D02*
X174625000Y-114300000D01*
G04 #@! TO.N,Net-(R7-Pad1)*
X151765000Y-80010000D02*
X148590000Y-80010000D01*
X158750000Y-80010000D02*
X161925000Y-83185000D01*
X151765000Y-80010000D02*
X158750000Y-80010000D01*
G04 #@! TO.N,Net-(R9-Pad1)*
X134620000Y-78105000D02*
X137795000Y-74930000D01*
X132715000Y-78105000D02*
X134620000Y-78105000D01*
G04 #@! TO.N,Net-(R16-Pad1)*
X125730000Y-107950000D02*
X128905000Y-107950000D01*
X135890000Y-107950000D02*
X139065000Y-111125000D01*
X128905000Y-107950000D02*
X135890000Y-107950000D01*
G04 #@! TO.N,Net-(R22-Pad1)*
X114935000Y-105410000D02*
X118110000Y-105410000D01*
X107950000Y-105410000D02*
X104775000Y-108585000D01*
X114935000Y-105410000D02*
X107950000Y-105410000D01*
G04 #@! TO.N,Net-(R23-Pad1)*
X117475000Y-108585000D02*
X118110000Y-107950000D01*
X114935000Y-108585000D02*
X117475000Y-108585000D01*
X114935000Y-108585000D02*
X114935000Y-111760000D01*
G04 #@! TO.N,Net-(RV1-Pad2)*
X137795000Y-80645000D02*
X140970000Y-77470000D01*
X135255000Y-80645000D02*
X137795000Y-80645000D01*
G04 #@! TO.N,Net-(D2-Pad1)*
X113030000Y-66040000D02*
X117475000Y-66040000D01*
G04 #@! TD*
M02*
