M48
; DRILL file {KiCad (5.1.10)-1} date 07/20/21 07:49:10
; FORMAT={-:-/ absolute / inch / decimal}
; #@! TF.CreationDate,2021-07-20T07:49:10+09:00
; #@! TF.GenerationSoftware,Kicad,Pcbnew,(5.1.10)-1
FMAT,2
INCH
T1C0.0315
T2C0.0354
T3C0.0374
T4C0.0394
T5C0.1260
%
G90
G05
T1
X4.05Y-2.6
X4.05Y-3.6
X4.125Y-4.025
X4.125Y-4.15
X4.125Y-4.275
X4.125Y-4.4
X4.225Y-3.875
X4.4219Y-3.875
X4.45Y-2.6
X4.45Y-3.6
X4.525Y-4.025
X4.525Y-4.15
X4.525Y-4.275
X4.525Y-4.4
X4.65Y-4.05
X4.65Y-4.15
X4.65Y-4.25
X4.65Y-4.35
X4.65Y-4.475
X4.675Y-2.9016
X4.675Y-3.0
X4.675Y-3.2016
X4.675Y-3.3
X4.7484Y-4.475
X4.8516Y-3.925
X4.95Y-3.925
X4.95Y-4.05
X4.95Y-4.15
X4.95Y-4.25
X4.95Y-4.35
X5.025Y-2.825
X5.025Y-2.95
X5.075Y-4.125
X5.075Y-4.25
X5.075Y-4.375
X5.075Y-4.5
X5.175Y-3.975
X5.225Y-3.075
X5.225Y-3.275
X5.325Y-3.175
X5.3719Y-3.975
X5.425Y-2.825
X5.425Y-2.95
X5.475Y-4.125
X5.475Y-4.25
X5.475Y-4.375
X5.475Y-4.5
X5.55Y-2.95
X5.55Y-3.05
X5.55Y-3.15
X5.55Y-3.25
X5.55Y-3.375
X5.6484Y-3.375
X5.7Y-3.975
X5.7Y-4.375
X5.7516Y-2.825
X5.85Y-2.825
X5.85Y-2.95
X5.85Y-3.05
X5.85Y-3.15
X5.85Y-3.25
X5.925Y-4.025
X5.925Y-4.15
X5.925Y-4.275
X5.925Y-4.4
X5.975Y-3.025
X5.975Y-3.15
X5.975Y-3.275
X6.025Y-3.875
X6.0281Y-4.55
X6.0281Y-4.7
X6.075Y-2.875
X6.0781Y-3.425
X6.2219Y-3.875
X6.225Y-4.55
X6.225Y-4.7
X6.2719Y-2.875
X6.275Y-3.425
X6.325Y-4.025
X6.325Y-4.15
X6.325Y-4.275
X6.325Y-4.4
X6.375Y-3.025
X6.375Y-3.15
X6.375Y-3.275
X6.45Y-4.05
X6.45Y-4.15
X6.45Y-4.25
X6.45Y-4.35
X6.4516Y-4.475
X6.55Y-4.475
X6.65Y-2.875
X6.65Y-3.075
X6.65Y-3.475
X6.6516Y-3.925
X6.75Y-2.775
X6.75Y-2.975
X6.75Y-3.925
X6.75Y-4.05
X6.75Y-4.15
X6.75Y-4.25
X6.75Y-4.35
X6.875Y-4.125
X6.875Y-4.25
X6.875Y-4.375
X6.875Y-4.5
X6.925Y-2.875
X6.925Y-3.175
X6.975Y-3.825
X6.9781Y-3.975
X7.025Y-2.775
X7.025Y-2.975
X7.025Y-3.075
X7.025Y-3.275
X7.1719Y-3.825
X7.175Y-3.975
X7.275Y-4.125
X7.275Y-4.25
X7.275Y-4.375
X7.275Y-4.5
T2
X4.625Y-2.6
X4.625Y-3.6
X4.725Y-2.6
X4.725Y-3.6
T3
X5.4079Y-5.05
X5.5063Y-5.05
X5.6047Y-5.05
X5.7031Y-5.05
X5.8016Y-5.05
X5.9Y-5.05
T4
X4.2Y-2.9
X4.2Y-3.0
X4.2Y-3.1
X4.2Y-3.2
X4.2Y-3.3
X4.3Y-2.9
X4.3Y-3.0
X4.3Y-3.1
X4.3Y-3.2
X4.3Y-3.3
X5.7Y-3.675
X5.7Y-3.775
X6.45Y-2.475
X6.45Y-2.575
X6.525Y-5.0
X6.525Y-5.1
T5
X3.95Y-2.4
X3.95Y-5.175
X7.35Y-2.4
X7.35Y-5.2
T0
M30
